SplineFontDB: 3.2
FontName: TAC-Barathi
FullName: TAC-Barathi
FamilyName: TAC-Barathi
Weight: Book
Copyright: The font developed by Modular Infotech Pvt. Ltd., Pune, for Government of Tamil Nadu through Tamil Virtual Acadamy for free distribution.
Version: 1.00
ItalicAngle: 0
UnderlinePosition: -245
UnderlineWidth: 20
Ascent: 740
Descent: 260
InvalidEm: 0
sfntRevision: 0x00010000
LayerCount: 2
Layer: 0 1 "Back" 1
Layer: 1 1 "Fore" 0
XUID: [1021 615 940719703 6132877]
StyleMap: 0x0040
FSType: 0
OS2Version: 1
OS2_WeightWidthSlopeOnly: 0
OS2_UseTypoMetrics: 0
CreationTime: 1385856000
ModificationTime: 1385856000
PfmFamily: 17
TTFWeight: 400
TTFWidth: 5
LineGap: 0
VLineGap: 0
Panose: 2 0 6 0 0 0 0 0 0 0
OS2TypoAscent: 740
OS2TypoAOffset: 0
OS2TypoDescent: -260
OS2TypoDOffset: 0
OS2TypoLinegap: 216
OS2WinAscent: 751
OS2WinAOffset: 0
OS2WinDescent: 265
OS2WinDOffset: 0
HheadAscent: 751
HheadAOffset: 0
HheadDescent: -265
HheadDOffset: 0
OS2SubXSize: 700
OS2SubYSize: 650
OS2SubXOff: 0
OS2SubYOff: 200
OS2SupXSize: 700
OS2SupYSize: 650
OS2SupXOff: 0
OS2SupYOff: 500
OS2StrikeYSize: 50
OS2StrikeYPos: 250
OS2Vendor: 'MODI'
OS2CodePages: c0000003.00000000
OS2UnicodeRanges: 00000003.10000000.00000000.00000000
DEI: 91125
TtTable: prep
NPUSHB
 2
 69
 1
SCANTYPE
PUSHW_1
 511
SCANCTRL
SROUND
RTG
EndTTInstrs
TtTable: fpgm
NPUSHB
 5
 5
 4
 3
 2
 0
FDEF
SROUND
RCVT
DUP
PUSHB_1
 3
CINDEX
RCVT
SWAP
SUB
ROUND[Grey]
RTG
SWAP
ROUND[Grey]
ADD
WCVTP
ENDF
FDEF
RCVT
DUP
PUSHB_1
 3
CINDEX
RCVT
SWAP
SUB
ROUND[Grey]
SWAP
ROUND[Grey]
ADD
WCVTP
ENDF
FDEF
DUP
DUP
PUSHW_1
 -64
SHPIX
SRP2
PUSHB_2
 64
 1
SHZ[rp2]
SHPIX
ENDF
FDEF
DUP
DUP
PUSHB_1
 64
SHPIX
SRP2
PUSHB_1
 1
SHZ[rp2]
PUSHW_1
 -64
SHPIX
ENDF
FDEF
SVTCA[x-axis]
PUSHB_1
 70
SROUND
DUP
GC[orig]
ROUND[Grey]
RTG
SWAP
GC[cur]
SUB
ROUND[Grey]
DUP
IF
DUP
PUSHB_1
 3
CINDEX
SWAP
SHPIX
PUSHB_1
 2
CINDEX
SRP2
PUSHB_1
 1
SHZ[rp2]
NEG
SHPIX
EIF
ENDF
EndTTInstrs
ShortTable: cvt  145
  0
  0
  50
  700
  -50
  100
  479
  490
  -103
  485
  -242
  739
  -254

StartChar: .notdef
Encoding: 65536 -1 0
Width: 800
GlyphClass: 1
Flags: W
LayerCount: 2
Fore
SplineSet
100 0 m 1,0,-1
 100 700 l 1,1,-1
 700 700 l 1,2,-1
 700 0 l 1,3,-1
 100 0 l 1,4,-1
 100 0 l 1,0,-1
150 50 m 1,5,-1
 650 50 l 1,6,-1
 650 650 l 1,7,-1
 150 650 l 1,8,-1
 150 50 l 1,9,-1
 150 50 l 1,5,-1
EndSplineSet
EndChar

StartChar: A
Encoding: 57857 57857 4
Width: 1147
GlyphClass: 1
Flags: W
LayerCount: 2
Fore
SplineSet
20 103 m 1,0,1
 20 134 20 134 46 155 c 0,2,3
 72 177 72 177 109 177 c 2,4,-1
 830 177 l 1,5,6
 843 204 843 204 843 253 c 0,7,8
 843 324 843 324 794 377 c 0,9,10
 746 431 746 431 672 441 c 1,11,12
 689 431 689 431 698 409 c 0,13,14
 708 387 708 387 708 359 c 0,15,16
 708 306 708 306 669 269 c 0,17,18
 631 232 631 232 576 232 c 0,19,20
 516 232 516 232 474 269 c 256,21,22
 432 306 432 306 432 359 c 0,23,24
 432 413 432 413 486 452 c 0,25,26
 539 490 539 490 615 490 c 0,27,28
 732 490 732 490 815 421 c 0,29,30
 898 351 898 351 898 253 c 2,31,-1
 898 233 l 2,32,33
 898 187 898 187 894 177 c 1,34,-1
 1007 177 l 1,35,-1
 1007 479 l 1,36,-1
 1067 479 l 1,37,-1
 1067 -103 l 1,38,-1
 1007 -103 l 1,39,-1
 1007 127 l 1,40,-1
 880 127 l 1,41,42
 839 36 839 36 728 -19 c 0,43,44
 616 -73 616 -73 470 -73 c 0,45,46
 268 -73 268 -73 96 11 c 0,47,48
 61 28 61 28 41 53 c 0,49,50
 20 78 20 78 20 103 c 1,51,-1
 20 103 l 1,0,1
487 359 m 1,52,53
 487 327 487 327 511 305 c 0,54,55
 535 282 535 282 569 282 c 0,56,57
 604 282 604 282 628 305 c 0,58,59
 653 327 653 327 653 359 c 0,60,61
 653 390 653 390 628 413 c 0,62,63
 604 435 604 435 569 435 c 0,64,65
 535 435 535 435 511 413 c 0,66,67
 487 390 487 390 487 359 c 1,68,-1
 487 359 l 1,52,53
75 103 m 1,69,70
 75 97 75 97 84 89 c 2,71,-1
 109 68 l 2,72,73
 166 24 166 24 257 0 c 0,74,75
 348 -23 348 -23 463 -23 c 0,76,77
 592 -23 592 -23 688 18 c 0,78,79
 784 58 784 58 818 127 c 1,80,-1
 109 127 l 2,81,82
 95 127 95 127 85 120 c 256,83,84
 75 113 75 113 75 103 c 1,85,-1
 75 103 l 1,69,70
EndSplineSet
EndChar

StartChar: AA
Encoding: 57858 57858 5
Width: 1314
GlyphClass: 1
Flags: W
LayerCount: 2
Fore
SplineSet
19 105 m 1,0,1
 19 135 19 135 45 156 c 256,2,3
 71 177 71 177 108 177 c 2,4,-1
 829 177 l 1,5,6
 842 204 842 204 842 253 c 0,7,8
 842 321 842 321 793 373 c 0,9,10
 743 426 743 426 669 436 c 1,11,12
 687 427 687 427 697 405 c 0,13,14
 707 384 707 384 707 357 c 0,15,16
 707 305 707 305 667 269 c 0,17,18
 626 232 626 232 569 232 c 0,19,20
 511 232 511 232 471 269 c 0,21,22
 430 306 430 306 430 359 c 0,23,24
 430 411 430 411 476 448 c 0,25,26
 521 485 521 485 586 485 c 0,27,28
 657 485 657 485 715 470 c 256,29,30
 773 455 773 455 812 427 c 0,31,32
 852 398 852 398 875 352 c 0,33,34
 897 306 897 306 897 253 c 0,35,36
 897 215 897 215 896 203 c 0,37,38
 896 185 896 185 892 177 c 1,39,-1
 1006 177 l 1,40,-1
 1006 479 l 1,41,-1
 1066 479 l 1,42,-1
 1066 68 l 1,43,44
 1082 89 1082 89 1110 100 c 0,45,46
 1138 112 1138 112 1171 112 c 0,47,48
 1225 112 1225 112 1264 76 c 0,49,50
 1302 40 1302 40 1302 -11 c 0,51,52
 1302 -107 1302 -107 1186 -174 c 0,53,54
 1069 -242 1069 -242 905 -242 c 0,55,56
 800 -242 800 -242 726 -212 c 256,57,58
 652 -182 652 -182 652 -139 c 0,59,60
 652 -105 652 -105 696 -81 c 256,61,62
 740 -57 740 -57 803 -57 c 0,63,64
 878 -57 878 -57 936 -93 c 1,65,-1
 911 -131 l 1,66,67
 862 -107 862 -107 803 -107 c 0,68,69
 763 -107 763 -107 735 -117 c 0,70,71
 707 -126 707 -126 707 -140 c 0,72,73
 707 -165 707 -165 765 -179 c 0,74,75
 819 -192 819 -192 905 -192 c 0,76,77
 1047 -192 1047 -192 1147 -139 c 256,78,79
 1247 -86 1247 -86 1247 -11 c 0,80,81
 1247 19 1247 19 1225 41 c 0,82,83
 1202 62 1202 62 1171 62 c 0,84,85
 1139 62 1139 62 1110 41 c 0,86,87
 1082 20 1082 20 1066 -16 c 1,88,-1
 1066 -131 l 1,89,-1
 1006 -131 l 1,90,-1
 1006 127 l 1,91,-1
 879 127 l 1,92,93
 837 33 837 33 724 -22 c 0,94,95
 611 -78 611 -78 462 -78 c 0,96,97
 258 -78 258 -78 95 16 c 0,98,99
 60 36 60 36 39 60 c 0,100,101
 19 84 19 84 19 105 c 1,102,-1
 19 105 l 1,0,1
485 357 m 1,103,104
 485 326 485 326 509 304 c 0,105,106
 534 282 534 282 568 282 c 0,107,108
 603 282 603 282 627 304 c 0,109,110
 652 326 652 326 652 357 c 0,111,112
 652 389 652 389 628 412 c 0,113,114
 603 435 603 435 569 435 c 0,115,116
 534 435 534 435 510 412 c 0,117,118
 485 389 485 389 485 357 c 1,119,-1
 485 357 l 1,103,104
74 103 m 1,120,121
 74 97 74 97 83 89 c 2,122,-1
 108 68 l 2,123,124
 168 21 168 21 259 -3 c 0,125,126
 350 -28 350 -28 462 -28 c 0,127,128
 590 -28 590 -28 686 14 c 256,129,130
 782 56 782 56 817 127 c 1,131,-1
 108 127 l 2,132,133
 94 127 94 127 84 120 c 256,134,135
 74 113 74 113 74 103 c 1,136,-1
 74 103 l 1,120,121
EndSplineSet
EndChar

StartChar: I
Encoding: 57859 57859 6
Width: 992
GlyphClass: 1
Flags: W
LayerCount: 2
Fore
SplineSet
320 328 m 1,0,1
 320 293 320 293 343 269 c 0,2,3
 366 244 366 244 398 244 c 0,4,5
 429 244 429 244 452 269 c 0,6,7
 474 293 474 293 474 328 c 256,8,9
 474 363 474 363 452 387 c 0,10,11
 429 412 429 412 398 412 c 0,12,13
 366 412 366 412 343 387 c 0,14,15
 320 363 320 363 320 328 c 1,16,-1
 320 328 l 1,0,1
-7 -140 m 1,17,18
 -7 -92 -7 -92 34 -46 c 0,19,20
 76 1 76 1 145 32 c 1,21,22
 56 155 56 155 56 301 c 0,23,24
 56 482 56 482 189 611 c 0,25,26
 323 739 323 739 511 739 c 0,27,28
 678 739 678 739 795 633 c 0,29,30
 913 527 913 527 913 377 c 2,31,-1
 913 0 l 1,32,-1
 853 0 l 1,33,-1
 853 377 l 2,34,35
 853 506 853 506 753 598 c 0,36,37
 653 689 653 689 511 689 c 0,38,39
 345 689 345 689 228 575 c 0,40,41
 111 462 111 462 111 301 c 0,42,43
 111 160 111 160 196 51 c 1,44,45
 324 108 324 108 446 108 c 0,46,47
 553 108 553 108 612 91 c 1,48,49
 653 204 653 204 653 253 c 0,50,51
 653 333 653 333 601 389 c 0,52,53
 548 446 548 446 474 446 c 2,54,-1
 442 446 l 1,55,56
 481 435 481 435 505 402 c 256,57,58
 529 369 529 369 529 328 c 0,59,60
 529 272 529 272 491 233 c 0,61,62
 452 194 452 194 398 194 c 0,63,64
 343 194 343 194 304 233 c 256,65,66
 265 272 265 272 265 328 c 0,67,68
 265 398 265 398 326 447 c 256,69,70
 387 496 387 496 474 496 c 0,71,72
 571 496 571 496 639 425 c 0,73,74
 708 354 708 354 708 253 c 0,75,76
 708 180 708 180 663 79 c 1,77,78
 738 57 738 57 785 5 c 0,79,80
 832 -48 832 -48 832 -111 c 0,81,82
 832 -170 832 -170 783 -212 c 0,83,84
 733 -254 733 -254 663 -254 c 0,85,86
 527 -254 527 -254 410 -175 c 1,87,88
 293 -254 293 -254 132 -254 c 0,89,90
 74 -254 74 -254 34 -221 c 0,91,92
 -7 -187 -7 -187 -7 -140 c 1,93,-1
 -7 -140 l 1,17,18
48 -140 m 1,94,95
 48 -167 48 -167 73 -185 c 0,96,97
 97 -204 97 -204 132 -204 c 0,98,99
 257 -204 257 -204 353 -153 c 1,100,101
 215 -74 215 -74 170 -11 c 1,102,103
 114 -41 114 -41 81 -76 c 0,104,105
 48 -110 48 -110 48 -140 c 1,106,-1
 48 -140 l 1,94,95
233 11 m 1,107,108
 303 -78 303 -78 410 -126 c 1,109,110
 536 -59 536 -59 587 45 c 1,111,112
 542 58 542 58 446 58 c 0,113,114
 329 58 329 58 233 11 c 1,115,-1
 233 11 l 1,107,108
461 -153 m 1,116,117
 576 -204 576 -204 663 -204 c 0,118,119
 710 -204 710 -204 744 -177 c 0,120,121
 777 -150 777 -150 777 -111 c 0,122,123
 777 -65 777 -65 738 -25 c 0,124,125
 700 15 700 15 638 33 c 1,126,127
 588 -80 588 -80 461 -153 c 1,128,-1
 461 -153 l 1,116,117
EndSplineSet
EndChar

StartChar: II
Encoding: 57860 57860 7
Width: 729
GlyphClass: 1
Flags: W
LayerCount: 2
Fore
SplineSet
80 479 m 1,0,-1
 713 479 l 1,1,-1
 713 435 l 1,2,-1
 481 435 l 1,3,-1
 481 0 l 1,4,-1
 421 0 l 1,5,-1
 421 435 l 1,6,-1
 140 435 l 1,7,-1
 140 0 l 1,8,-1
 80 0 l 1,9,-1
 80 479 l 1,10,-1
 80 479 l 1,0,-1
561 240 m 1,11,12
 561 261 561 261 579 276 c 256,13,14
 597 291 597 291 623 291 c 0,15,16
 650 291 650 291 668 276 c 0,17,18
 687 261 687 261 687 240 c 256,19,20
 687 219 687 219 668 204 c 0,21,22
 650 189 650 189 623 189 c 0,23,24
 597 189 597 189 579 204 c 256,25,26
 561 219 561 219 561 240 c 1,27,-1
 561 240 l 1,11,12
219 240 m 1,28,29
 219 261 219 261 237 276 c 0,30,31
 256 291 256 291 282 291 c 256,32,33
 308 291 308 291 327 276 c 0,34,35
 345 261 345 261 345 240 c 256,36,37
 345 219 345 219 327 204 c 0,38,39
 308 189 308 189 282 189 c 256,40,41
 256 189 256 189 237 204 c 0,42,43
 219 219 219 219 219 240 c 1,44,-1
 219 240 l 1,28,29
EndSplineSet
EndChar

StartChar: U
Encoding: 57861 57861 8
Width: 945
GlyphClass: 1
Flags: W
LayerCount: 2
Fore
SplineSet
100 341 m 1,0,1
 100 317 100 317 119 299 c 0,2,3
 138 282 138 282 165 282 c 0,4,5
 191 282 191 282 210 299 c 0,6,7
 228 317 228 317 228 341 c 0,8,9
 228 370 228 370 210 391 c 0,10,11
 191 412 191 412 165 412 c 0,12,13
 138 412 138 412 119 391 c 256,14,15
 100 370 100 370 100 341 c 1,16,-1
 100 341 l 1,0,1
45 343 m 1,17,18
 45 406 45 406 110 451 c 0,19,20
 174 496 174 496 266 496 c 0,21,22
 367 496 367 496 439 440 c 256,23,24
 511 384 511 384 511 304 c 0,25,26
 511 226 511 226 450 170 c 0,27,28
 390 115 390 115 304 115 c 2,29,-1
 165 115 l 2,30,31
 138 115 138 115 119 104 c 0,32,33
 100 94 100 94 100 79 c 0,34,35
 100 65 100 65 119 55 c 256,36,37
 138 45 138 45 165 45 c 2,38,-1
 937 45 l 1,39,-1
 937 0 l 1,40,-1
 165 0 l 2,41,42
 115 0 115 0 80 23 c 256,43,44
 45 46 45 46 45 79 c 0,45,46
 45 115 45 115 80 140 c 256,47,48
 115 165 115 165 165 165 c 2,49,-1
 304 165 l 2,50,51
 367 165 367 165 411 206 c 0,52,53
 456 246 456 246 456 304 c 0,54,55
 456 363 456 363 400 404 c 0,56,57
 345 446 345 446 266 446 c 1,58,-1
 215 441 l 1,59,60
 246 430 246 430 264 402 c 0,61,62
 283 375 283 375 283 341 c 0,63,64
 283 296 283 296 248 264 c 0,65,66
 214 232 214 232 165 232 c 0,67,68
 115 232 115 232 80 265 c 0,69,70
 45 297 45 297 45 343 c 1,71,-1
 45 343 l 1,17,18
EndSplineSet
EndChar

StartChar: UU
Encoding: 57862 57862 9
Width: 1317
GlyphClass: 1
Flags: W
LayerCount: 2
Fore
SplineSet
101 341 m 1,0,1
 101 317 101 317 120 299 c 0,2,3
 140 282 140 282 167 282 c 0,4,5
 193 282 193 282 211 299 c 0,6,7
 229 317 229 317 229 341 c 0,8,9
 229 370 229 370 211 391 c 256,10,11
 193 412 193 412 167 412 c 0,12,13
 140 412 140 412 120 391 c 0,14,15
 101 370 101 370 101 341 c 1,16,-1
 101 341 l 1,0,1
673 201 m 1,17,18
 673 176 673 176 695 159 c 0,19,20
 718 141 718 141 749 141 c 0,21,22
 775 141 775 141 793 159 c 0,23,24
 811 176 811 176 811 201 c 0,25,26
 811 228 811 228 793 247 c 256,27,28
 775 266 775 266 749 266 c 0,29,30
 718 266 718 266 695 247 c 0,31,32
 673 228 673 228 673 201 c 1,33,-1
 673 201 l 1,17,18
46 343 m 1,34,35
 46 406 46 406 111 451 c 256,36,37
 176 496 176 496 268 496 c 0,38,39
 369 496 369 496 441 440 c 0,40,41
 512 384 512 384 512 304 c 0,42,43
 512 226 512 226 451 170 c 0,44,45
 391 115 391 115 305 115 c 2,46,-1
 160 115 l 2,47,48
 136 115 136 115 118 104 c 0,49,50
 101 94 101 94 101 79 c 0,51,52
 101 65 101 65 118 55 c 0,53,54
 136 45 136 45 160 45 c 2,55,-1
 1267 45 l 1,56,-1
 1267 0 l 1,57,-1
 160 0 l 2,58,59
 113 0 113 0 79 23 c 0,60,61
 46 46 46 46 46 79 c 0,62,63
 46 115 46 115 79 140 c 0,64,65
 113 165 113 165 160 165 c 2,66,-1
 305 165 l 2,67,68
 368 165 368 165 412 206 c 0,69,70
 457 246 457 246 457 304 c 0,71,72
 457 363 457 363 402 404 c 0,73,74
 346 446 346 446 268 446 c 2,75,-1
 211 446 l 1,76,77
 243 437 243 437 264 408 c 0,78,79
 284 378 284 378 284 341 c 0,80,81
 284 296 284 296 250 264 c 0,82,83
 215 232 215 232 167 232 c 0,84,85
 117 232 117 232 81 265 c 0,86,87
 46 297 46 297 46 343 c 1,88,-1
 46 343 l 1,34,35
590 291 m 1,89,90
 590 376 590 376 651 436 c 256,91,92
 712 496 712 496 799 496 c 0,93,94
 833 496 833 496 869 480 c 256,95,96
 905 464 905 464 938 435 c 1,97,-1
 938 479 l 1,98,-1
 1305 479 l 1,99,-1
 1305 435 l 1,100,-1
 1175 435 l 1,101,-1
 1175 91 l 1,102,-1
 1115 91 l 1,103,-1
 1115 435 l 1,104,-1
 998 435 l 1,105,-1
 998 91 l 1,106,-1
 938 91 l 1,107,-1
 938 291 l 2,108,109
 938 355 938 355 897 401 c 0,110,111
 857 446 857 446 799 446 c 0,112,113
 735 446 735 446 690 401 c 0,114,115
 645 355 645 355 645 291 c 2,116,-1
 645 263 l 1,117,118
 659 288 659 288 687 302 c 256,119,120
 715 316 715 316 749 316 c 0,121,122
 797 316 797 316 832 282 c 0,123,124
 866 249 866 249 866 201 c 0,125,126
 866 155 866 155 832 123 c 0,127,128
 797 91 797 91 749 91 c 0,129,130
 677 91 677 91 633 146 c 0,131,132
 590 200 590 200 590 291 c 1,133,-1
 590 291 l 1,89,90
EndSplineSet
EndChar

StartChar: E
Encoding: 57863 57863 10
Width: 816
GlyphClass: 1
Flags: W
LayerCount: 2
Fore
SplineSet
211 127 m 1,0,1
 211 91 211 91 234 65 c 256,2,3
 257 39 257 39 289 39 c 0,4,5
 320 39 320 39 343 65 c 0,6,7
 365 91 365 91 365 127 c 256,8,9
 365 163 365 163 343 189 c 0,10,11
 320 214 320 214 289 214 c 0,12,13
 257 214 257 214 234 189 c 0,14,15
 211 163 211 163 211 127 c 1,16,-1
 211 127 l 1,0,1
567 435 m 1,17,-1
 314 435 l 2,18,19
 224 435 224 435 161 370 c 0,20,21
 97 306 97 306 97 214 c 0,22,23
 97 159 97 159 123 114 c 0,24,25
 150 70 150 70 194 50 c 1,26,27
 176 68 176 68 166 88 c 256,28,29
 156 108 156 108 156 127 c 0,30,31
 156 184 156 184 195 224 c 256,32,33
 234 264 234 264 289 264 c 0,34,35
 343 264 343 264 382 224 c 0,36,37
 420 184 420 184 420 127 c 256,38,39
 420 70 420 70 374 29 c 0,40,41
 329 -11 329 -11 264 -11 c 0,42,43
 172 -11 172 -11 107 55 c 256,44,45
 42 121 42 121 42 214 c 0,46,47
 42 324 42 324 122 401 c 0,48,49
 201 479 201 479 314 479 c 2,50,-1
 808 479 l 1,51,-1
 808 435 l 1,52,-1
 627 435 l 1,53,-1
 627 0 l 1,54,-1
 567 0 l 1,55,-1
 567 435 l 1,56,-1
 567 435 l 1,17,-1
EndSplineSet
EndChar

StartChar: EE
Encoding: 57864 57864 11
Width: 815
GlyphClass: 1
Flags: W
LayerCount: 2
Fore
SplineSet
210 127 m 1,0,1
 210 91 210 91 233 65 c 256,2,3
 256 39 256 39 288 39 c 0,4,5
 319 39 319 39 342 65 c 0,6,7
 364 91 364 91 364 127 c 256,8,9
 364 163 364 163 342 189 c 0,10,11
 319 214 319 214 288 214 c 0,12,13
 256 214 256 214 233 189 c 0,14,15
 210 163 210 163 210 127 c 1,16,-1
 210 127 l 1,0,1
566 435 m 1,17,-1
 313 435 l 2,18,19
 223 435 223 435 160 370 c 0,20,21
 96 306 96 306 96 214 c 0,22,23
 96 161 96 161 121 116 c 0,24,25
 145 72 145 72 187 50 c 1,26,27
 172 65 172 65 163 85 c 0,28,29
 155 105 155 105 155 127 c 0,30,31
 155 184 155 184 194 224 c 256,32,33
 233 264 233 264 288 264 c 0,34,35
 342 264 342 264 381 224 c 0,36,37
 419 184 419 184 419 127 c 0,38,39
 419 64 419 64 378 27 c 0,40,41
 337 -11 337 -11 269 -11 c 0,42,43
 175 -11 175 -11 108 55 c 256,44,45
 41 121 41 121 41 214 c 0,46,47
 41 324 41 324 121 401 c 0,48,49
 200 479 200 479 313 479 c 2,50,-1
 807 479 l 1,51,-1
 807 435 l 1,52,-1
 626 435 l 1,53,-1
 626 0 l 1,54,55
 495 -38 495 -38 414 -149 c 1,56,-1
 357 -121 l 1,57,58
 403 -62 403 -62 457 -22 c 0,59,60
 510 17 510 17 566 33 c 1,61,-1
 566 435 l 1,62,-1
 566 435 l 1,17,-1
EndSplineSet
EndChar

StartChar: AI
Encoding: 57865 57865 12
Width: 828
GlyphClass: 1
Flags: W
LayerCount: 2
Fore
SplineSet
39 -78 m 1,0,1
 39 3 39 3 104 61 c 0,2,3
 168 118 168 118 260 118 c 2,4,-1
 545 118 l 2,5,6
 623 118 623 118 679 165 c 0,7,8
 734 212 734 212 734 278 c 0,9,10
 734 348 734 348 691 397 c 0,11,12
 647 446 647 446 586 446 c 0,13,14
 536 446 536 446 500 411 c 0,15,16
 465 377 465 377 465 328 c 2,17,-1
 465 164 l 1,18,-1
 405 164 l 1,19,-1
 405 328 l 2,20,21
 405 377 405 377 361 411 c 0,22,23
 317 446 317 446 254 446 c 0,24,25
 206 446 206 446 170 430 c 0,26,27
 135 414 135 414 123 388 c 1,28,29
 131 395 131 395 146 399 c 0,30,31
 160 403 160 403 179 403 c 0,32,33
 238 403 238 403 280 369 c 0,34,35
 322 334 322 334 322 286 c 0,36,37
 322 235 322 235 280 200 c 0,38,39
 238 164 238 164 179 164 c 0,40,41
 121 164 121 164 80 204 c 0,42,43
 39 243 39 243 39 299 c 0,44,45
 39 388 39 388 98 442 c 0,46,47
 156 496 156 496 254 496 c 0,48,49
 311 496 311 496 357 476 c 0,50,51
 404 457 404 457 432 421 c 1,52,53
 460 457 460 457 500 476 c 0,54,55
 541 496 541 496 586 496 c 0,56,57
 670 496 670 496 730 432 c 0,58,59
 789 368 789 368 789 278 c 0,60,61
 789 191 789 191 718 130 c 0,62,63
 646 68 646 68 545 68 c 2,64,-1
 260 68 l 2,65,66
 191 68 191 68 143 25 c 0,67,68
 94 -18 94 -18 94 -78 c 0,69,70
 94 -133 94 -133 137 -171 c 0,71,72
 181 -210 181 -210 242 -210 c 0,73,74
 310 -210 310 -210 357 -167 c 0,75,76
 405 -124 405 -124 405 -63 c 2,77,-1
 405 11 l 1,78,-1
 465 11 l 1,79,-1
 465 -63 l 2,80,81
 465 -124 465 -124 507 -167 c 256,82,83
 549 -210 549 -210 608 -210 c 0,84,85
 660 -210 660 -210 697 -179 c 0,86,87
 734 -147 734 -147 734 -103 c 0,88,89
 734 -71 734 -71 710 -43 c 0,90,91
 686 -14 686 -14 646 0 c 1,92,-1
 684 39 l 1,93,94
 731 22 731 22 760 -17 c 256,95,96
 789 -56 789 -56 789 -103 c 0,97,98
 789 -168 789 -168 736 -214 c 256,99,100
 683 -260 683 -260 608 -260 c 0,101,102
 552 -260 552 -260 505 -231 c 0,103,104
 459 -202 459 -202 437 -153 c 1,105,106
 415 -202 415 -202 362 -231 c 256,107,108
 309 -260 309 -260 242 -260 c 0,109,110
 158 -260 158 -260 98 -207 c 0,111,112
 39 -153 39 -153 39 -78 c 1,113,-1
 39 -78 l 1,0,1
94 283 m 1,114,115
 94 254 94 254 119 234 c 256,116,117
 144 214 144 214 180 214 c 256,118,119
 216 214 216 214 242 234 c 0,120,121
 267 254 267 254 267 283 c 256,122,123
 267 312 267 312 242 332 c 0,124,125
 216 353 216 353 180 353 c 256,126,127
 144 353 144 353 119 332 c 0,128,129
 94 312 94 312 94 283 c 1,130,-1
 94 283 l 1,114,115
EndSplineSet
EndChar

StartChar: O
Encoding: 57866 57866 13
Width: 854
GlyphClass: 1
Flags: W
LayerCount: 2
Fore
SplineSet
39 176 m 1,0,1
 39 313 39 313 150 410 c 0,2,3
 262 507 262 507 419 507 c 0,4,5
 583 507 583 507 700 410 c 0,6,7
 816 313 816 313 816 176 c 0,8,9
 816 117 816 117 774 75 c 256,10,11
 732 33 732 33 672 33 c 0,12,13
 614 33 614 33 574 68 c 0,14,15
 533 102 533 102 533 151 c 0,16,17
 533 171 533 171 536 185 c 0,18,19
 539 200 539 200 545 207 c 1,20,21
 518 194 518 194 503 166 c 0,22,23
 487 138 487 138 487 103 c 0,24,25
 487 55 487 55 539 21 c 256,26,27
 591 -13 591 -13 665 -13 c 2,28,-1
 798 -13 l 1,29,-1
 798 -63 l 1,30,-1
 609 -63 l 2,31,32
 580 -63 580 -63 556 -84 c 0,33,34
 531 -106 531 -106 520 -140 c 0,35,36
 503 -193 503 -193 450 -226 c 0,37,38
 398 -259 398 -259 331 -259 c 0,39,40
 263 -259 263 -259 214 -226 c 0,41,42
 166 -192 166 -192 166 -145 c 0,43,44
 166 -102 166 -102 199 -72 c 0,45,46
 233 -42 233 -42 280 -42 c 1,47,-1
 280 -83 l 1,48,49
 256 -83 256 -83 238 -101 c 0,50,51
 221 -119 221 -119 221 -145 c 0,52,53
 221 -172 221 -172 253 -190 c 0,54,55
 285 -209 285 -209 331 -209 c 0,56,57
 376 -209 376 -209 411 -190 c 256,58,59
 446 -171 446 -171 457 -140 c 0,60,61
 472 -99 472 -99 496 -72 c 0,62,63
 519 -45 519 -45 547 -37 c 1,64,65
 496 -22 496 -22 464 17 c 0,66,67
 432 55 432 55 432 103 c 0,68,69
 432 175 432 175 491 227 c 0,70,71
 550 278 550 278 634 278 c 1,72,73
 612 257 612 257 600 224 c 256,74,75
 588 191 588 191 588 151 c 0,76,77
 588 123 588 123 613 103 c 0,78,79
 637 83 637 83 672 83 c 0,80,81
 709 83 709 83 735 110 c 256,82,83
 761 137 761 137 761 176 c 0,84,85
 761 292 761 292 661 375 c 0,86,87
 561 457 561 457 419 457 c 0,88,89
 284 457 284 457 189 375 c 0,90,91
 94 292 94 292 94 176 c 0,92,93
 94 130 94 130 121 95 c 1,94,95
 111 126 111 126 111 140 c 0,96,97
 111 191 111 191 146 228 c 0,98,99
 180 264 180 264 229 264 c 256,100,101
 278 264 278 264 312 227 c 0,102,103
 347 191 347 191 347 139 c 0,104,105
 347 86 347 86 312 48 c 0,106,107
 278 11 278 11 229 11 c 0,108,109
 150 11 150 11 95 59 c 0,110,111
 39 108 39 108 39 176 c 1,112,-1
 39 176 l 1,0,1
166 139 m 1,113,114
 166 107 166 107 184 84 c 0,115,116
 203 61 203 61 229 61 c 256,117,118
 255 61 255 61 274 84 c 0,119,120
 292 107 292 107 292 139 c 0,121,122
 292 170 292 170 274 192 c 0,123,124
 255 214 255 214 229 214 c 256,125,126
 203 214 203 214 184 192 c 0,127,128
 166 170 166 170 166 139 c 1,129,-1
 166 139 l 1,113,114
EndSplineSet
EndChar

StartChar: OO
Encoding: 57867 57867 14
Width: 854
GlyphClass: 1
Flags: W
LayerCount: 2
Fore
SplineSet
39 176 m 1,0,1
 39 313 39 313 150 410 c 0,2,3
 262 507 262 507 419 507 c 0,4,5
 583 507 583 507 700 410 c 0,6,7
 816 313 816 313 816 176 c 0,8,9
 816 117 816 117 774 75 c 256,10,11
 732 33 732 33 672 33 c 0,12,13
 614 33 614 33 574 68 c 0,14,15
 533 102 533 102 533 151 c 0,16,17
 533 171 533 171 536 185 c 0,18,19
 539 200 539 200 545 207 c 1,20,21
 518 194 518 194 503 166 c 0,22,23
 487 138 487 138 487 103 c 0,24,25
 487 55 487 55 538 21 c 0,26,27
 588 -13 588 -13 660 -13 c 2,28,-1
 798 -13 l 1,29,-1
 798 -63 l 1,30,-1
 609 -63 l 2,31,32
 580 -63 580 -63 556 -84 c 0,33,34
 531 -106 531 -106 520 -140 c 0,35,36
 503 -193 503 -193 450 -226 c 0,37,38
 398 -259 398 -259 331 -259 c 0,39,40
 263 -259 263 -259 214 -226 c 0,41,42
 166 -192 166 -192 166 -145 c 0,43,44
 166 -99 166 -99 199 -66 c 0,45,46
 233 -33 233 -33 280 -33 c 0,47,48
 324 -33 324 -33 355 -59 c 256,49,50
 386 -85 386 -85 386 -121 c 0,51,52
 386 -155 386 -155 361 -180 c 0,53,54
 337 -204 337 -204 302 -204 c 1,55,56
 319 -209 319 -209 331 -209 c 0,57,58
 376 -209 376 -209 411 -190 c 256,59,60
 446 -171 446 -171 457 -140 c 0,61,62
 471 -101 471 -101 498 -74 c 256,63,64
 525 -47 525 -47 558 -37 c 1,65,66
 502 -21 502 -21 467 18 c 256,67,68
 432 57 432 57 432 103 c 0,69,70
 432 175 432 175 491 227 c 0,71,72
 550 278 550 278 634 278 c 1,73,74
 612 257 612 257 600 224 c 256,75,76
 588 191 588 191 588 151 c 0,77,78
 588 123 588 123 613 103 c 0,79,80
 637 83 637 83 672 83 c 0,81,82
 709 83 709 83 735 110 c 256,83,84
 761 137 761 137 761 176 c 0,85,86
 761 292 761 292 661 375 c 0,87,88
 561 457 561 457 419 457 c 0,89,90
 284 457 284 457 189 375 c 0,91,92
 94 292 94 292 94 176 c 0,93,94
 94 133 94 133 122 97 c 1,95,96
 112 114 112 114 112 140 c 0,97,98
 112 191 112 191 146 228 c 0,99,100
 181 264 181 264 229 264 c 0,101,102
 278 264 278 264 312 227 c 0,103,104
 347 191 347 191 347 139 c 0,105,106
 347 86 347 86 312 48 c 0,107,108
 278 11 278 11 229 11 c 0,109,110
 150 11 150 11 95 59 c 0,111,112
 39 108 39 108 39 176 c 1,113,-1
 39 176 l 1,0,1
167 139 m 1,114,115
 167 107 167 107 185 84 c 256,116,117
 203 61 203 61 229 61 c 256,118,119
 255 61 255 61 274 84 c 0,120,121
 292 107 292 107 292 139 c 0,122,123
 292 170 292 170 274 192 c 0,124,125
 255 214 255 214 229 214 c 256,126,127
 203 214 203 214 185 192 c 256,128,129
 167 170 167 170 167 139 c 1,130,-1
 167 139 l 1,114,115
221 -121 m 1,131,132
 221 -137 221 -137 238 -148 c 0,133,134
 256 -159 256 -159 280 -159 c 0,135,136
 301 -159 301 -159 316 -148 c 256,137,138
 331 -137 331 -137 331 -121 c 256,139,140
 331 -105 331 -105 316 -94 c 256,141,142
 301 -83 301 -83 280 -83 c 0,143,144
 256 -83 256 -83 238 -94 c 0,145,146
 221 -105 221 -105 221 -121 c 1,147,-1
 221 -121 l 1,131,132
EndSplineSet
EndChar

StartChar: AU
Encoding: 57868 57868 15
Width: 1791
GlyphClass: 1
Flags: W
LayerCount: 2
Fore
SplineSet
39 176 m 1,0,1
 39 313 39 313 150 410 c 0,2,3
 262 507 262 507 419 507 c 0,4,5
 583 507 583 507 700 410 c 0,6,7
 816 313 816 313 816 176 c 0,8,9
 816 117 816 117 774 75 c 256,10,11
 732 33 732 33 672 33 c 0,12,13
 614 33 614 33 574 68 c 0,14,15
 533 102 533 102 533 151 c 0,16,17
 533 171 533 171 536 185 c 0,18,19
 539 200 539 200 545 207 c 1,20,21
 518 194 518 194 503 166 c 0,22,23
 487 138 487 138 487 103 c 0,24,25
 487 55 487 55 539 21 c 256,26,27
 591 -13 591 -13 665 -13 c 2,28,-1
 798 -13 l 1,29,-1
 798 -63 l 1,30,-1
 609 -63 l 2,31,32
 580 -63 580 -63 556 -84 c 0,33,34
 531 -106 531 -106 520 -140 c 0,35,36
 503 -193 503 -193 450 -226 c 0,37,38
 398 -259 398 -259 331 -259 c 0,39,40
 263 -259 263 -259 214 -226 c 0,41,42
 166 -192 166 -192 166 -145 c 0,43,44
 166 -102 166 -102 199 -72 c 0,45,46
 233 -42 233 -42 280 -42 c 1,47,-1
 280 -83 l 1,48,49
 256 -83 256 -83 238 -101 c 0,50,51
 221 -119 221 -119 221 -145 c 0,52,53
 221 -172 221 -172 253 -190 c 0,54,55
 285 -209 285 -209 331 -209 c 0,56,57
 376 -209 376 -209 411 -190 c 256,58,59
 446 -171 446 -171 457 -140 c 0,60,61
 472 -99 472 -99 496 -72 c 0,62,63
 519 -45 519 -45 547 -37 c 1,64,65
 496 -22 496 -22 464 17 c 0,66,67
 432 55 432 55 432 103 c 0,68,69
 432 175 432 175 491 227 c 0,70,71
 550 278 550 278 634 278 c 1,72,73
 612 257 612 257 600 224 c 256,74,75
 588 191 588 191 588 151 c 0,76,77
 588 123 588 123 613 103 c 0,78,79
 637 83 637 83 672 83 c 0,80,81
 709 83 709 83 735 110 c 256,82,83
 761 137 761 137 761 176 c 0,84,85
 761 292 761 292 661 375 c 0,86,87
 561 457 561 457 419 457 c 0,88,89
 284 457 284 457 189 375 c 0,90,91
 94 292 94 292 94 176 c 0,92,93
 94 130 94 130 121 95 c 1,94,95
 111 126 111 126 111 140 c 0,96,97
 111 191 111 191 146 228 c 0,98,99
 180 264 180 264 229 264 c 256,100,101
 278 264 278 264 312 227 c 0,102,103
 347 191 347 191 347 139 c 0,104,105
 347 86 347 86 312 48 c 0,106,107
 278 11 278 11 229 11 c 0,108,109
 150 11 150 11 95 59 c 0,110,111
 39 108 39 108 39 176 c 1,112,-1
 39 176 l 1,0,1
166 139 m 1,113,114
 166 107 166 107 184 84 c 0,115,116
 203 61 203 61 229 61 c 256,117,118
 255 61 255 61 274 84 c 0,119,120
 292 107 292 107 292 139 c 0,121,122
 292 170 292 170 274 192 c 0,123,124
 255 214 255 214 229 214 c 256,125,126
 203 214 203 214 184 192 c 0,127,128
 166 170 166 170 166 139 c 1,129,-1
 166 139 l 1,113,114
1048 133 m 1,130,131
 1048 94 1048 94 1071 67 c 0,132,133
 1093 39 1093 39 1125 39 c 0,134,135
 1156 39 1156 39 1179 67 c 0,136,137
 1201 94 1201 94 1201 133 c 256,138,139
 1201 172 1201 172 1179 199 c 0,140,141
 1156 227 1156 227 1125 227 c 0,142,143
 1093 227 1093 227 1071 199 c 0,144,145
 1048 172 1048 172 1048 133 c 1,146,-1
 1048 133 l 1,130,131
1339 479 m 1,147,-1
 1783 479 l 1,148,-1
 1783 435 l 1,149,-1
 1641 435 l 1,150,-1
 1641 0 l 1,151,-1
 1581 0 l 1,152,-1
 1581 435 l 1,153,-1
 1399 435 l 1,154,-1
 1399 0 l 1,155,-1
 1339 0 l 1,156,-1
 1339 240 l 2,157,158
 1339 325 1339 325 1280 386 c 0,159,160
 1222 446 1222 446 1139 446 c 0,161,162
 1062 446 1062 446 1007 382 c 0,163,164
 953 318 953 318 953 227 c 0,165,166
 953 171 953 171 969 130 c 0,167,168
 984 88 984 88 1012 71 c 1,169,170
 993 97 993 97 993 133 c 0,171,172
 993 193 993 193 1032 235 c 0,173,174
 1070 277 1070 277 1125 277 c 0,175,176
 1179 277 1179 277 1218 235 c 0,177,178
 1256 193 1256 193 1256 133 c 256,179,180
 1256 73 1256 73 1217 31 c 256,181,182
 1178 -11 1178 -11 1122 -11 c 0,183,184
 1029 -11 1029 -11 964 59 c 0,185,186
 898 128 898 128 898 227 c 0,187,188
 898 338 898 338 969 417 c 0,189,190
 1039 496 1039 496 1139 496 c 0,191,192
 1202 496 1202 496 1255 466 c 0,193,194
 1309 435 1309 435 1339 383 c 1,195,-1
 1339 479 l 1,196,-1
 1339 479 l 1,147,-1
EndSplineSet
EndChar

StartChar: AYTHAM
Encoding: 57869 57869 16
Width: 814
GlyphClass: 1
Flags: W
LayerCount: 2
Fore
SplineSet
26 103 m 1,0,1
 26 150 26 150 63 183 c 256,2,3
 100 216 100 216 152 216 c 0,4,5
 206 216 206 216 245 183 c 0,6,7
 283 150 283 150 283 103 c 256,8,9
 283 56 283 56 245 22 c 0,10,11
 206 -11 206 -11 152 -11 c 0,12,13
 100 -11 100 -11 63 22 c 0,14,15
 26 56 26 56 26 103 c 1,16,-1
 26 103 l 1,0,1
81 103 m 1,17,18
 81 76 81 76 102 58 c 0,19,20
 123 39 123 39 152 39 c 0,21,22
 183 39 183 39 206 58 c 0,23,24
 228 76 228 76 228 103 c 0,25,26
 228 129 228 129 206 148 c 0,27,28
 183 166 183 166 152 166 c 0,29,30
 123 166 123 166 102 148 c 0,31,32
 81 129 81 129 81 103 c 1,33,-1
 81 103 l 1,17,18
532 103 m 1,34,35
 532 150 532 150 569 183 c 256,36,37
 606 216 606 216 658 216 c 0,38,39
 712 216 712 216 751 183 c 0,40,41
 789 150 789 150 789 103 c 256,42,43
 789 56 789 56 751 22 c 0,44,45
 712 -11 712 -11 658 -11 c 0,46,47
 606 -11 606 -11 569 22 c 0,48,49
 532 56 532 56 532 103 c 1,50,-1
 532 103 l 1,34,35
587 103 m 1,51,52
 587 76 587 76 608 58 c 0,53,54
 629 39 629 39 658 39 c 0,55,56
 689 39 689 39 712 58 c 0,57,58
 734 76 734 76 734 103 c 0,59,60
 734 129 734 129 712 148 c 0,61,62
 689 166 689 166 658 166 c 0,63,64
 629 166 629 166 608 148 c 0,65,66
 587 129 587 129 587 103 c 1,67,-1
 587 103 l 1,51,52
279 542 m 1,68,69
 279 589 279 589 318 622 c 256,70,71
 357 655 357 655 412 655 c 0,72,73
 463 655 463 655 500 622 c 0,74,75
 536 589 536 589 536 542 c 256,76,77
 536 495 536 495 498 461 c 0,78,79
 459 428 459 428 405 428 c 0,80,81
 353 428 353 428 316 461 c 0,82,83
 279 495 279 495 279 542 c 1,84,-1
 279 542 l 1,68,69
334 542 m 1,85,86
 334 515 334 515 355 497 c 0,87,88
 376 478 376 478 405 478 c 0,89,90
 436 478 436 478 459 497 c 0,91,92
 481 515 481 515 481 542 c 0,93,94
 481 568 481 568 461 587 c 0,95,96
 441 605 441 605 412 605 c 0,97,98
 380 605 380 605 357 587 c 0,99,100
 334 568 334 568 334 542 c 1,101,-1
 334 542 l 1,85,86
EndSplineSet
EndChar

StartChar: K
Encoding: 57872 57872 17
Width: 651
GlyphClass: 1
Flags: W
LayerCount: 2
Fore
SplineSet
214 264 m 1,0,-1
 344 264 l 1,1,-1
 344 435 l 1,2,-1
 214 435 l 1,3,-1
 214 264 l 1,4,-1
 214 264 l 1,0,-1
83 151 m 1,5,6
 83 105 83 105 126 72 c 256,7,8
 169 39 169 39 230 39 c 0,9,10
 277 39 277 39 311 65 c 0,11,12
 344 91 344 91 344 127 c 2,13,-1
 344 214 l 1,14,-1
 154 214 l 2,15,16
 125 214 125 214 104 196 c 0,17,18
 83 177 83 177 83 151 c 1,19,-1
 83 151 l 1,5,6
154 479 m 1,20,-1
 597 479 l 1,21,-1
 597 435 l 1,22,-1
 404 435 l 1,23,-1
 404 264 l 1,24,-1
 483 264 l 2,25,26
 537 264 537 264 576 224 c 0,27,28
 614 184 614 184 614 127 c 256,29,30
 614 70 614 70 579 29 c 0,31,32
 544 -11 544 -11 495 -11 c 0,33,34
 471 -11 471 -11 433 0 c 1,35,-1
 445 50 l 1,36,37
 470 39 470 39 495 39 c 0,38,39
 522 39 522 39 540 65 c 0,40,41
 559 91 559 91 559 127 c 256,42,43
 559 163 559 163 537 189 c 0,44,45
 514 214 514 214 483 214 c 2,46,-1
 404 214 l 1,47,-1
 404 127 l 2,48,49
 404 70 404 70 353 29 c 0,50,51
 302 -11 302 -11 230 -11 c 0,52,53
 146 -11 146 -11 87 36 c 0,54,55
 28 84 28 84 28 151 c 0,56,57
 28 198 28 198 65 231 c 256,58,59
 102 264 102 264 154 264 c 1,60,-1
 154 479 l 1,61,-1
 154 479 l 1,20,-1
262 589 m 1,62,63
 262 609 262 609 280 623 c 0,64,65
 299 637 299 637 325 637 c 0,66,67
 352 637 352 637 370 623 c 0,68,69
 389 609 389 609 389 589 c 0,70,71
 389 570 389 570 370 556 c 0,72,73
 352 542 352 542 325 542 c 0,74,75
 299 542 299 542 280 556 c 0,76,77
 262 570 262 570 262 589 c 1,78,-1
 262 589 l 1,62,63
EndSplineSet
EndChar

StartChar: KA
Encoding: 57873 57873 18
Width: 651
GlyphClass: 1
Flags: W
LayerCount: 2
Fore
SplineSet
214 264 m 1,0,-1
 344 264 l 1,1,-1
 344 435 l 1,2,-1
 214 435 l 1,3,-1
 214 264 l 1,4,-1
 214 264 l 1,0,-1
83 151 m 1,5,6
 83 105 83 105 126 72 c 256,7,8
 169 39 169 39 230 39 c 0,9,10
 277 39 277 39 311 65 c 0,11,12
 344 91 344 91 344 127 c 2,13,-1
 344 214 l 1,14,-1
 154 214 l 2,15,16
 125 214 125 214 104 196 c 0,17,18
 83 177 83 177 83 151 c 1,19,-1
 83 151 l 1,5,6
154 479 m 1,20,-1
 597 479 l 1,21,-1
 597 435 l 1,22,-1
 404 435 l 1,23,-1
 404 264 l 1,24,-1
 483 264 l 2,25,26
 537 264 537 264 576 224 c 0,27,28
 614 184 614 184 614 127 c 256,29,30
 614 70 614 70 579 29 c 0,31,32
 544 -11 544 -11 495 -11 c 0,33,34
 471 -11 471 -11 433 0 c 1,35,-1
 445 50 l 1,36,37
 470 39 470 39 495 39 c 0,38,39
 522 39 522 39 540 65 c 0,40,41
 559 91 559 91 559 127 c 256,42,43
 559 163 559 163 537 189 c 0,44,45
 514 214 514 214 483 214 c 2,46,-1
 404 214 l 1,47,-1
 404 127 l 2,48,49
 404 70 404 70 353 29 c 0,50,51
 302 -11 302 -11 230 -11 c 0,52,53
 146 -11 146 -11 87 36 c 0,54,55
 28 84 28 84 28 151 c 0,56,57
 28 198 28 198 65 231 c 256,58,59
 102 264 102 264 154 264 c 1,60,-1
 154 479 l 1,61,-1
 154 479 l 1,20,-1
EndSplineSet
EndChar

StartChar: KAA
Encoding: 57874 57874 19
Width: 1188
GlyphClass: 1
Flags: W
LayerCount: 2
Fore
SplineSet
214 264 m 1,0,-1
 344 264 l 1,1,-1
 344 435 l 1,2,-1
 214 435 l 1,3,-1
 214 264 l 1,4,-1
 214 264 l 1,0,-1
83 151 m 1,5,6
 83 105 83 105 126 72 c 256,7,8
 169 39 169 39 230 39 c 0,9,10
 277 39 277 39 311 65 c 0,11,12
 344 91 344 91 344 127 c 2,13,-1
 344 214 l 1,14,-1
 154 214 l 2,15,16
 125 214 125 214 104 196 c 0,17,18
 83 177 83 177 83 151 c 1,19,-1
 83 151 l 1,5,6
154 479 m 1,20,-1
 597 479 l 1,21,-1
 597 435 l 1,22,-1
 404 435 l 1,23,-1
 404 264 l 1,24,-1
 483 264 l 2,25,26
 537 264 537 264 576 224 c 0,27,28
 614 184 614 184 614 127 c 256,29,30
 614 70 614 70 579 29 c 0,31,32
 544 -11 544 -11 495 -11 c 0,33,34
 471 -11 471 -11 433 0 c 1,35,-1
 445 50 l 1,36,37
 470 39 470 39 495 39 c 0,38,39
 522 39 522 39 540 65 c 0,40,41
 559 91 559 91 559 127 c 256,42,43
 559 163 559 163 537 189 c 0,44,45
 514 214 514 214 483 214 c 2,46,-1
 404 214 l 1,47,-1
 404 127 l 2,48,49
 404 70 404 70 353 29 c 0,50,51
 302 -11 302 -11 230 -11 c 0,52,53
 146 -11 146 -11 87 36 c 0,54,55
 28 84 28 84 28 151 c 0,56,57
 28 198 28 198 65 231 c 256,58,59
 102 264 102 264 154 264 c 1,60,-1
 154 479 l 1,61,-1
 154 479 l 1,20,-1
731 479 m 1,62,-1
 1180 479 l 1,63,-1
 1180 435 l 1,64,-1
 1031 435 l 1,65,-1
 1031 0 l 1,66,-1
 971 0 l 1,67,-1
 971 435 l 1,68,-1
 791 435 l 1,69,-1
 791 0 l 1,70,-1
 731 0 l 1,71,-1
 731 479 l 1,72,-1
 731 479 l 1,62,-1
EndSplineSet
EndChar

StartChar: KI
Encoding: 57875 57875 20
Width: 838
GlyphClass: 1
Flags: W
LayerCount: 2
Fore
SplineSet
214 264 m 1,0,-1
 344 264 l 1,1,-1
 344 435 l 1,2,-1
 214 435 l 1,3,-1
 214 264 l 1,4,-1
 214 264 l 1,0,-1
83 151 m 1,5,6
 83 105 83 105 126 72 c 256,7,8
 169 39 169 39 230 39 c 0,9,10
 277 39 277 39 311 65 c 0,11,12
 344 91 344 91 344 127 c 2,13,-1
 344 214 l 1,14,-1
 154 214 l 2,15,16
 125 214 125 214 104 196 c 0,17,18
 83 177 83 177 83 151 c 1,19,-1
 83 151 l 1,5,6
154 479 m 1,20,-1
 362 479 l 1,21,22
 338 502 338 502 325 529 c 256,23,24
 312 556 312 556 312 582 c 0,25,26
 312 646 312 646 377 691 c 256,27,28
 442 736 442 736 534 736 c 0,29,30
 627 736 627 736 692 682 c 0,31,32
 758 629 758 629 758 553 c 2,33,-1
 758 0 l 1,34,-1
 698 0 l 1,35,-1
 698 553 l 2,36,37
 698 608 698 608 650 647 c 256,38,39
 602 686 602 686 534 686 c 0,40,41
 465 686 465 686 416 656 c 0,42,43
 367 625 367 625 367 582 c 0,44,45
 367 551 367 551 388 523 c 256,46,47
 409 495 409 495 445 479 c 1,48,-1
 597 479 l 1,49,-1
 597 435 l 1,50,-1
 404 435 l 1,51,-1
 404 264 l 1,52,-1
 483 264 l 2,53,54
 537 264 537 264 576 224 c 0,55,56
 614 184 614 184 614 127 c 256,57,58
 614 70 614 70 579 29 c 0,59,60
 544 -11 544 -11 495 -11 c 0,61,62
 471 -11 471 -11 433 0 c 1,63,-1
 445 50 l 1,64,65
 470 39 470 39 495 39 c 0,66,67
 522 39 522 39 540 65 c 0,68,69
 559 91 559 91 559 127 c 256,70,71
 559 163 559 163 537 189 c 0,72,73
 514 214 514 214 483 214 c 2,74,-1
 404 214 l 1,75,-1
 404 127 l 2,76,77
 404 70 404 70 353 29 c 0,78,79
 302 -11 302 -11 230 -11 c 0,80,81
 146 -11 146 -11 87 36 c 0,82,83
 28 84 28 84 28 151 c 0,84,85
 28 198 28 198 65 231 c 256,86,87
 102 264 102 264 154 264 c 1,88,-1
 154 479 l 1,89,-1
 154 479 l 1,20,-1
EndSplineSet
EndChar

StartChar: KII
Encoding: 57876 57876 21
Width: 651
GlyphClass: 1
Flags: W
LayerCount: 2
Fore
SplineSet
214 264 m 1,0,-1
 344 264 l 1,1,-1
 344 435 l 1,2,-1
 214 435 l 1,3,-1
 214 264 l 1,4,-1
 214 264 l 1,0,-1
83 151 m 1,5,6
 83 105 83 105 126 72 c 256,7,8
 169 39 169 39 230 39 c 0,9,10
 277 39 277 39 311 65 c 0,11,12
 344 91 344 91 344 127 c 2,13,-1
 344 214 l 1,14,-1
 154 214 l 2,15,16
 125 214 125 214 104 196 c 0,17,18
 83 177 83 177 83 151 c 1,19,-1
 83 151 l 1,5,6
154 479 m 1,20,-1
 332 479 l 1,21,22
 285 502 285 502 258 535 c 0,23,24
 230 569 230 569 230 603 c 0,25,26
 230 657 230 657 287 696 c 0,27,28
 345 734 345 734 426 734 c 0,29,30
 500 734 500 734 544 704 c 0,31,32
 589 674 589 674 589 624 c 0,33,34
 589 582 589 582 554 553 c 0,35,36
 519 523 519 523 470 523 c 0,37,38
 418 523 418 523 381 553 c 0,39,40
 344 582 344 582 344 624 c 0,41,42
 344 641 344 641 354 656 c 0,43,44
 365 670 365 670 382 678 c 1,45,46
 342 678 342 678 313 656 c 0,47,48
 285 634 285 634 285 603 c 0,49,50
 285 574 285 574 322 540 c 0,51,52
 358 506 358 506 420 479 c 1,53,-1
 597 479 l 1,54,-1
 597 435 l 1,55,-1
 404 435 l 1,56,-1
 404 264 l 1,57,-1
 483 264 l 2,58,59
 537 264 537 264 576 224 c 0,60,61
 614 184 614 184 614 127 c 256,62,63
 614 70 614 70 579 29 c 0,64,65
 544 -11 544 -11 495 -11 c 0,66,67
 471 -11 471 -11 433 0 c 1,68,-1
 445 50 l 1,69,70
 470 39 470 39 495 39 c 0,71,72
 522 39 522 39 540 65 c 0,73,74
 559 91 559 91 559 127 c 256,75,76
 559 163 559 163 537 189 c 0,77,78
 514 214 514 214 483 214 c 2,79,-1
 404 214 l 1,80,-1
 404 127 l 2,81,82
 404 70 404 70 353 29 c 0,83,84
 302 -11 302 -11 230 -11 c 0,85,86
 146 -11 146 -11 87 36 c 0,87,88
 28 84 28 84 28 151 c 0,89,90
 28 198 28 198 65 231 c 256,91,92
 102 264 102 264 154 264 c 1,93,-1
 154 479 l 1,94,-1
 154 479 l 1,20,-1
399 624 m 1,95,96
 399 603 399 603 420 588 c 256,97,98
 441 573 441 573 470 573 c 0,99,100
 497 573 497 573 515 588 c 0,101,102
 534 603 534 603 534 624 c 0,103,104
 534 646 534 646 515 661 c 0,105,106
 497 676 497 676 470 676 c 0,107,108
 441 676 441 676 420 661 c 256,109,110
 399 646 399 646 399 624 c 1,111,-1
 399 624 l 1,95,96
EndSplineSet
EndChar

StartChar: KU
Encoding: 57877 57877 22
Width: 916
GlyphClass: 1
Flags: W
LayerCount: 2
Fore
SplineSet
449 264 m 1,0,-1
 578 264 l 1,1,-1
 578 435 l 1,2,-1
 449 435 l 1,3,-1
 449 264 l 1,4,-1
 449 264 l 1,0,-1
317 151 m 1,5,6
 317 105 317 105 360 72 c 256,7,8
 403 39 403 39 464 39 c 0,9,10
 511 39 511 39 545 65 c 0,11,12
 578 91 578 91 578 127 c 2,13,-1
 578 214 l 1,14,-1
 389 214 l 2,15,16
 359 214 359 214 338 196 c 0,17,18
 317 177 317 177 317 151 c 1,19,-1
 317 151 l 1,5,6
48 141 m 1,20,21
 48 249 48 249 99 336 c 0,22,23
 151 423 151 423 237 461 c 1,24,-1
 263 419 l 1,25,26
 190 383 190 383 146 308 c 0,27,28
 103 233 103 233 103 141 c 0,29,30
 103 -4 103 -4 213 -106 c 0,31,32
 322 -209 322 -209 477 -209 c 0,33,34
 624 -209 624 -209 727 -134 c 0,35,36
 831 -59 831 -59 831 47 c 0,37,38
 831 116 831 116 785 165 c 0,39,40
 738 214 738 214 673 214 c 2,41,-1
 638 214 l 1,42,-1
 638 127 l 2,43,44
 638 70 638 70 587 29 c 0,45,46
 536 -11 536 -11 464 -11 c 0,47,48
 380 -11 380 -11 321 36 c 0,49,50
 262 84 262 84 262 151 c 0,51,52
 262 198 262 198 299 231 c 256,53,54
 336 264 336 264 389 264 c 1,55,-1
 389 479 l 1,56,-1
 831 479 l 1,57,-1
 831 435 l 1,58,-1
 638 435 l 1,59,-1
 638 264 l 1,60,-1
 673 264 l 2,61,62
 761 264 761 264 824 200 c 0,63,64
 886 137 886 137 886 47 c 0,65,66
 886 -80 886 -80 766 -169 c 0,67,68
 646 -259 646 -259 477 -259 c 0,69,70
 299 -259 299 -259 174 -142 c 0,71,72
 48 -25 48 -25 48 141 c 1,73,-1
 48 141 l 1,20,21
EndSplineSet
EndChar

StartChar: KUU
Encoding: 57878 57878 23
Width: 1081
GlyphClass: 1
Flags: W
LayerCount: 2
Fore
SplineSet
214 264 m 1,0,-1
 344 264 l 1,1,-1
 344 435 l 1,2,-1
 214 435 l 1,3,-1
 214 264 l 1,4,-1
 214 264 l 1,0,-1
83 151 m 1,5,6
 83 105 83 105 126 72 c 256,7,8
 169 39 169 39 230 39 c 0,9,10
 277 39 277 39 311 65 c 0,11,12
 344 91 344 91 344 127 c 2,13,-1
 344 214 l 1,14,-1
 154 214 l 2,15,16
 125 214 125 214 104 196 c 0,17,18
 83 177 83 177 83 151 c 1,19,-1
 83 151 l 1,5,6
532 115 m 1,20,21
 532 84 532 84 548 61 c 0,22,23
 563 39 563 39 585 39 c 0,24,25
 606 39 606 39 620 61 c 0,26,27
 635 84 635 84 635 115 c 0,28,29
 635 149 635 149 614 177 c 0,30,31
 593 204 593 204 559 214 c 1,32,33
 546 196 546 196 539 171 c 0,34,35
 532 145 532 145 532 115 c 1,36,-1
 532 115 l 1,20,21
28 151 m 1,37,38
 28 198 28 198 65 231 c 256,39,40
 102 264 102 264 154 264 c 1,41,-1
 154 479 l 1,42,-1
 610 479 l 1,43,-1
 610 435 l 1,44,-1
 404 435 l 1,45,-1
 404 264 l 1,46,-1
 521 264 l 1,47,48
 547 309 547 309 594 334 c 0,49,50
 642 360 642 360 698 360 c 0,51,52
 782 360 782 360 841 303 c 0,53,54
 900 245 900 245 900 164 c 0,55,56
 900 124 900 124 891 93 c 0,57,58
 881 62 881 62 864 45 c 1,59,-1
 1073 45 l 1,60,-1
 1073 0 l 1,61,-1
 795 0 l 1,62,-1
 795 45 l 1,63,64
 819 66 819 66 832 98 c 0,65,66
 845 129 845 129 845 164 c 0,67,68
 845 224 845 224 802 267 c 256,69,70
 759 310 759 310 698 310 c 0,71,72
 662 310 662 310 633 296 c 0,73,74
 604 283 604 283 590 259 c 1,75,76
 634 246 634 246 662 206 c 256,77,78
 690 166 690 166 690 115 c 0,79,80
 690 63 690 63 659 26 c 256,81,82
 628 -11 628 -11 585 -11 c 0,83,84
 540 -11 540 -11 509 26 c 0,85,86
 477 63 477 63 477 115 c 0,87,88
 477 152 477 152 482 177 c 0,89,90
 486 203 486 203 495 214 c 1,91,-1
 404 214 l 1,92,-1
 404 127 l 2,93,94
 404 70 404 70 353 29 c 0,95,96
 302 -11 302 -11 230 -11 c 0,97,98
 146 -11 146 -11 87 36 c 0,99,100
 28 84 28 84 28 151 c 1,101,-1
 28 151 l 1,37,38
EndSplineSet
EndChar

StartChar: KE
Encoding: 57879 57879 24
Width: 1444
GlyphClass: 1
Flags: W
LayerCount: 2
Fore
SplineSet
286 150 m 1,0,1
 286 104 286 104 316 72 c 0,2,3
 346 39 346 39 388 39 c 256,4,5
 430 39 430 39 459 72 c 0,6,7
 489 104 489 104 489 150 c 0,8,9
 489 198 489 198 459 232 c 0,10,11
 430 266 430 266 388 266 c 256,12,13
 346 266 346 266 316 232 c 256,14,15
 286 198 286 198 286 150 c 1,16,-1
 286 150 l 1,0,1
47 364 m 1,17,18
 47 522 47 522 144 634 c 256,19,20
 241 746 241 746 378 746 c 0,21,22
 517 746 517 746 616 634 c 0,23,24
 714 521 714 521 714 362 c 2,25,-1
 714 0 l 1,26,-1
 654 0 l 1,27,-1
 654 362 l 2,28,29
 654 500 654 500 573 598 c 256,30,31
 492 696 492 696 378 696 c 256,32,33
 264 696 264 696 183 598 c 256,34,35
 102 500 102 500 102 362 c 0,36,37
 102 252 102 252 146 169 c 0,38,39
 191 86 191 86 263 60 c 1,40,41
 248 75 248 75 239 99 c 0,42,43
 231 122 231 122 231 151 c 0,44,45
 231 219 231 219 277 268 c 0,46,47
 323 316 323 316 388 316 c 256,48,49
 453 316 453 316 498 268 c 0,50,51
 544 219 544 219 544 151 c 0,52,53
 544 68 544 68 497 26 c 256,54,55
 450 -16 450 -16 357 -16 c 0,56,57
 229 -16 229 -16 138 95 c 0,58,59
 47 207 47 207 47 364 c 1,60,-1
 47 364 l 1,17,18
1007 264 m 1,61,-1
 1137 264 l 1,62,-1
 1137 435 l 1,63,-1
 1007 435 l 1,64,-1
 1007 264 l 1,65,-1
 1007 264 l 1,61,-1
876 151 m 1,66,67
 876 105 876 105 919 72 c 256,68,69
 962 39 962 39 1023 39 c 0,70,71
 1070 39 1070 39 1104 65 c 0,72,73
 1137 91 1137 91 1137 127 c 2,74,-1
 1137 214 l 1,75,-1
 947 214 l 2,76,77
 918 214 918 214 897 196 c 0,78,79
 876 177 876 177 876 151 c 1,80,-1
 876 151 l 1,66,67
947 479 m 1,81,-1
 1390 479 l 1,82,-1
 1390 435 l 1,83,-1
 1197 435 l 1,84,-1
 1197 264 l 1,85,-1
 1276 264 l 2,86,87
 1330 264 1330 264 1369 224 c 0,88,89
 1407 184 1407 184 1407 127 c 256,90,91
 1407 70 1407 70 1372 29 c 0,92,93
 1337 -11 1337 -11 1288 -11 c 0,94,95
 1264 -11 1264 -11 1226 0 c 1,96,-1
 1238 50 l 1,97,98
 1263 39 1263 39 1288 39 c 0,99,100
 1315 39 1315 39 1333 65 c 0,101,102
 1352 91 1352 91 1352 127 c 256,103,104
 1352 163 1352 163 1330 189 c 0,105,106
 1307 214 1307 214 1276 214 c 2,107,-1
 1197 214 l 1,108,-1
 1197 127 l 2,109,110
 1197 70 1197 70 1146 29 c 0,111,112
 1095 -11 1095 -11 1023 -11 c 0,113,114
 939 -11 939 -11 880 36 c 0,115,116
 821 84 821 84 821 151 c 0,117,118
 821 198 821 198 858 231 c 256,119,120
 895 264 895 264 947 264 c 1,121,-1
 947 479 l 1,122,-1
 947 479 l 1,81,-1
EndSplineSet
EndChar

StartChar: KEE
Encoding: 57880 57880 25
Width: 1313
GlyphClass: 1
Flags: W
LayerCount: 2
Fore
SplineSet
423 746 m 1,0,1
 519 746 519 746 576 701 c 0,2,3
 634 656 634 656 634 582 c 0,4,5
 634 535 634 535 592 501 c 0,6,7
 550 468 550 468 491 468 c 0,8,9
 431 468 431 468 388 501 c 0,10,11
 345 535 345 535 345 582 c 0,12,13
 345 620 345 620 372 651 c 0,14,15
 398 682 398 682 441 694 c 1,16,17
 434 696 434 696 423 696 c 0,18,19
 289 696 289 696 194 599 c 256,20,21
 99 502 99 502 99 364 c 0,22,23
 99 229 99 229 194 133 c 256,24,25
 289 37 289 37 423 37 c 0,26,27
 432 37 432 37 435 38 c 1,28,29
 395 49 395 49 370 79 c 256,30,31
 345 109 345 109 345 145 c 0,32,33
 345 195 345 195 388 231 c 0,34,35
 431 266 431 266 491 266 c 0,36,37
 550 266 550 266 592 231 c 0,38,39
 634 195 634 195 634 145 c 0,40,41
 634 73 634 73 576 30 c 0,42,43
 519 -13 519 -13 423 -13 c 0,44,45
 266 -13 266 -13 155 97 c 256,46,47
 44 207 44 207 44 363 c 0,48,49
 44 522 44 522 155 634 c 256,50,51
 266 746 266 746 423 746 c 1,52,-1
 423 746 l 1,0,1
400 582 m 1,53,54
 400 555 400 555 427 537 c 0,55,56
 453 518 453 518 491 518 c 0,57,58
 527 518 527 518 553 537 c 0,59,60
 579 555 579 555 579 582 c 0,61,62
 579 612 579 612 553 633 c 256,63,64
 527 654 527 654 491 654 c 0,65,66
 453 654 453 654 427 633 c 0,67,68
 400 612 400 612 400 582 c 1,69,-1
 400 582 l 1,53,54
400 145 m 1,70,71
 400 115 400 115 427 94 c 0,72,73
 453 73 453 73 491 73 c 0,74,75
 527 73 527 73 553 94 c 256,76,77
 579 115 579 115 579 145 c 0,78,79
 579 174 579 174 553 195 c 256,80,81
 527 216 527 216 491 216 c 0,82,83
 453 216 453 216 427 195 c 0,84,85
 400 174 400 174 400 145 c 1,86,-1
 400 145 l 1,70,71
876 264 m 1,87,-1
 1006 264 l 1,88,-1
 1006 435 l 1,89,-1
 876 435 l 1,90,-1
 876 264 l 1,91,-1
 876 264 l 1,87,-1
745 151 m 1,92,93
 745 105 745 105 788 72 c 256,94,95
 831 39 831 39 892 39 c 0,96,97
 939 39 939 39 973 65 c 0,98,99
 1006 91 1006 91 1006 127 c 2,100,-1
 1006 214 l 1,101,-1
 816 214 l 2,102,103
 787 214 787 214 766 196 c 0,104,105
 745 177 745 177 745 151 c 1,106,-1
 745 151 l 1,92,93
816 479 m 1,107,-1
 1259 479 l 1,108,-1
 1259 435 l 1,109,-1
 1066 435 l 1,110,-1
 1066 264 l 1,111,-1
 1145 264 l 2,112,113
 1199 264 1199 264 1238 224 c 0,114,115
 1276 184 1276 184 1276 127 c 256,116,117
 1276 70 1276 70 1241 29 c 0,118,119
 1206 -11 1206 -11 1157 -11 c 0,120,121
 1133 -11 1133 -11 1095 0 c 1,122,-1
 1107 50 l 1,123,124
 1132 39 1132 39 1157 39 c 0,125,126
 1184 39 1184 39 1202 65 c 0,127,128
 1221 91 1221 91 1221 127 c 256,129,130
 1221 163 1221 163 1199 189 c 0,131,132
 1176 214 1176 214 1145 214 c 2,133,-1
 1066 214 l 1,134,-1
 1066 127 l 2,135,136
 1066 70 1066 70 1015 29 c 0,137,138
 964 -11 964 -11 892 -11 c 0,139,140
 808 -11 808 -11 749 36 c 0,141,142
 690 84 690 84 690 151 c 0,143,144
 690 198 690 198 727 231 c 256,145,146
 764 264 764 264 816 264 c 1,147,-1
 816 479 l 1,148,-1
 816 479 l 1,107,-1
EndSplineSet
EndChar

StartChar: KAI
Encoding: 57881 57881 26
Width: 1624
GlyphClass: 1
Flags: W
LayerCount: 2
Fore
SplineSet
185 121 m 1,0,1
 185 87 185 87 210 63 c 256,2,3
 235 39 235 39 270 39 c 256,4,5
 305 39 305 39 329 63 c 0,6,7
 354 87 354 87 354 121 c 0,8,9
 354 157 354 157 329 183 c 0,10,11
 305 209 305 209 270 209 c 256,12,13
 235 209 235 209 210 183 c 256,14,15
 185 157 185 157 185 121 c 1,16,-1
 185 121 l 1,0,1
507 156 m 1,17,18
 507 108 507 108 524 73 c 0,19,20
 542 39 542 39 566 39 c 256,21,22
 590 39 590 39 606 73 c 0,23,24
 623 108 623 108 623 156 c 0,25,26
 623 224 623 224 608 275 c 0,27,28
 593 327 593 327 566 353 c 1,29,30
 507 272 507 272 507 156 c 1,31,-1
 507 156 l 1,17,18
41 189 m 1,32,33
 41 316 41 316 136 406 c 0,34,35
 230 496 230 496 364 496 c 0,36,37
 422 496 422 496 475 477 c 0,38,39
 527 458 527 458 566 423 c 1,40,41
 605 458 605 458 644 477 c 0,42,43
 684 496 684 496 718 496 c 0,44,45
 804 496 804 496 864 421 c 0,46,47
 925 346 925 346 925 240 c 0,48,49
 925 164 925 164 890 97 c 256,50,51
 855 30 855 30 794 -11 c 1,52,-1
 755 33 l 1,53,54
 809 67 809 67 839 122 c 0,55,56
 870 177 870 177 870 240 c 0,57,58
 870 325 870 325 825 386 c 0,59,60
 781 446 781 446 718 446 c 0,61,62
 691 446 691 446 661 431 c 256,63,64
 631 416 631 416 603 389 c 1,65,66
 639 349 639 349 659 289 c 0,67,68
 678 228 678 228 678 156 c 0,69,70
 678 87 678 87 645 38 c 256,71,72
 612 -11 612 -11 566 -11 c 0,73,74
 519 -11 519 -11 485 38 c 0,75,76
 452 87 452 87 452 156 c 0,77,78
 452 228 452 228 472 288 c 0,79,80
 491 348 491 348 528 389 c 1,81,82
 500 416 500 416 457 431 c 0,83,84
 415 446 415 446 364 446 c 0,85,86
 253 446 253 446 174 371 c 0,87,88
 96 295 96 295 96 189 c 0,89,90
 96 149 96 149 111 116 c 0,91,92
 125 84 125 84 151 68 c 1,93,94
 141 82 141 82 135 96 c 0,95,96
 130 109 130 109 130 121 c 0,97,98
 130 178 130 178 171 219 c 0,99,100
 212 259 212 259 270 259 c 256,101,102
 328 259 328 259 368 219 c 0,103,104
 409 178 409 178 409 121 c 0,105,106
 409 66 409 66 366 28 c 0,107,108
 323 -11 323 -11 262 -11 c 0,109,110
 170 -11 170 -11 106 48 c 0,111,112
 41 106 41 106 41 189 c 1,113,-1
 41 189 l 1,32,33
1187 264 m 1,114,-1
 1317 264 l 1,115,-1
 1317 435 l 1,116,-1
 1187 435 l 1,117,-1
 1187 264 l 1,118,-1
 1187 264 l 1,114,-1
1056 151 m 1,119,120
 1056 105 1056 105 1099 72 c 256,121,122
 1142 39 1142 39 1203 39 c 0,123,124
 1250 39 1250 39 1284 65 c 0,125,126
 1317 91 1317 91 1317 127 c 2,127,-1
 1317 214 l 1,128,-1
 1127 214 l 2,129,130
 1098 214 1098 214 1077 196 c 0,131,132
 1056 177 1056 177 1056 151 c 1,133,-1
 1056 151 l 1,119,120
1127 479 m 1,134,-1
 1570 479 l 1,135,-1
 1570 435 l 1,136,-1
 1377 435 l 1,137,-1
 1377 264 l 1,138,-1
 1456 264 l 2,139,140
 1510 264 1510 264 1549 224 c 0,141,142
 1587 184 1587 184 1587 127 c 256,143,144
 1587 70 1587 70 1552 29 c 0,145,146
 1517 -11 1517 -11 1468 -11 c 0,147,148
 1444 -11 1444 -11 1406 0 c 1,149,-1
 1418 50 l 1,150,151
 1443 39 1443 39 1468 39 c 0,152,153
 1495 39 1495 39 1513 65 c 0,154,155
 1532 91 1532 91 1532 127 c 256,156,157
 1532 163 1532 163 1510 189 c 0,158,159
 1487 214 1487 214 1456 214 c 2,160,-1
 1377 214 l 1,161,-1
 1377 127 l 2,162,163
 1377 70 1377 70 1326 29 c 0,164,165
 1275 -11 1275 -11 1203 -11 c 0,166,167
 1119 -11 1119 -11 1060 36 c 0,168,169
 1001 84 1001 84 1001 151 c 0,170,171
 1001 198 1001 198 1038 231 c 256,172,173
 1075 264 1075 264 1127 264 c 1,174,-1
 1127 479 l 1,175,-1
 1127 479 l 1,134,-1
EndSplineSet
EndChar

StartChar: KO
Encoding: 57882 57882 27
Width: 1981
GlyphClass: 1
Flags: W
LayerCount: 2
Fore
SplineSet
286 150 m 1,0,1
 286 104 286 104 316 72 c 0,2,3
 346 39 346 39 388 39 c 256,4,5
 430 39 430 39 459 72 c 0,6,7
 489 104 489 104 489 150 c 0,8,9
 489 198 489 198 459 232 c 0,10,11
 430 266 430 266 388 266 c 256,12,13
 346 266 346 266 316 232 c 256,14,15
 286 198 286 198 286 150 c 1,16,-1
 286 150 l 1,0,1
47 364 m 1,17,18
 47 522 47 522 144 634 c 256,19,20
 241 746 241 746 378 746 c 0,21,22
 517 746 517 746 616 634 c 0,23,24
 714 521 714 521 714 362 c 2,25,-1
 714 0 l 1,26,-1
 654 0 l 1,27,-1
 654 362 l 2,28,29
 654 500 654 500 573 598 c 256,30,31
 492 696 492 696 378 696 c 256,32,33
 264 696 264 696 183 598 c 256,34,35
 102 500 102 500 102 362 c 0,36,37
 102 252 102 252 146 169 c 0,38,39
 191 86 191 86 263 60 c 1,40,41
 248 75 248 75 239 99 c 0,42,43
 231 122 231 122 231 151 c 0,44,45
 231 219 231 219 277 268 c 0,46,47
 323 316 323 316 388 316 c 256,48,49
 453 316 453 316 498 268 c 0,50,51
 544 219 544 219 544 151 c 0,52,53
 544 68 544 68 497 26 c 256,54,55
 450 -16 450 -16 357 -16 c 0,56,57
 229 -16 229 -16 138 95 c 0,58,59
 47 207 47 207 47 364 c 1,60,-1
 47 364 l 1,17,18
1007 264 m 1,61,-1
 1137 264 l 1,62,-1
 1137 435 l 1,63,-1
 1007 435 l 1,64,-1
 1007 264 l 1,65,-1
 1007 264 l 1,61,-1
876 151 m 1,66,67
 876 105 876 105 919 72 c 256,68,69
 962 39 962 39 1023 39 c 0,70,71
 1070 39 1070 39 1104 65 c 0,72,73
 1137 91 1137 91 1137 127 c 2,74,-1
 1137 214 l 1,75,-1
 947 214 l 2,76,77
 918 214 918 214 897 196 c 0,78,79
 876 177 876 177 876 151 c 1,80,-1
 876 151 l 1,66,67
947 479 m 1,81,-1
 1390 479 l 1,82,-1
 1390 435 l 1,83,-1
 1197 435 l 1,84,-1
 1197 264 l 1,85,-1
 1276 264 l 2,86,87
 1330 264 1330 264 1369 224 c 0,88,89
 1407 184 1407 184 1407 127 c 256,90,91
 1407 70 1407 70 1372 29 c 0,92,93
 1337 -11 1337 -11 1288 -11 c 0,94,95
 1264 -11 1264 -11 1226 0 c 1,96,-1
 1238 50 l 1,97,98
 1263 39 1263 39 1288 39 c 0,99,100
 1315 39 1315 39 1333 65 c 0,101,102
 1352 91 1352 91 1352 127 c 256,103,104
 1352 163 1352 163 1330 189 c 0,105,106
 1307 214 1307 214 1276 214 c 2,107,-1
 1197 214 l 1,108,-1
 1197 127 l 2,109,110
 1197 70 1197 70 1146 29 c 0,111,112
 1095 -11 1095 -11 1023 -11 c 0,113,114
 939 -11 939 -11 880 36 c 0,115,116
 821 84 821 84 821 151 c 0,117,118
 821 198 821 198 858 231 c 256,119,120
 895 264 895 264 947 264 c 1,121,-1
 947 479 l 1,122,-1
 947 479 l 1,81,-1
1524 479 m 1,123,-1
 1973 479 l 1,124,-1
 1973 435 l 1,125,-1
 1824 435 l 1,126,-1
 1824 0 l 1,127,-1
 1764 0 l 1,128,-1
 1764 435 l 1,129,-1
 1584 435 l 1,130,-1
 1584 0 l 1,131,-1
 1524 0 l 1,132,-1
 1524 479 l 1,133,-1
 1524 479 l 1,123,-1
EndSplineSet
EndChar

StartChar: KOO
Encoding: 57883 57883 28
Width: 1850
GlyphClass: 1
Flags: W
LayerCount: 2
Fore
SplineSet
423 746 m 1,0,1
 519 746 519 746 576 701 c 0,2,3
 634 656 634 656 634 582 c 0,4,5
 634 535 634 535 592 501 c 0,6,7
 550 468 550 468 491 468 c 0,8,9
 431 468 431 468 388 501 c 0,10,11
 345 535 345 535 345 582 c 0,12,13
 345 620 345 620 372 651 c 0,14,15
 398 682 398 682 441 694 c 1,16,17
 434 696 434 696 423 696 c 0,18,19
 289 696 289 696 194 599 c 256,20,21
 99 502 99 502 99 364 c 0,22,23
 99 229 99 229 194 133 c 256,24,25
 289 37 289 37 423 37 c 0,26,27
 432 37 432 37 435 38 c 1,28,29
 395 49 395 49 370 79 c 256,30,31
 345 109 345 109 345 145 c 0,32,33
 345 195 345 195 388 231 c 0,34,35
 431 266 431 266 491 266 c 0,36,37
 550 266 550 266 592 231 c 0,38,39
 634 195 634 195 634 145 c 0,40,41
 634 73 634 73 576 30 c 0,42,43
 519 -13 519 -13 423 -13 c 0,44,45
 266 -13 266 -13 155 97 c 256,46,47
 44 207 44 207 44 363 c 0,48,49
 44 522 44 522 155 634 c 256,50,51
 266 746 266 746 423 746 c 1,52,-1
 423 746 l 1,0,1
400 582 m 1,53,54
 400 555 400 555 427 537 c 0,55,56
 453 518 453 518 491 518 c 0,57,58
 527 518 527 518 553 537 c 0,59,60
 579 555 579 555 579 582 c 0,61,62
 579 612 579 612 553 633 c 256,63,64
 527 654 527 654 491 654 c 0,65,66
 453 654 453 654 427 633 c 0,67,68
 400 612 400 612 400 582 c 1,69,-1
 400 582 l 1,53,54
400 145 m 1,70,71
 400 115 400 115 427 94 c 0,72,73
 453 73 453 73 491 73 c 0,74,75
 527 73 527 73 553 94 c 256,76,77
 579 115 579 115 579 145 c 0,78,79
 579 174 579 174 553 195 c 256,80,81
 527 216 527 216 491 216 c 0,82,83
 453 216 453 216 427 195 c 0,84,85
 400 174 400 174 400 145 c 1,86,-1
 400 145 l 1,70,71
876 264 m 1,87,-1
 1006 264 l 1,88,-1
 1006 435 l 1,89,-1
 876 435 l 1,90,-1
 876 264 l 1,91,-1
 876 264 l 1,87,-1
745 151 m 1,92,93
 745 105 745 105 788 72 c 256,94,95
 831 39 831 39 892 39 c 0,96,97
 939 39 939 39 973 65 c 0,98,99
 1006 91 1006 91 1006 127 c 2,100,-1
 1006 214 l 1,101,-1
 816 214 l 2,102,103
 787 214 787 214 766 196 c 0,104,105
 745 177 745 177 745 151 c 1,106,-1
 745 151 l 1,92,93
816 479 m 1,107,-1
 1259 479 l 1,108,-1
 1259 435 l 1,109,-1
 1066 435 l 1,110,-1
 1066 264 l 1,111,-1
 1145 264 l 2,112,113
 1199 264 1199 264 1238 224 c 0,114,115
 1276 184 1276 184 1276 127 c 256,116,117
 1276 70 1276 70 1241 29 c 0,118,119
 1206 -11 1206 -11 1157 -11 c 0,120,121
 1133 -11 1133 -11 1095 0 c 1,122,-1
 1107 50 l 1,123,124
 1132 39 1132 39 1157 39 c 0,125,126
 1184 39 1184 39 1202 65 c 0,127,128
 1221 91 1221 91 1221 127 c 256,129,130
 1221 163 1221 163 1199 189 c 0,131,132
 1176 214 1176 214 1145 214 c 2,133,-1
 1066 214 l 1,134,-1
 1066 127 l 2,135,136
 1066 70 1066 70 1015 29 c 0,137,138
 964 -11 964 -11 892 -11 c 0,139,140
 808 -11 808 -11 749 36 c 0,141,142
 690 84 690 84 690 151 c 0,143,144
 690 198 690 198 727 231 c 256,145,146
 764 264 764 264 816 264 c 1,147,-1
 816 479 l 1,148,-1
 816 479 l 1,107,-1
1393 479 m 1,149,-1
 1842 479 l 1,150,-1
 1842 435 l 1,151,-1
 1693 435 l 1,152,-1
 1693 0 l 1,153,-1
 1633 0 l 1,154,-1
 1633 435 l 1,155,-1
 1453 435 l 1,156,-1
 1453 0 l 1,157,-1
 1393 0 l 1,158,-1
 1393 479 l 1,159,-1
 1393 479 l 1,149,-1
EndSplineSet
EndChar

StartChar: KAU
Encoding: 57884 57884 29
Width: 2381
GlyphClass: 1
Flags: W
LayerCount: 2
Fore
SplineSet
286 150 m 1,0,1
 286 104 286 104 316 72 c 0,2,3
 346 39 346 39 388 39 c 256,4,5
 430 39 430 39 459 72 c 0,6,7
 489 104 489 104 489 150 c 0,8,9
 489 198 489 198 459 232 c 0,10,11
 430 266 430 266 388 266 c 256,12,13
 346 266 346 266 316 232 c 256,14,15
 286 198 286 198 286 150 c 1,16,-1
 286 150 l 1,0,1
47 364 m 1,17,18
 47 522 47 522 144 634 c 256,19,20
 241 746 241 746 378 746 c 0,21,22
 517 746 517 746 616 634 c 0,23,24
 714 521 714 521 714 362 c 2,25,-1
 714 0 l 1,26,-1
 654 0 l 1,27,-1
 654 362 l 2,28,29
 654 500 654 500 573 598 c 256,30,31
 492 696 492 696 378 696 c 256,32,33
 264 696 264 696 183 598 c 256,34,35
 102 500 102 500 102 362 c 0,36,37
 102 252 102 252 146 169 c 0,38,39
 191 86 191 86 263 60 c 1,40,41
 248 75 248 75 239 99 c 0,42,43
 231 122 231 122 231 151 c 0,44,45
 231 219 231 219 277 268 c 0,46,47
 323 316 323 316 388 316 c 256,48,49
 453 316 453 316 498 268 c 0,50,51
 544 219 544 219 544 151 c 0,52,53
 544 68 544 68 497 26 c 256,54,55
 450 -16 450 -16 357 -16 c 0,56,57
 229 -16 229 -16 138 95 c 0,58,59
 47 207 47 207 47 364 c 1,60,-1
 47 364 l 1,17,18
1007 264 m 1,61,-1
 1137 264 l 1,62,-1
 1137 435 l 1,63,-1
 1007 435 l 1,64,-1
 1007 264 l 1,65,-1
 1007 264 l 1,61,-1
876 151 m 1,66,67
 876 105 876 105 919 72 c 256,68,69
 962 39 962 39 1023 39 c 0,70,71
 1070 39 1070 39 1104 65 c 0,72,73
 1137 91 1137 91 1137 127 c 2,74,-1
 1137 214 l 1,75,-1
 947 214 l 2,76,77
 918 214 918 214 897 196 c 0,78,79
 876 177 876 177 876 151 c 1,80,-1
 876 151 l 1,66,67
947 479 m 1,81,-1
 1390 479 l 1,82,-1
 1390 435 l 1,83,-1
 1197 435 l 1,84,-1
 1197 264 l 1,85,-1
 1276 264 l 2,86,87
 1330 264 1330 264 1369 224 c 0,88,89
 1407 184 1407 184 1407 127 c 256,90,91
 1407 70 1407 70 1372 29 c 0,92,93
 1337 -11 1337 -11 1288 -11 c 0,94,95
 1264 -11 1264 -11 1226 0 c 1,96,-1
 1238 50 l 1,97,98
 1263 39 1263 39 1288 39 c 0,99,100
 1315 39 1315 39 1333 65 c 0,101,102
 1352 91 1352 91 1352 127 c 256,103,104
 1352 163 1352 163 1330 189 c 0,105,106
 1307 214 1307 214 1276 214 c 2,107,-1
 1197 214 l 1,108,-1
 1197 127 l 2,109,110
 1197 70 1197 70 1146 29 c 0,111,112
 1095 -11 1095 -11 1023 -11 c 0,113,114
 939 -11 939 -11 880 36 c 0,115,116
 821 84 821 84 821 151 c 0,117,118
 821 198 821 198 858 231 c 256,119,120
 895 264 895 264 947 264 c 1,121,-1
 947 479 l 1,122,-1
 947 479 l 1,81,-1
1638 133 m 1,123,124
 1638 94 1638 94 1661 67 c 0,125,126
 1683 39 1683 39 1715 39 c 0,127,128
 1746 39 1746 39 1769 67 c 0,129,130
 1791 94 1791 94 1791 133 c 256,131,132
 1791 172 1791 172 1769 199 c 0,133,134
 1746 227 1746 227 1715 227 c 0,135,136
 1683 227 1683 227 1661 199 c 0,137,138
 1638 172 1638 172 1638 133 c 1,139,-1
 1638 133 l 1,123,124
1929 479 m 1,140,-1
 2373 479 l 1,141,-1
 2373 435 l 1,142,-1
 2231 435 l 1,143,-1
 2231 0 l 1,144,-1
 2171 0 l 1,145,-1
 2171 435 l 1,146,-1
 1989 435 l 1,147,-1
 1989 0 l 1,148,-1
 1929 0 l 1,149,-1
 1929 240 l 2,150,151
 1929 325 1929 325 1870 386 c 0,152,153
 1812 446 1812 446 1729 446 c 0,154,155
 1652 446 1652 446 1597 382 c 0,156,157
 1543 318 1543 318 1543 227 c 0,158,159
 1543 171 1543 171 1559 130 c 0,160,161
 1574 88 1574 88 1602 71 c 1,162,163
 1583 97 1583 97 1583 133 c 0,164,165
 1583 193 1583 193 1622 235 c 0,166,167
 1660 277 1660 277 1715 277 c 0,168,169
 1769 277 1769 277 1808 235 c 0,170,171
 1846 193 1846 193 1846 133 c 256,172,173
 1846 73 1846 73 1807 31 c 256,174,175
 1768 -11 1768 -11 1712 -11 c 0,176,177
 1619 -11 1619 -11 1554 59 c 0,178,179
 1488 128 1488 128 1488 227 c 0,180,181
 1488 338 1488 338 1559 417 c 0,182,183
 1629 496 1629 496 1729 496 c 0,184,185
 1792 496 1792 496 1845 466 c 0,186,187
 1899 435 1899 435 1929 383 c 1,188,-1
 1929 479 l 1,189,-1
 1929 479 l 1,140,-1
EndSplineSet
EndChar

StartChar: NG
Encoding: 57888 57888 30
Width: 890
GlyphClass: 1
Flags: W
LayerCount: 2
Fore
SplineSet
295 45 m 1,0,-1
 446 45 l 2,1,2
 488 45 488 45 518 73 c 0,3,4
 548 100 548 100 548 139 c 0,5,6
 548 181 548 181 520 210 c 0,7,8
 492 240 492 240 453 240 c 0,9,10
 412 240 412 240 384 210 c 0,11,12
 355 181 355 181 355 139 c 2,13,-1
 355 91 l 1,14,-1
 295 91 l 1,15,-1
 295 435 l 1,16,-1
 140 435 l 1,17,-1
 140 0 l 1,18,-1
 80 0 l 1,19,-1
 80 479 l 1,20,-1
 535 479 l 1,21,-1
 535 435 l 1,22,-1
 355 435 l 1,23,-1
 355 259 l 1,24,25
 372 274 372 274 397 282 c 256,26,27
 422 290 422 290 453 290 c 0,28,29
 515 290 515 290 559 246 c 256,30,31
 603 202 603 202 603 139 c 0,32,33
 603 108 603 108 592 83 c 256,34,35
 581 58 581 58 562 45 c 1,36,-1
 750 45 l 1,37,-1
 750 479 l 1,38,-1
 810 479 l 1,39,-1
 810 0 l 1,40,-1
 295 0 l 1,41,-1
 295 45 l 1,42,-1
 295 45 l 1,0,-1
382 589 m 1,43,44
 382 609 382 609 400 623 c 0,45,46
 419 637 419 637 445 637 c 0,47,48
 472 637 472 637 490 623 c 0,49,50
 509 609 509 609 509 589 c 0,51,52
 509 570 509 570 490 556 c 0,53,54
 472 542 472 542 445 542 c 0,55,56
 419 542 419 542 400 556 c 0,57,58
 382 570 382 570 382 589 c 1,59,-1
 382 589 l 1,43,44
EndSplineSet
EndChar

StartChar: NGA
Encoding: 57889 57889 31
Width: 890
GlyphClass: 1
Flags: W
LayerCount: 2
Fore
SplineSet
295 45 m 1,0,-1
 446 45 l 2,1,2
 488 45 488 45 518 73 c 0,3,4
 548 100 548 100 548 139 c 0,5,6
 548 181 548 181 520 210 c 0,7,8
 492 240 492 240 453 240 c 0,9,10
 412 240 412 240 384 210 c 0,11,12
 355 181 355 181 355 139 c 2,13,-1
 355 91 l 1,14,-1
 295 91 l 1,15,-1
 295 435 l 1,16,-1
 140 435 l 1,17,-1
 140 0 l 1,18,-1
 80 0 l 1,19,-1
 80 479 l 1,20,-1
 535 479 l 1,21,-1
 535 435 l 1,22,-1
 355 435 l 1,23,-1
 355 259 l 1,24,25
 372 274 372 274 397 282 c 256,26,27
 422 290 422 290 453 290 c 0,28,29
 515 290 515 290 559 246 c 256,30,31
 603 202 603 202 603 139 c 0,32,33
 603 108 603 108 592 83 c 256,34,35
 581 58 581 58 562 45 c 1,36,-1
 750 45 l 1,37,-1
 750 479 l 1,38,-1
 810 479 l 1,39,-1
 810 0 l 1,40,-1
 295 0 l 1,41,-1
 295 45 l 1,42,-1
 295 45 l 1,0,-1
EndSplineSet
EndChar

StartChar: NGAA
Encoding: 57890 57890 32
Width: 1427
GlyphClass: 1
Flags: W
LayerCount: 2
Fore
SplineSet
295 45 m 1,0,-1
 446 45 l 2,1,2
 488 45 488 45 518 73 c 0,3,4
 548 100 548 100 548 139 c 0,5,6
 548 181 548 181 520 210 c 0,7,8
 492 240 492 240 453 240 c 0,9,10
 412 240 412 240 384 210 c 0,11,12
 355 181 355 181 355 139 c 2,13,-1
 355 91 l 1,14,-1
 295 91 l 1,15,-1
 295 435 l 1,16,-1
 140 435 l 1,17,-1
 140 0 l 1,18,-1
 80 0 l 1,19,-1
 80 479 l 1,20,-1
 535 479 l 1,21,-1
 535 435 l 1,22,-1
 355 435 l 1,23,-1
 355 259 l 1,24,25
 372 274 372 274 397 282 c 256,26,27
 422 290 422 290 453 290 c 0,28,29
 515 290 515 290 559 246 c 256,30,31
 603 202 603 202 603 139 c 0,32,33
 603 108 603 108 592 83 c 256,34,35
 581 58 581 58 562 45 c 1,36,-1
 750 45 l 1,37,-1
 750 479 l 1,38,-1
 810 479 l 1,39,-1
 810 0 l 1,40,-1
 295 0 l 1,41,-1
 295 45 l 1,42,-1
 295 45 l 1,0,-1
970 479 m 1,43,-1
 1419 479 l 1,44,-1
 1419 435 l 1,45,-1
 1270 435 l 1,46,-1
 1270 0 l 1,47,-1
 1210 0 l 1,48,-1
 1210 435 l 1,49,-1
 1030 435 l 1,50,-1
 1030 0 l 1,51,-1
 970 0 l 1,52,-1
 970 479 l 1,53,-1
 970 479 l 1,43,-1
EndSplineSet
EndChar

StartChar: NGI
Encoding: 57891 57891 33
Width: 1067
GlyphClass: 1
Flags: W
LayerCount: 2
Fore
SplineSet
80 479 m 1,0,-1
 466 479 l 1,1,-1
 466 435 l 1,2,-1
 355 435 l 1,3,-1
 355 251 l 1,4,5
 376 270 376 270 401 280 c 0,6,7
 427 290 427 290 453 290 c 0,8,9
 515 290 515 290 559 246 c 256,10,11
 603 202 603 202 603 139 c 0,12,13
 603 110 603 110 591 85 c 0,14,15
 578 60 578 60 556 45 c 1,16,-1
 750 45 l 1,17,-1
 750 361 l 1,18,19
 715 341 715 341 674 341 c 0,20,21
 601 341 601 341 549 395 c 0,22,23
 497 450 497 450 497 527 c 0,24,25
 497 614 497 614 568 675 c 0,26,27
 638 736 638 736 738 736 c 0,28,29
 841 736 841 736 914 681 c 256,30,31
 987 626 987 626 987 548 c 2,32,-1
 987 0 l 1,33,-1
 927 0 l 1,34,-1
 927 548 l 2,35,36
 927 605 927 605 872 646 c 0,37,38
 816 686 816 686 738 686 c 0,39,40
 661 686 661 686 606 639 c 0,41,42
 552 593 552 593 552 527 c 0,43,44
 552 471 552 471 588 431 c 0,45,46
 623 391 623 391 674 391 c 0,47,48
 694 391 694 391 713 399 c 0,49,50
 733 408 733 408 750 423 c 1,51,-1
 750 479 l 1,52,-1
 810 479 l 1,53,-1
 810 0 l 1,54,-1
 295 0 l 1,55,-1
 295 45 l 1,56,-1
 446 45 l 2,57,58
 488 45 488 45 518 73 c 0,59,60
 548 100 548 100 548 139 c 0,61,62
 548 181 548 181 520 210 c 0,63,64
 492 240 492 240 453 240 c 0,65,66
 412 240 412 240 384 210 c 0,67,68
 355 181 355 181 355 139 c 2,69,-1
 355 91 l 1,70,-1
 295 91 l 1,71,-1
 295 435 l 1,72,-1
 140 435 l 1,73,-1
 140 0 l 1,74,-1
 80 0 l 1,75,-1
 80 479 l 1,76,-1
 80 479 l 1,0,-1
EndSplineSet
EndChar

StartChar: NGII
Encoding: 57892 57892 34
Width: 890
GlyphClass: 1
Flags: W
LayerCount: 2
Fore
SplineSet
80 479 m 1,0,-1
 472 479 l 1,1,-1
 472 435 l 1,2,-1
 355 435 l 1,3,-1
 355 251 l 1,4,5
 376 270 376 270 401 280 c 0,6,7
 427 290 427 290 453 290 c 0,8,9
 515 290 515 290 559 250 c 256,10,11
 603 210 603 210 603 154 c 0,12,13
 603 119 603 119 589 90 c 256,14,15
 575 61 575 61 551 45 c 1,16,-1
 750 45 l 1,17,-1
 750 363 l 1,18,19
 643 363 643 363 567 417 c 256,20,21
 491 471 491 471 491 547 c 0,22,23
 491 633 491 633 560 684 c 0,24,25
 628 736 628 736 742 736 c 0,26,27
 795 736 795 736 832 705 c 0,28,29
 869 673 869 673 869 629 c 0,30,31
 869 581 869 581 834 547 c 256,32,33
 799 513 799 513 750 513 c 0,34,35
 697 513 697 513 660 546 c 0,36,37
 623 578 623 578 623 624 c 0,38,39
 623 638 623 638 628 650 c 256,40,41
 633 662 633 662 643 671 c 1,42,43
 600 659 600 659 573 624 c 0,44,45
 546 590 546 590 546 547 c 0,46,47
 546 491 546 491 606 452 c 0,48,49
 666 412 666 412 750 412 c 1,50,-1
 750 479 l 1,51,-1
 810 479 l 1,52,-1
 810 0 l 1,53,-1
 295 0 l 1,54,-1
 295 45 l 1,55,-1
 446 45 l 2,56,57
 488 45 488 45 518 77 c 256,58,59
 548 109 548 109 548 154 c 0,60,61
 548 190 548 190 520 215 c 256,62,63
 492 240 492 240 453 240 c 0,64,65
 412 240 412 240 384 210 c 0,66,67
 355 181 355 181 355 139 c 2,68,-1
 355 91 l 1,69,-1
 295 91 l 1,70,-1
 295 435 l 1,71,-1
 140 435 l 1,72,-1
 140 0 l 1,73,-1
 80 0 l 1,74,-1
 80 479 l 1,75,-1
 80 479 l 1,0,-1
678 624 m 1,76,77
 678 599 678 599 699 581 c 256,78,79
 720 563 720 563 750 563 c 0,80,81
 777 563 777 563 795 581 c 0,82,83
 814 599 814 599 814 624 c 0,84,85
 814 650 814 650 793 668 c 0,86,87
 773 686 773 686 744 686 c 0,88,89
 717 686 717 686 697 668 c 0,90,91
 678 650 678 650 678 624 c 1,92,-1
 678 624 l 1,76,77
EndSplineSet
EndChar

StartChar: NGU
Encoding: 57893 57893 35
Width: 890
GlyphClass: 1
Flags: W
LayerCount: 2
Fore
SplineSet
80 479 m 1,0,-1
 535 479 l 1,1,-1
 535 435 l 1,2,-1
 355 435 l 1,3,-1
 355 249 l 1,4,5
 370 268 370 268 396 279 c 256,6,7
 422 290 422 290 453 290 c 0,8,9
 518 290 518 290 563 252 c 0,10,11
 609 213 609 213 609 159 c 0,12,13
 609 122 609 122 595 92 c 256,14,15
 581 62 581 62 556 45 c 1,16,-1
 750 45 l 1,17,-1
 750 479 l 1,18,-1
 810 479 l 1,19,-1
 810 -175 l 1,20,-1
 750 -175 l 1,21,-1
 750 0 l 1,22,-1
 295 0 l 1,23,-1
 295 45 l 1,24,-1
 446 45 l 2,25,26
 491 45 491 45 522 78 c 0,27,28
 554 112 554 112 554 159 c 0,29,30
 554 193 554 193 524 216 c 0,31,32
 495 240 495 240 453 240 c 0,33,34
 412 240 412 240 384 210 c 0,35,36
 355 181 355 181 355 139 c 2,37,-1
 355 91 l 1,38,-1
 295 91 l 1,39,-1
 295 435 l 1,40,-1
 140 435 l 1,41,-1
 140 0 l 1,42,-1
 80 0 l 1,43,-1
 80 479 l 1,44,-1
 80 479 l 1,0,-1
EndSplineSet
EndChar

StartChar: NGUU
Encoding: 57894 57894 36
Width: 1037
GlyphClass: 1
Flags: W
LayerCount: 2
Fore
SplineSet
80 479 m 1,0,-1
 535 479 l 1,1,-1
 535 435 l 1,2,-1
 355 435 l 1,3,-1
 355 249 l 1,4,5
 373 269 373 269 398 279 c 0,6,7
 424 290 424 290 453 290 c 0,8,9
 518 290 518 290 563 250 c 0,10,11
 609 210 609 210 609 154 c 0,12,13
 609 120 609 120 595 91 c 256,14,15
 581 62 581 62 556 45 c 1,16,-1
 750 45 l 1,17,-1
 750 479 l 1,18,-1
 810 479 l 1,19,-1
 810 56 l 1,20,21
 828 72 828 72 851 80 c 0,22,23
 875 89 875 89 902 89 c 0,24,25
 956 89 956 89 995 54 c 0,26,27
 1033 18 1033 18 1033 -32 c 0,28,29
 1033 -123 1033 -123 880 -187 c 256,30,31
 727 -251 727 -251 510 -251 c 0,32,33
 326 -251 326 -251 216 -218 c 0,34,35
 105 -185 105 -185 105 -131 c 0,36,37
 105 -90 105 -90 179 -62 c 0,38,39
 253 -33 253 -33 358 -33 c 0,40,41
 508 -33 508 -33 643 -93 c 1,42,-1
 618 -135 l 1,43,44
 511 -83 511 -83 358 -83 c 0,45,46
 270 -83 270 -83 218 -94 c 0,47,48
 160 -107 160 -107 160 -131 c 0,49,50
 160 -172 160 -172 263 -188 c 0,51,52
 342 -201 342 -201 510 -201 c 0,53,54
 704 -201 704 -201 841 -152 c 0,55,56
 978 -102 978 -102 978 -32 c 0,57,58
 978 -3 978 -3 956 18 c 0,59,60
 933 39 933 39 902 39 c 0,61,62
 864 39 864 39 837 17 c 256,63,64
 810 -5 810 -5 810 -36 c 2,65,-1
 810 -140 l 1,66,-1
 750 -140 l 1,67,-1
 750 0 l 1,68,-1
 295 0 l 1,69,-1
 295 45 l 1,70,-1
 446 45 l 2,71,72
 491 45 491 45 522 77 c 0,73,74
 554 109 554 109 554 154 c 0,75,76
 554 190 554 190 524 215 c 0,77,78
 495 240 495 240 453 240 c 0,79,80
 412 240 412 240 384 210 c 0,81,82
 355 181 355 181 355 139 c 2,83,-1
 355 89 l 1,84,-1
 295 89 l 1,85,-1
 295 435 l 1,86,-1
 140 435 l 1,87,-1
 140 0 l 1,88,-1
 80 0 l 1,89,-1
 80 479 l 1,90,-1
 80 479 l 1,0,-1
EndSplineSet
EndChar

StartChar: NGE
Encoding: 57895 57895 37
Width: 1683
GlyphClass: 1
Flags: W
LayerCount: 2
Fore
SplineSet
286 150 m 1,0,1
 286 104 286 104 316 72 c 0,2,3
 346 39 346 39 388 39 c 256,4,5
 430 39 430 39 459 72 c 0,6,7
 489 104 489 104 489 150 c 0,8,9
 489 198 489 198 459 232 c 0,10,11
 430 266 430 266 388 266 c 256,12,13
 346 266 346 266 316 232 c 256,14,15
 286 198 286 198 286 150 c 1,16,-1
 286 150 l 1,0,1
47 364 m 1,17,18
 47 522 47 522 144 634 c 256,19,20
 241 746 241 746 378 746 c 0,21,22
 517 746 517 746 616 634 c 0,23,24
 714 521 714 521 714 362 c 2,25,-1
 714 0 l 1,26,-1
 654 0 l 1,27,-1
 654 362 l 2,28,29
 654 500 654 500 573 598 c 256,30,31
 492 696 492 696 378 696 c 256,32,33
 264 696 264 696 183 598 c 256,34,35
 102 500 102 500 102 362 c 0,36,37
 102 252 102 252 146 169 c 0,38,39
 191 86 191 86 263 60 c 1,40,41
 248 75 248 75 239 99 c 0,42,43
 231 122 231 122 231 151 c 0,44,45
 231 219 231 219 277 268 c 0,46,47
 323 316 323 316 388 316 c 256,48,49
 453 316 453 316 498 268 c 0,50,51
 544 219 544 219 544 151 c 0,52,53
 544 68 544 68 497 26 c 256,54,55
 450 -16 450 -16 357 -16 c 0,56,57
 229 -16 229 -16 138 95 c 0,58,59
 47 207 47 207 47 364 c 1,60,-1
 47 364 l 1,17,18
1088 45 m 1,61,-1
 1239 45 l 2,62,63
 1281 45 1281 45 1311 73 c 0,64,65
 1341 100 1341 100 1341 139 c 0,66,67
 1341 181 1341 181 1313 210 c 0,68,69
 1285 240 1285 240 1246 240 c 0,70,71
 1205 240 1205 240 1177 210 c 0,72,73
 1148 181 1148 181 1148 139 c 2,74,-1
 1148 91 l 1,75,-1
 1088 91 l 1,76,-1
 1088 435 l 1,77,-1
 933 435 l 1,78,-1
 933 0 l 1,79,-1
 873 0 l 1,80,-1
 873 479 l 1,81,-1
 1328 479 l 1,82,-1
 1328 435 l 1,83,-1
 1148 435 l 1,84,-1
 1148 259 l 1,85,86
 1165 274 1165 274 1190 282 c 256,87,88
 1215 290 1215 290 1246 290 c 0,89,90
 1308 290 1308 290 1352 246 c 256,91,92
 1396 202 1396 202 1396 139 c 0,93,94
 1396 108 1396 108 1385 83 c 256,95,96
 1374 58 1374 58 1355 45 c 1,97,-1
 1543 45 l 1,98,-1
 1543 479 l 1,99,-1
 1603 479 l 1,100,-1
 1603 0 l 1,101,-1
 1088 0 l 1,102,-1
 1088 45 l 1,103,-1
 1088 45 l 1,61,-1
EndSplineSet
EndChar

StartChar: NGEE
Encoding: 57896 57896 38
Width: 1552
GlyphClass: 1
Flags: W
LayerCount: 2
Fore
SplineSet
423 746 m 1,0,1
 519 746 519 746 576 701 c 0,2,3
 634 656 634 656 634 582 c 0,4,5
 634 535 634 535 592 501 c 0,6,7
 550 468 550 468 491 468 c 0,8,9
 431 468 431 468 388 501 c 0,10,11
 345 535 345 535 345 582 c 0,12,13
 345 620 345 620 372 651 c 0,14,15
 398 682 398 682 441 694 c 1,16,17
 434 696 434 696 423 696 c 0,18,19
 289 696 289 696 194 599 c 256,20,21
 99 502 99 502 99 364 c 0,22,23
 99 229 99 229 194 133 c 256,24,25
 289 37 289 37 423 37 c 0,26,27
 432 37 432 37 435 38 c 1,28,29
 395 49 395 49 370 79 c 256,30,31
 345 109 345 109 345 145 c 0,32,33
 345 195 345 195 388 231 c 0,34,35
 431 266 431 266 491 266 c 0,36,37
 550 266 550 266 592 231 c 0,38,39
 634 195 634 195 634 145 c 0,40,41
 634 73 634 73 576 30 c 0,42,43
 519 -13 519 -13 423 -13 c 0,44,45
 266 -13 266 -13 155 97 c 256,46,47
 44 207 44 207 44 363 c 0,48,49
 44 522 44 522 155 634 c 256,50,51
 266 746 266 746 423 746 c 1,52,-1
 423 746 l 1,0,1
400 582 m 1,53,54
 400 555 400 555 427 537 c 0,55,56
 453 518 453 518 491 518 c 0,57,58
 527 518 527 518 553 537 c 0,59,60
 579 555 579 555 579 582 c 0,61,62
 579 612 579 612 553 633 c 256,63,64
 527 654 527 654 491 654 c 0,65,66
 453 654 453 654 427 633 c 0,67,68
 400 612 400 612 400 582 c 1,69,-1
 400 582 l 1,53,54
400 145 m 1,70,71
 400 115 400 115 427 94 c 0,72,73
 453 73 453 73 491 73 c 0,74,75
 527 73 527 73 553 94 c 256,76,77
 579 115 579 115 579 145 c 0,78,79
 579 174 579 174 553 195 c 256,80,81
 527 216 527 216 491 216 c 0,82,83
 453 216 453 216 427 195 c 0,84,85
 400 174 400 174 400 145 c 1,86,-1
 400 145 l 1,70,71
957 45 m 1,87,-1
 1108 45 l 2,88,89
 1150 45 1150 45 1180 73 c 0,90,91
 1210 100 1210 100 1210 139 c 0,92,93
 1210 181 1210 181 1182 210 c 0,94,95
 1154 240 1154 240 1115 240 c 0,96,97
 1074 240 1074 240 1046 210 c 0,98,99
 1017 181 1017 181 1017 139 c 2,100,-1
 1017 91 l 1,101,-1
 957 91 l 1,102,-1
 957 435 l 1,103,-1
 802 435 l 1,104,-1
 802 0 l 1,105,-1
 742 0 l 1,106,-1
 742 479 l 1,107,-1
 1197 479 l 1,108,-1
 1197 435 l 1,109,-1
 1017 435 l 1,110,-1
 1017 259 l 1,111,112
 1034 274 1034 274 1059 282 c 256,113,114
 1084 290 1084 290 1115 290 c 0,115,116
 1177 290 1177 290 1221 246 c 256,117,118
 1265 202 1265 202 1265 139 c 0,119,120
 1265 108 1265 108 1254 83 c 256,121,122
 1243 58 1243 58 1224 45 c 1,123,-1
 1412 45 l 1,124,-1
 1412 479 l 1,125,-1
 1472 479 l 1,126,-1
 1472 0 l 1,127,-1
 957 0 l 1,128,-1
 957 45 l 1,129,-1
 957 45 l 1,87,-1
EndSplineSet
EndChar

StartChar: NGAI
Encoding: 57897 57897 39
Width: 1863
GlyphClass: 1
Flags: W
LayerCount: 2
Fore
SplineSet
185 121 m 1,0,1
 185 87 185 87 210 63 c 256,2,3
 235 39 235 39 270 39 c 256,4,5
 305 39 305 39 329 63 c 0,6,7
 354 87 354 87 354 121 c 0,8,9
 354 157 354 157 329 183 c 0,10,11
 305 209 305 209 270 209 c 256,12,13
 235 209 235 209 210 183 c 256,14,15
 185 157 185 157 185 121 c 1,16,-1
 185 121 l 1,0,1
507 156 m 1,17,18
 507 108 507 108 524 73 c 0,19,20
 542 39 542 39 566 39 c 256,21,22
 590 39 590 39 606 73 c 0,23,24
 623 108 623 108 623 156 c 0,25,26
 623 224 623 224 608 275 c 0,27,28
 593 327 593 327 566 353 c 1,29,30
 507 272 507 272 507 156 c 1,31,-1
 507 156 l 1,17,18
41 189 m 1,32,33
 41 316 41 316 136 406 c 0,34,35
 230 496 230 496 364 496 c 0,36,37
 422 496 422 496 475 477 c 0,38,39
 527 458 527 458 566 423 c 1,40,41
 605 458 605 458 644 477 c 0,42,43
 684 496 684 496 718 496 c 0,44,45
 804 496 804 496 864 421 c 0,46,47
 925 346 925 346 925 240 c 0,48,49
 925 164 925 164 890 97 c 256,50,51
 855 30 855 30 794 -11 c 1,52,-1
 755 33 l 1,53,54
 809 67 809 67 839 122 c 0,55,56
 870 177 870 177 870 240 c 0,57,58
 870 325 870 325 825 386 c 0,59,60
 781 446 781 446 718 446 c 0,61,62
 691 446 691 446 661 431 c 256,63,64
 631 416 631 416 603 389 c 1,65,66
 639 349 639 349 659 289 c 0,67,68
 678 228 678 228 678 156 c 0,69,70
 678 87 678 87 645 38 c 256,71,72
 612 -11 612 -11 566 -11 c 0,73,74
 519 -11 519 -11 485 38 c 0,75,76
 452 87 452 87 452 156 c 0,77,78
 452 228 452 228 472 288 c 0,79,80
 491 348 491 348 528 389 c 1,81,82
 500 416 500 416 457 431 c 0,83,84
 415 446 415 446 364 446 c 0,85,86
 253 446 253 446 174 371 c 0,87,88
 96 295 96 295 96 189 c 0,89,90
 96 149 96 149 111 116 c 0,91,92
 125 84 125 84 151 68 c 1,93,94
 141 82 141 82 135 96 c 0,95,96
 130 109 130 109 130 121 c 0,97,98
 130 178 130 178 171 219 c 0,99,100
 212 259 212 259 270 259 c 256,101,102
 328 259 328 259 368 219 c 0,103,104
 409 178 409 178 409 121 c 0,105,106
 409 66 409 66 366 28 c 0,107,108
 323 -11 323 -11 262 -11 c 0,109,110
 170 -11 170 -11 106 48 c 0,111,112
 41 106 41 106 41 189 c 1,113,-1
 41 189 l 1,32,33
1268 45 m 1,114,-1
 1419 45 l 2,115,116
 1461 45 1461 45 1491 73 c 0,117,118
 1521 100 1521 100 1521 139 c 0,119,120
 1521 181 1521 181 1493 210 c 0,121,122
 1465 240 1465 240 1426 240 c 0,123,124
 1385 240 1385 240 1357 210 c 0,125,126
 1328 181 1328 181 1328 139 c 2,127,-1
 1328 91 l 1,128,-1
 1268 91 l 1,129,-1
 1268 435 l 1,130,-1
 1113 435 l 1,131,-1
 1113 0 l 1,132,-1
 1053 0 l 1,133,-1
 1053 479 l 1,134,-1
 1508 479 l 1,135,-1
 1508 435 l 1,136,-1
 1328 435 l 1,137,-1
 1328 259 l 1,138,139
 1345 274 1345 274 1370 282 c 256,140,141
 1395 290 1395 290 1426 290 c 0,142,143
 1488 290 1488 290 1532 246 c 256,144,145
 1576 202 1576 202 1576 139 c 0,146,147
 1576 108 1576 108 1565 83 c 256,148,149
 1554 58 1554 58 1535 45 c 1,150,-1
 1723 45 l 1,151,-1
 1723 479 l 1,152,-1
 1783 479 l 1,153,-1
 1783 0 l 1,154,-1
 1268 0 l 1,155,-1
 1268 45 l 1,156,-1
 1268 45 l 1,114,-1
EndSplineSet
EndChar

StartChar: NGO
Encoding: 57898 57898 40
Width: 2220
GlyphClass: 1
Flags: W
LayerCount: 2
Fore
SplineSet
286 150 m 1,0,1
 286 104 286 104 316 72 c 0,2,3
 346 39 346 39 388 39 c 256,4,5
 430 39 430 39 459 72 c 0,6,7
 489 104 489 104 489 150 c 0,8,9
 489 198 489 198 459 232 c 0,10,11
 430 266 430 266 388 266 c 256,12,13
 346 266 346 266 316 232 c 256,14,15
 286 198 286 198 286 150 c 1,16,-1
 286 150 l 1,0,1
47 364 m 1,17,18
 47 522 47 522 144 634 c 256,19,20
 241 746 241 746 378 746 c 0,21,22
 517 746 517 746 616 634 c 0,23,24
 714 521 714 521 714 362 c 2,25,-1
 714 0 l 1,26,-1
 654 0 l 1,27,-1
 654 362 l 2,28,29
 654 500 654 500 573 598 c 256,30,31
 492 696 492 696 378 696 c 256,32,33
 264 696 264 696 183 598 c 256,34,35
 102 500 102 500 102 362 c 0,36,37
 102 252 102 252 146 169 c 0,38,39
 191 86 191 86 263 60 c 1,40,41
 248 75 248 75 239 99 c 0,42,43
 231 122 231 122 231 151 c 0,44,45
 231 219 231 219 277 268 c 0,46,47
 323 316 323 316 388 316 c 256,48,49
 453 316 453 316 498 268 c 0,50,51
 544 219 544 219 544 151 c 0,52,53
 544 68 544 68 497 26 c 256,54,55
 450 -16 450 -16 357 -16 c 0,56,57
 229 -16 229 -16 138 95 c 0,58,59
 47 207 47 207 47 364 c 1,60,-1
 47 364 l 1,17,18
1088 45 m 1,61,-1
 1239 45 l 2,62,63
 1281 45 1281 45 1311 73 c 0,64,65
 1341 100 1341 100 1341 139 c 0,66,67
 1341 181 1341 181 1313 210 c 0,68,69
 1285 240 1285 240 1246 240 c 0,70,71
 1205 240 1205 240 1177 210 c 0,72,73
 1148 181 1148 181 1148 139 c 2,74,-1
 1148 91 l 1,75,-1
 1088 91 l 1,76,-1
 1088 435 l 1,77,-1
 933 435 l 1,78,-1
 933 0 l 1,79,-1
 873 0 l 1,80,-1
 873 479 l 1,81,-1
 1328 479 l 1,82,-1
 1328 435 l 1,83,-1
 1148 435 l 1,84,-1
 1148 259 l 1,85,86
 1165 274 1165 274 1190 282 c 256,87,88
 1215 290 1215 290 1246 290 c 0,89,90
 1308 290 1308 290 1352 246 c 256,91,92
 1396 202 1396 202 1396 139 c 0,93,94
 1396 108 1396 108 1385 83 c 256,95,96
 1374 58 1374 58 1355 45 c 1,97,-1
 1543 45 l 1,98,-1
 1543 479 l 1,99,-1
 1603 479 l 1,100,-1
 1603 0 l 1,101,-1
 1088 0 l 1,102,-1
 1088 45 l 1,103,-1
 1088 45 l 1,61,-1
1763 479 m 1,104,-1
 2212 479 l 1,105,-1
 2212 435 l 1,106,-1
 2063 435 l 1,107,-1
 2063 0 l 1,108,-1
 2003 0 l 1,109,-1
 2003 435 l 1,110,-1
 1823 435 l 1,111,-1
 1823 0 l 1,112,-1
 1763 0 l 1,113,-1
 1763 479 l 1,114,-1
 1763 479 l 1,104,-1
EndSplineSet
EndChar

StartChar: NGOO
Encoding: 57899 57899 41
Width: 2089
GlyphClass: 1
Flags: W
LayerCount: 2
Fore
SplineSet
423 746 m 1,0,1
 519 746 519 746 576 701 c 0,2,3
 634 656 634 656 634 582 c 0,4,5
 634 535 634 535 592 501 c 0,6,7
 550 468 550 468 491 468 c 0,8,9
 431 468 431 468 388 501 c 0,10,11
 345 535 345 535 345 582 c 0,12,13
 345 620 345 620 372 651 c 0,14,15
 398 682 398 682 441 694 c 1,16,17
 434 696 434 696 423 696 c 0,18,19
 289 696 289 696 194 599 c 256,20,21
 99 502 99 502 99 364 c 0,22,23
 99 229 99 229 194 133 c 256,24,25
 289 37 289 37 423 37 c 0,26,27
 432 37 432 37 435 38 c 1,28,29
 395 49 395 49 370 79 c 256,30,31
 345 109 345 109 345 145 c 0,32,33
 345 195 345 195 388 231 c 0,34,35
 431 266 431 266 491 266 c 0,36,37
 550 266 550 266 592 231 c 0,38,39
 634 195 634 195 634 145 c 0,40,41
 634 73 634 73 576 30 c 0,42,43
 519 -13 519 -13 423 -13 c 0,44,45
 266 -13 266 -13 155 97 c 256,46,47
 44 207 44 207 44 363 c 0,48,49
 44 522 44 522 155 634 c 256,50,51
 266 746 266 746 423 746 c 1,52,-1
 423 746 l 1,0,1
400 582 m 1,53,54
 400 555 400 555 427 537 c 0,55,56
 453 518 453 518 491 518 c 0,57,58
 527 518 527 518 553 537 c 0,59,60
 579 555 579 555 579 582 c 0,61,62
 579 612 579 612 553 633 c 256,63,64
 527 654 527 654 491 654 c 0,65,66
 453 654 453 654 427 633 c 0,67,68
 400 612 400 612 400 582 c 1,69,-1
 400 582 l 1,53,54
400 145 m 1,70,71
 400 115 400 115 427 94 c 0,72,73
 453 73 453 73 491 73 c 0,74,75
 527 73 527 73 553 94 c 256,76,77
 579 115 579 115 579 145 c 0,78,79
 579 174 579 174 553 195 c 256,80,81
 527 216 527 216 491 216 c 0,82,83
 453 216 453 216 427 195 c 0,84,85
 400 174 400 174 400 145 c 1,86,-1
 400 145 l 1,70,71
957 45 m 1,87,-1
 1108 45 l 2,88,89
 1150 45 1150 45 1180 73 c 0,90,91
 1210 100 1210 100 1210 139 c 0,92,93
 1210 181 1210 181 1182 210 c 0,94,95
 1154 240 1154 240 1115 240 c 0,96,97
 1074 240 1074 240 1046 210 c 0,98,99
 1017 181 1017 181 1017 139 c 2,100,-1
 1017 91 l 1,101,-1
 957 91 l 1,102,-1
 957 435 l 1,103,-1
 802 435 l 1,104,-1
 802 0 l 1,105,-1
 742 0 l 1,106,-1
 742 479 l 1,107,-1
 1197 479 l 1,108,-1
 1197 435 l 1,109,-1
 1017 435 l 1,110,-1
 1017 259 l 1,111,112
 1034 274 1034 274 1059 282 c 256,113,114
 1084 290 1084 290 1115 290 c 0,115,116
 1177 290 1177 290 1221 246 c 256,117,118
 1265 202 1265 202 1265 139 c 0,119,120
 1265 108 1265 108 1254 83 c 256,121,122
 1243 58 1243 58 1224 45 c 1,123,-1
 1412 45 l 1,124,-1
 1412 479 l 1,125,-1
 1472 479 l 1,126,-1
 1472 0 l 1,127,-1
 957 0 l 1,128,-1
 957 45 l 1,129,-1
 957 45 l 1,87,-1
1632 479 m 1,130,-1
 2081 479 l 1,131,-1
 2081 435 l 1,132,-1
 1932 435 l 1,133,-1
 1932 0 l 1,134,-1
 1872 0 l 1,135,-1
 1872 435 l 1,136,-1
 1692 435 l 1,137,-1
 1692 0 l 1,138,-1
 1632 0 l 1,139,-1
 1632 479 l 1,140,-1
 1632 479 l 1,130,-1
EndSplineSet
EndChar

StartChar: NGAU
Encoding: 57900 57900 42
Width: 2620
GlyphClass: 1
Flags: W
LayerCount: 2
Fore
SplineSet
286 150 m 1,0,1
 286 104 286 104 316 72 c 0,2,3
 346 39 346 39 388 39 c 256,4,5
 430 39 430 39 459 72 c 0,6,7
 489 104 489 104 489 150 c 0,8,9
 489 198 489 198 459 232 c 0,10,11
 430 266 430 266 388 266 c 256,12,13
 346 266 346 266 316 232 c 256,14,15
 286 198 286 198 286 150 c 1,16,-1
 286 150 l 1,0,1
47 364 m 1,17,18
 47 522 47 522 144 634 c 256,19,20
 241 746 241 746 378 746 c 0,21,22
 517 746 517 746 616 634 c 0,23,24
 714 521 714 521 714 362 c 2,25,-1
 714 0 l 1,26,-1
 654 0 l 1,27,-1
 654 362 l 2,28,29
 654 500 654 500 573 598 c 256,30,31
 492 696 492 696 378 696 c 256,32,33
 264 696 264 696 183 598 c 256,34,35
 102 500 102 500 102 362 c 0,36,37
 102 252 102 252 146 169 c 0,38,39
 191 86 191 86 263 60 c 1,40,41
 248 75 248 75 239 99 c 0,42,43
 231 122 231 122 231 151 c 0,44,45
 231 219 231 219 277 268 c 0,46,47
 323 316 323 316 388 316 c 256,48,49
 453 316 453 316 498 268 c 0,50,51
 544 219 544 219 544 151 c 0,52,53
 544 68 544 68 497 26 c 256,54,55
 450 -16 450 -16 357 -16 c 0,56,57
 229 -16 229 -16 138 95 c 0,58,59
 47 207 47 207 47 364 c 1,60,-1
 47 364 l 1,17,18
1088 45 m 1,61,-1
 1239 45 l 2,62,63
 1281 45 1281 45 1311 73 c 0,64,65
 1341 100 1341 100 1341 139 c 0,66,67
 1341 181 1341 181 1313 210 c 0,68,69
 1285 240 1285 240 1246 240 c 0,70,71
 1205 240 1205 240 1177 210 c 0,72,73
 1148 181 1148 181 1148 139 c 2,74,-1
 1148 91 l 1,75,-1
 1088 91 l 1,76,-1
 1088 435 l 1,77,-1
 933 435 l 1,78,-1
 933 0 l 1,79,-1
 873 0 l 1,80,-1
 873 479 l 1,81,-1
 1328 479 l 1,82,-1
 1328 435 l 1,83,-1
 1148 435 l 1,84,-1
 1148 259 l 1,85,86
 1165 274 1165 274 1190 282 c 256,87,88
 1215 290 1215 290 1246 290 c 0,89,90
 1308 290 1308 290 1352 246 c 256,91,92
 1396 202 1396 202 1396 139 c 0,93,94
 1396 108 1396 108 1385 83 c 256,95,96
 1374 58 1374 58 1355 45 c 1,97,-1
 1543 45 l 1,98,-1
 1543 479 l 1,99,-1
 1603 479 l 1,100,-1
 1603 0 l 1,101,-1
 1088 0 l 1,102,-1
 1088 45 l 1,103,-1
 1088 45 l 1,61,-1
1877 133 m 1,104,105
 1877 94 1877 94 1900 67 c 0,106,107
 1922 39 1922 39 1954 39 c 0,108,109
 1985 39 1985 39 2008 67 c 0,110,111
 2030 94 2030 94 2030 133 c 256,112,113
 2030 172 2030 172 2008 199 c 0,114,115
 1985 227 1985 227 1954 227 c 0,116,117
 1922 227 1922 227 1900 199 c 0,118,119
 1877 172 1877 172 1877 133 c 1,120,-1
 1877 133 l 1,104,105
2168 479 m 1,121,-1
 2612 479 l 1,122,-1
 2612 435 l 1,123,-1
 2470 435 l 1,124,-1
 2470 0 l 1,125,-1
 2410 0 l 1,126,-1
 2410 435 l 1,127,-1
 2228 435 l 1,128,-1
 2228 0 l 1,129,-1
 2168 0 l 1,130,-1
 2168 240 l 2,131,132
 2168 325 2168 325 2109 386 c 0,133,134
 2051 446 2051 446 1968 446 c 0,135,136
 1891 446 1891 446 1836 382 c 0,137,138
 1782 318 1782 318 1782 227 c 0,139,140
 1782 171 1782 171 1798 130 c 0,141,142
 1813 88 1813 88 1841 71 c 1,143,144
 1822 97 1822 97 1822 133 c 0,145,146
 1822 193 1822 193 1861 235 c 0,147,148
 1899 277 1899 277 1954 277 c 0,149,150
 2008 277 2008 277 2047 235 c 0,151,152
 2085 193 2085 193 2085 133 c 256,153,154
 2085 73 2085 73 2046 31 c 256,155,156
 2007 -11 2007 -11 1951 -11 c 0,157,158
 1858 -11 1858 -11 1793 59 c 0,159,160
 1727 128 1727 128 1727 227 c 0,161,162
 1727 338 1727 338 1798 417 c 0,163,164
 1868 496 1868 496 1968 496 c 0,165,166
 2031 496 2031 496 2084 466 c 0,167,168
 2138 435 2138 435 2168 383 c 1,169,-1
 2168 479 l 1,170,-1
 2168 479 l 1,121,-1
EndSplineSet
EndChar

StartChar: C
Encoding: 57904 57904 43
Width: 575
GlyphClass: 1
Flags: W
LayerCount: 2
Fore
SplineSet
214 264 m 1,0,-1
 344 264 l 1,1,-1
 344 435 l 1,2,-1
 214 435 l 1,3,-1
 214 264 l 1,4,-1
 214 264 l 1,0,-1
83 151 m 1,5,6
 83 105 83 105 126 72 c 256,7,8
 169 39 169 39 230 39 c 0,9,10
 277 39 277 39 311 65 c 0,11,12
 344 91 344 91 344 127 c 2,13,-1
 344 214 l 1,14,-1
 154 214 l 2,15,16
 125 214 125 214 104 196 c 0,17,18
 83 177 83 177 83 151 c 1,19,-1
 83 151 l 1,5,6
154 479 m 1,20,-1
 559 479 l 1,21,-1
 559 435 l 1,22,-1
 404 435 l 1,23,-1
 404 264 l 1,24,-1
 559 264 l 1,25,-1
 559 214 l 1,26,-1
 404 214 l 1,27,-1
 404 127 l 2,28,29
 404 70 404 70 353 29 c 0,30,31
 302 -11 302 -11 230 -11 c 0,32,33
 146 -11 146 -11 87 36 c 0,34,35
 28 84 28 84 28 151 c 0,36,37
 28 198 28 198 65 231 c 256,38,39
 102 264 102 264 154 264 c 1,40,-1
 154 479 l 1,41,-1
 154 479 l 1,20,-1
224 589 m 1,42,43
 224 609 224 609 242 623 c 0,44,45
 261 637 261 637 287 637 c 0,46,47
 314 637 314 637 332 623 c 0,48,49
 351 609 351 609 351 589 c 0,50,51
 351 570 351 570 332 556 c 0,52,53
 314 542 314 542 287 542 c 0,54,55
 261 542 261 542 242 556 c 0,56,57
 224 570 224 570 224 589 c 1,58,-1
 224 589 l 1,42,43
EndSplineSet
EndChar

StartChar: CA
Encoding: 57905 57905 44
Width: 575
GlyphClass: 1
Flags: W
LayerCount: 2
Fore
SplineSet
214 264 m 1,0,-1
 344 264 l 1,1,-1
 344 435 l 1,2,-1
 214 435 l 1,3,-1
 214 264 l 1,4,-1
 214 264 l 1,0,-1
83 151 m 1,5,6
 83 105 83 105 126 72 c 256,7,8
 169 39 169 39 230 39 c 0,9,10
 277 39 277 39 311 65 c 0,11,12
 344 91 344 91 344 127 c 2,13,-1
 344 214 l 1,14,-1
 154 214 l 2,15,16
 125 214 125 214 104 196 c 0,17,18
 83 177 83 177 83 151 c 1,19,-1
 83 151 l 1,5,6
154 479 m 1,20,-1
 559 479 l 1,21,-1
 559 435 l 1,22,-1
 404 435 l 1,23,-1
 404 264 l 1,24,-1
 559 264 l 1,25,-1
 559 214 l 1,26,-1
 404 214 l 1,27,-1
 404 127 l 2,28,29
 404 70 404 70 353 29 c 0,30,31
 302 -11 302 -11 230 -11 c 0,32,33
 146 -11 146 -11 87 36 c 0,34,35
 28 84 28 84 28 151 c 0,36,37
 28 198 28 198 65 231 c 256,38,39
 102 264 102 264 154 264 c 1,40,-1
 154 479 l 1,41,-1
 154 479 l 1,20,-1
EndSplineSet
EndChar

StartChar: CAA
Encoding: 57906 57906 45
Width: 1112
GlyphClass: 1
Flags: W
LayerCount: 2
Fore
SplineSet
214 264 m 1,0,-1
 344 264 l 1,1,-1
 344 435 l 1,2,-1
 214 435 l 1,3,-1
 214 264 l 1,4,-1
 214 264 l 1,0,-1
83 151 m 1,5,6
 83 105 83 105 126 72 c 256,7,8
 169 39 169 39 230 39 c 0,9,10
 277 39 277 39 311 65 c 0,11,12
 344 91 344 91 344 127 c 2,13,-1
 344 214 l 1,14,-1
 154 214 l 2,15,16
 125 214 125 214 104 196 c 0,17,18
 83 177 83 177 83 151 c 1,19,-1
 83 151 l 1,5,6
154 479 m 1,20,-1
 559 479 l 1,21,-1
 559 435 l 1,22,-1
 404 435 l 1,23,-1
 404 264 l 1,24,-1
 559 264 l 1,25,-1
 559 214 l 1,26,-1
 404 214 l 1,27,-1
 404 127 l 2,28,29
 404 70 404 70 353 29 c 0,30,31
 302 -11 302 -11 230 -11 c 0,32,33
 146 -11 146 -11 87 36 c 0,34,35
 28 84 28 84 28 151 c 0,36,37
 28 198 28 198 65 231 c 256,38,39
 102 264 102 264 154 264 c 1,40,-1
 154 479 l 1,41,-1
 154 479 l 1,20,-1
655 479 m 1,42,-1
 1104 479 l 1,43,-1
 1104 435 l 1,44,-1
 955 435 l 1,45,-1
 955 0 l 1,46,-1
 895 0 l 1,47,-1
 895 435 l 1,48,-1
 715 435 l 1,49,-1
 715 0 l 1,50,-1
 655 0 l 1,51,-1
 655 479 l 1,52,-1
 655 479 l 1,42,-1
EndSplineSet
EndChar

StartChar: CI
Encoding: 57907 57907 46
Width: 800
GlyphClass: 1
Flags: W
LayerCount: 2
Fore
SplineSet
214 264 m 1,0,-1
 344 264 l 1,1,-1
 344 435 l 1,2,-1
 214 435 l 1,3,-1
 214 264 l 1,4,-1
 214 264 l 1,0,-1
83 151 m 1,5,6
 83 105 83 105 126 72 c 256,7,8
 169 39 169 39 230 39 c 0,9,10
 277 39 277 39 311 65 c 0,11,12
 344 91 344 91 344 127 c 2,13,-1
 344 214 l 1,14,-1
 154 214 l 2,15,16
 125 214 125 214 104 196 c 0,17,18
 83 177 83 177 83 151 c 1,19,-1
 83 151 l 1,5,6
154 479 m 1,20,-1
 332 479 l 1,21,22
 302 499 302 499 285 529 c 256,23,24
 268 559 268 559 268 592 c 0,25,26
 268 652 268 652 331 694 c 256,27,28
 394 736 394 736 483 736 c 0,29,30
 581 736 581 736 651 679 c 0,31,32
 720 622 720 622 720 542 c 2,33,-1
 720 0 l 1,34,-1
 660 0 l 1,35,-1
 660 542 l 2,36,37
 660 602 660 602 608 644 c 256,38,39
 556 686 556 686 483 686 c 0,40,41
 417 686 417 686 370 658 c 0,42,43
 323 631 323 631 323 592 c 0,44,45
 323 558 323 558 346 527 c 256,46,47
 369 496 369 496 407 479 c 1,48,-1
 559 479 l 1,49,-1
 559 435 l 1,50,-1
 404 435 l 1,51,-1
 404 264 l 1,52,-1
 559 264 l 1,53,-1
 559 214 l 1,54,-1
 404 214 l 1,55,-1
 404 127 l 2,56,57
 404 70 404 70 353 29 c 0,58,59
 302 -11 302 -11 230 -11 c 0,60,61
 146 -11 146 -11 87 36 c 0,62,63
 28 84 28 84 28 151 c 0,64,65
 28 198 28 198 65 231 c 256,66,67
 102 264 102 264 154 264 c 1,68,-1
 154 479 l 1,69,-1
 154 479 l 1,20,-1
EndSplineSet
EndChar

StartChar: CII
Encoding: 57908 57908 47
Width: 575
GlyphClass: 1
Flags: W
LayerCount: 2
Fore
SplineSet
214 264 m 1,0,-1
 344 264 l 1,1,-1
 344 435 l 1,2,-1
 214 435 l 1,3,-1
 214 264 l 1,4,-1
 214 264 l 1,0,-1
83 151 m 1,5,6
 83 105 83 105 126 72 c 256,7,8
 169 39 169 39 230 39 c 0,9,10
 277 39 277 39 311 65 c 0,11,12
 344 91 344 91 344 127 c 2,13,-1
 344 214 l 1,14,-1
 154 214 l 2,15,16
 125 214 125 214 104 196 c 0,17,18
 83 177 83 177 83 151 c 1,19,-1
 83 151 l 1,5,6
154 479 m 1,20,-1
 332 479 l 1,21,22
 285 502 285 502 258 537 c 0,23,24
 230 572 230 572 230 608 c 0,25,26
 230 664 230 664 287 704 c 0,27,28
 345 744 345 744 426 744 c 0,29,30
 500 744 500 744 544 715 c 0,31,32
 589 687 589 687 589 639 c 0,33,34
 589 597 589 597 553 568 c 0,35,36
 516 538 516 538 465 538 c 0,37,38
 415 538 415 538 379 568 c 0,39,40
 344 597 344 597 344 639 c 0,41,42
 344 658 344 658 354 674 c 0,43,44
 365 690 365 690 382 698 c 1,45,46
 342 698 342 698 313 672 c 0,47,48
 285 645 285 645 285 608 c 0,49,50
 285 577 285 577 322 541 c 0,51,52
 358 506 358 506 420 479 c 1,53,-1
 559 479 l 1,54,-1
 559 435 l 1,55,-1
 404 435 l 1,56,-1
 404 264 l 1,57,-1
 559 264 l 1,58,-1
 559 214 l 1,59,-1
 404 214 l 1,60,-1
 404 127 l 2,61,62
 404 70 404 70 353 29 c 0,63,64
 302 -11 302 -11 230 -11 c 0,65,66
 146 -11 146 -11 87 36 c 0,67,68
 28 84 28 84 28 151 c 0,69,70
 28 198 28 198 65 231 c 256,71,72
 102 264 102 264 154 264 c 1,73,-1
 154 479 l 1,74,-1
 154 479 l 1,20,-1
399 639 m 1,75,76
 399 618 399 618 419 603 c 0,77,78
 438 588 438 588 466 588 c 256,79,80
 494 588 494 588 514 603 c 256,81,82
 534 618 534 618 534 639 c 0,83,84
 534 661 534 661 514 676 c 256,85,86
 494 691 494 691 466 691 c 256,87,88
 438 691 438 691 419 676 c 0,89,90
 399 661 399 661 399 639 c 1,91,-1
 399 639 l 1,75,76
EndSplineSet
EndChar

StartChar: CU
Encoding: 57909 57909 48
Width: 700
GlyphClass: 1
Flags: W
LayerCount: 2
Fore
SplineSet
214 435 m 1,0,-1
 214 264 l 1,1,-1
 344 264 l 1,2,-1
 344 435 l 1,3,-1
 214 435 l 1,4,-1
 214 435 l 1,0,-1
83 151 m 1,5,6
 83 105 83 105 126 72 c 256,7,8
 169 39 169 39 230 39 c 0,9,10
 277 39 277 39 311 65 c 0,11,12
 344 91 344 91 344 127 c 2,13,-1
 344 214 l 1,14,-1
 154 214 l 2,15,16
 125 214 125 214 104 196 c 0,17,18
 83 177 83 177 83 151 c 1,19,-1
 83 151 l 1,5,6
28 151 m 1,20,21
 28 198 28 198 65 231 c 256,22,23
 102 264 102 264 154 264 c 1,24,-1
 154 479 l 1,25,-1
 585 479 l 1,26,-1
 585 435 l 1,27,-1
 404 435 l 1,28,-1
 404 264 l 1,29,-1
 691 264 l 1,30,-1
 691 214 l 1,31,-1
 581 214 l 1,32,-1
 581 0 l 1,33,-1
 521 0 l 1,34,-1
 521 214 l 1,35,-1
 404 214 l 1,36,-1
 404 127 l 2,37,38
 404 70 404 70 353 29 c 0,39,40
 302 -11 302 -11 230 -11 c 0,41,42
 146 -11 146 -11 87 36 c 0,43,44
 28 84 28 84 28 151 c 1,45,-1
 28 151 l 1,20,21
EndSplineSet
EndChar

StartChar: CUU
Encoding: 57910 57910 49
Width: 829
GlyphClass: 1
Flags: W
LayerCount: 2
Fore
SplineSet
214 435 m 1,0,-1
 214 264 l 1,1,-1
 345 264 l 1,2,-1
 345 435 l 1,3,-1
 214 435 l 1,4,-1
 214 435 l 1,0,-1
83 151 m 1,5,6
 83 105 83 105 126 72 c 256,7,8
 169 39 169 39 230 39 c 0,9,10
 278 39 278 39 311 65 c 0,11,12
 345 91 345 91 345 127 c 2,13,-1
 345 214 l 1,14,-1
 154 214 l 2,15,16
 125 214 125 214 104 196 c 0,17,18
 83 177 83 177 83 151 c 1,19,-1
 83 151 l 1,5,6
569 133 m 1,20,21
 586 148 586 148 607 157 c 0,22,23
 627 165 627 165 648 165 c 0,24,25
 716 165 716 165 764 116 c 256,26,27
 812 67 812 67 812 -2 c 0,28,29
 812 -105 812 -105 685 -178 c 256,30,31
 558 -251 558 -251 379 -251 c 0,32,33
 213 -251 213 -251 114 -218 c 0,34,35
 14 -185 14 -185 14 -131 c 0,36,37
 14 -90 14 -90 88 -62 c 0,38,39
 162 -33 162 -33 267 -33 c 0,40,41
 417 -33 417 -33 552 -93 c 1,42,-1
 527 -135 l 1,43,44
 420 -83 420 -83 267 -83 c 0,45,46
 179 -83 179 -83 127 -94 c 0,47,48
 69 -107 69 -107 69 -131 c 0,49,50
 69 -168 69 -168 160 -186 c 0,51,52
 238 -201 238 -201 379 -201 c 0,53,54
 536 -201 536 -201 646 -143 c 0,55,56
 757 -84 757 -84 757 -2 c 0,57,58
 757 46 757 46 725 81 c 0,59,60
 693 115 693 115 648 115 c 0,61,62
 615 115 615 115 592 93 c 0,63,64
 569 70 569 70 569 39 c 2,65,-1
 569 0 l 1,66,-1
 509 0 l 1,67,-1
 509 214 l 1,68,-1
 405 214 l 1,69,-1
 405 127 l 2,70,71
 405 70 405 70 354 29 c 0,72,73
 302 -11 302 -11 230 -11 c 0,74,75
 146 -11 146 -11 87 36 c 0,76,77
 28 84 28 84 28 151 c 0,78,79
 28 198 28 198 65 231 c 256,80,81
 102 264 102 264 154 264 c 1,82,-1
 154 479 l 1,83,-1
 584 479 l 1,84,-1
 584 435 l 1,85,-1
 405 435 l 1,86,-1
 405 264 l 1,87,-1
 686 264 l 1,88,-1
 686 214 l 1,89,-1
 569 214 l 1,90,-1
 569 133 l 1,91,-1
 569 133 l 1,20,21
EndSplineSet
EndChar

StartChar: CE
Encoding: 57911 57911 50
Width: 1368
GlyphClass: 1
Flags: W
LayerCount: 2
Fore
SplineSet
286 150 m 1,0,1
 286 104 286 104 316 72 c 0,2,3
 346 39 346 39 388 39 c 256,4,5
 430 39 430 39 459 72 c 0,6,7
 489 104 489 104 489 150 c 0,8,9
 489 198 489 198 459 232 c 0,10,11
 430 266 430 266 388 266 c 256,12,13
 346 266 346 266 316 232 c 256,14,15
 286 198 286 198 286 150 c 1,16,-1
 286 150 l 1,0,1
47 364 m 1,17,18
 47 522 47 522 144 634 c 256,19,20
 241 746 241 746 378 746 c 0,21,22
 517 746 517 746 616 634 c 0,23,24
 714 521 714 521 714 362 c 2,25,-1
 714 0 l 1,26,-1
 654 0 l 1,27,-1
 654 362 l 2,28,29
 654 500 654 500 573 598 c 256,30,31
 492 696 492 696 378 696 c 256,32,33
 264 696 264 696 183 598 c 256,34,35
 102 500 102 500 102 362 c 0,36,37
 102 252 102 252 146 169 c 0,38,39
 191 86 191 86 263 60 c 1,40,41
 248 75 248 75 239 99 c 0,42,43
 231 122 231 122 231 151 c 0,44,45
 231 219 231 219 277 268 c 0,46,47
 323 316 323 316 388 316 c 256,48,49
 453 316 453 316 498 268 c 0,50,51
 544 219 544 219 544 151 c 0,52,53
 544 68 544 68 497 26 c 256,54,55
 450 -16 450 -16 357 -16 c 0,56,57
 229 -16 229 -16 138 95 c 0,58,59
 47 207 47 207 47 364 c 1,60,-1
 47 364 l 1,17,18
1007 264 m 1,61,-1
 1137 264 l 1,62,-1
 1137 435 l 1,63,-1
 1007 435 l 1,64,-1
 1007 264 l 1,65,-1
 1007 264 l 1,61,-1
876 151 m 1,66,67
 876 105 876 105 919 72 c 256,68,69
 962 39 962 39 1023 39 c 0,70,71
 1070 39 1070 39 1104 65 c 0,72,73
 1137 91 1137 91 1137 127 c 2,74,-1
 1137 214 l 1,75,-1
 947 214 l 2,76,77
 918 214 918 214 897 196 c 0,78,79
 876 177 876 177 876 151 c 1,80,-1
 876 151 l 1,66,67
947 479 m 1,81,-1
 1352 479 l 1,82,-1
 1352 435 l 1,83,-1
 1197 435 l 1,84,-1
 1197 264 l 1,85,-1
 1352 264 l 1,86,-1
 1352 214 l 1,87,-1
 1197 214 l 1,88,-1
 1197 127 l 2,89,90
 1197 70 1197 70 1146 29 c 0,91,92
 1095 -11 1095 -11 1023 -11 c 0,93,94
 939 -11 939 -11 880 36 c 0,95,96
 821 84 821 84 821 151 c 0,97,98
 821 198 821 198 858 231 c 256,99,100
 895 264 895 264 947 264 c 1,101,-1
 947 479 l 1,102,-1
 947 479 l 1,81,-1
EndSplineSet
EndChar

StartChar: CEE
Encoding: 57912 57912 51
Width: 1237
GlyphClass: 1
Flags: W
LayerCount: 2
Fore
SplineSet
423 746 m 1,0,1
 519 746 519 746 576 701 c 0,2,3
 634 656 634 656 634 582 c 0,4,5
 634 535 634 535 592 501 c 0,6,7
 550 468 550 468 491 468 c 0,8,9
 431 468 431 468 388 501 c 0,10,11
 345 535 345 535 345 582 c 0,12,13
 345 620 345 620 372 651 c 0,14,15
 398 682 398 682 441 694 c 1,16,17
 434 696 434 696 423 696 c 0,18,19
 289 696 289 696 194 599 c 256,20,21
 99 502 99 502 99 364 c 0,22,23
 99 229 99 229 194 133 c 256,24,25
 289 37 289 37 423 37 c 0,26,27
 432 37 432 37 435 38 c 1,28,29
 395 49 395 49 370 79 c 256,30,31
 345 109 345 109 345 145 c 0,32,33
 345 195 345 195 388 231 c 0,34,35
 431 266 431 266 491 266 c 0,36,37
 550 266 550 266 592 231 c 0,38,39
 634 195 634 195 634 145 c 0,40,41
 634 73 634 73 576 30 c 0,42,43
 519 -13 519 -13 423 -13 c 0,44,45
 266 -13 266 -13 155 97 c 256,46,47
 44 207 44 207 44 363 c 0,48,49
 44 522 44 522 155 634 c 256,50,51
 266 746 266 746 423 746 c 1,52,-1
 423 746 l 1,0,1
400 582 m 1,53,54
 400 555 400 555 427 537 c 0,55,56
 453 518 453 518 491 518 c 0,57,58
 527 518 527 518 553 537 c 0,59,60
 579 555 579 555 579 582 c 0,61,62
 579 612 579 612 553 633 c 256,63,64
 527 654 527 654 491 654 c 0,65,66
 453 654 453 654 427 633 c 0,67,68
 400 612 400 612 400 582 c 1,69,-1
 400 582 l 1,53,54
400 145 m 1,70,71
 400 115 400 115 427 94 c 0,72,73
 453 73 453 73 491 73 c 0,74,75
 527 73 527 73 553 94 c 256,76,77
 579 115 579 115 579 145 c 0,78,79
 579 174 579 174 553 195 c 256,80,81
 527 216 527 216 491 216 c 0,82,83
 453 216 453 216 427 195 c 0,84,85
 400 174 400 174 400 145 c 1,86,-1
 400 145 l 1,70,71
876 264 m 1,87,-1
 1006 264 l 1,88,-1
 1006 435 l 1,89,-1
 876 435 l 1,90,-1
 876 264 l 1,91,-1
 876 264 l 1,87,-1
745 151 m 1,92,93
 745 105 745 105 788 72 c 256,94,95
 831 39 831 39 892 39 c 0,96,97
 939 39 939 39 973 65 c 0,98,99
 1006 91 1006 91 1006 127 c 2,100,-1
 1006 214 l 1,101,-1
 816 214 l 2,102,103
 787 214 787 214 766 196 c 0,104,105
 745 177 745 177 745 151 c 1,106,-1
 745 151 l 1,92,93
816 479 m 1,107,-1
 1221 479 l 1,108,-1
 1221 435 l 1,109,-1
 1066 435 l 1,110,-1
 1066 264 l 1,111,-1
 1221 264 l 1,112,-1
 1221 214 l 1,113,-1
 1066 214 l 1,114,-1
 1066 127 l 2,115,116
 1066 70 1066 70 1015 29 c 0,117,118
 964 -11 964 -11 892 -11 c 0,119,120
 808 -11 808 -11 749 36 c 0,121,122
 690 84 690 84 690 151 c 0,123,124
 690 198 690 198 727 231 c 256,125,126
 764 264 764 264 816 264 c 1,127,-1
 816 479 l 1,128,-1
 816 479 l 1,107,-1
EndSplineSet
EndChar

StartChar: CAI
Encoding: 57913 57913 52
Width: 1548
GlyphClass: 1
Flags: W
LayerCount: 2
Fore
SplineSet
185 121 m 1,0,1
 185 87 185 87 210 63 c 256,2,3
 235 39 235 39 270 39 c 256,4,5
 305 39 305 39 329 63 c 0,6,7
 354 87 354 87 354 121 c 0,8,9
 354 157 354 157 329 183 c 0,10,11
 305 209 305 209 270 209 c 256,12,13
 235 209 235 209 210 183 c 256,14,15
 185 157 185 157 185 121 c 1,16,-1
 185 121 l 1,0,1
507 156 m 1,17,18
 507 108 507 108 524 73 c 0,19,20
 542 39 542 39 566 39 c 256,21,22
 590 39 590 39 606 73 c 0,23,24
 623 108 623 108 623 156 c 0,25,26
 623 224 623 224 608 275 c 0,27,28
 593 327 593 327 566 353 c 1,29,30
 507 272 507 272 507 156 c 1,31,-1
 507 156 l 1,17,18
41 189 m 1,32,33
 41 316 41 316 136 406 c 0,34,35
 230 496 230 496 364 496 c 0,36,37
 422 496 422 496 475 477 c 0,38,39
 527 458 527 458 566 423 c 1,40,41
 605 458 605 458 644 477 c 0,42,43
 684 496 684 496 718 496 c 0,44,45
 804 496 804 496 864 421 c 0,46,47
 925 346 925 346 925 240 c 0,48,49
 925 164 925 164 890 97 c 256,50,51
 855 30 855 30 794 -11 c 1,52,-1
 755 33 l 1,53,54
 809 67 809 67 839 122 c 0,55,56
 870 177 870 177 870 240 c 0,57,58
 870 325 870 325 825 386 c 0,59,60
 781 446 781 446 718 446 c 0,61,62
 691 446 691 446 661 431 c 256,63,64
 631 416 631 416 603 389 c 1,65,66
 639 349 639 349 659 289 c 0,67,68
 678 228 678 228 678 156 c 0,69,70
 678 87 678 87 645 38 c 256,71,72
 612 -11 612 -11 566 -11 c 0,73,74
 519 -11 519 -11 485 38 c 0,75,76
 452 87 452 87 452 156 c 0,77,78
 452 228 452 228 472 288 c 0,79,80
 491 348 491 348 528 389 c 1,81,82
 500 416 500 416 457 431 c 0,83,84
 415 446 415 446 364 446 c 0,85,86
 253 446 253 446 174 371 c 0,87,88
 96 295 96 295 96 189 c 0,89,90
 96 149 96 149 111 116 c 0,91,92
 125 84 125 84 151 68 c 1,93,94
 141 82 141 82 135 96 c 0,95,96
 130 109 130 109 130 121 c 0,97,98
 130 178 130 178 171 219 c 0,99,100
 212 259 212 259 270 259 c 256,101,102
 328 259 328 259 368 219 c 0,103,104
 409 178 409 178 409 121 c 0,105,106
 409 66 409 66 366 28 c 0,107,108
 323 -11 323 -11 262 -11 c 0,109,110
 170 -11 170 -11 106 48 c 0,111,112
 41 106 41 106 41 189 c 1,113,-1
 41 189 l 1,32,33
1187 264 m 1,114,-1
 1317 264 l 1,115,-1
 1317 435 l 1,116,-1
 1187 435 l 1,117,-1
 1187 264 l 1,118,-1
 1187 264 l 1,114,-1
1056 151 m 1,119,120
 1056 105 1056 105 1099 72 c 256,121,122
 1142 39 1142 39 1203 39 c 0,123,124
 1250 39 1250 39 1284 65 c 0,125,126
 1317 91 1317 91 1317 127 c 2,127,-1
 1317 214 l 1,128,-1
 1127 214 l 2,129,130
 1098 214 1098 214 1077 196 c 0,131,132
 1056 177 1056 177 1056 151 c 1,133,-1
 1056 151 l 1,119,120
1127 479 m 1,134,-1
 1532 479 l 1,135,-1
 1532 435 l 1,136,-1
 1377 435 l 1,137,-1
 1377 264 l 1,138,-1
 1532 264 l 1,139,-1
 1532 214 l 1,140,-1
 1377 214 l 1,141,-1
 1377 127 l 2,142,143
 1377 70 1377 70 1326 29 c 0,144,145
 1275 -11 1275 -11 1203 -11 c 0,146,147
 1119 -11 1119 -11 1060 36 c 0,148,149
 1001 84 1001 84 1001 151 c 0,150,151
 1001 198 1001 198 1038 231 c 256,152,153
 1075 264 1075 264 1127 264 c 1,154,-1
 1127 479 l 1,155,-1
 1127 479 l 1,134,-1
EndSplineSet
EndChar

StartChar: CO
Encoding: 57914 57914 53
Width: 1905
GlyphClass: 1
Flags: W
LayerCount: 2
Fore
SplineSet
286 150 m 1,0,1
 286 104 286 104 316 72 c 0,2,3
 346 39 346 39 388 39 c 256,4,5
 430 39 430 39 459 72 c 0,6,7
 489 104 489 104 489 150 c 0,8,9
 489 198 489 198 459 232 c 0,10,11
 430 266 430 266 388 266 c 256,12,13
 346 266 346 266 316 232 c 256,14,15
 286 198 286 198 286 150 c 1,16,-1
 286 150 l 1,0,1
47 364 m 1,17,18
 47 522 47 522 144 634 c 256,19,20
 241 746 241 746 378 746 c 0,21,22
 517 746 517 746 616 634 c 0,23,24
 714 521 714 521 714 362 c 2,25,-1
 714 0 l 1,26,-1
 654 0 l 1,27,-1
 654 362 l 2,28,29
 654 500 654 500 573 598 c 256,30,31
 492 696 492 696 378 696 c 256,32,33
 264 696 264 696 183 598 c 256,34,35
 102 500 102 500 102 362 c 0,36,37
 102 252 102 252 146 169 c 0,38,39
 191 86 191 86 263 60 c 1,40,41
 248 75 248 75 239 99 c 0,42,43
 231 122 231 122 231 151 c 0,44,45
 231 219 231 219 277 268 c 0,46,47
 323 316 323 316 388 316 c 256,48,49
 453 316 453 316 498 268 c 0,50,51
 544 219 544 219 544 151 c 0,52,53
 544 68 544 68 497 26 c 256,54,55
 450 -16 450 -16 357 -16 c 0,56,57
 229 -16 229 -16 138 95 c 0,58,59
 47 207 47 207 47 364 c 1,60,-1
 47 364 l 1,17,18
1007 264 m 1,61,-1
 1137 264 l 1,62,-1
 1137 435 l 1,63,-1
 1007 435 l 1,64,-1
 1007 264 l 1,65,-1
 1007 264 l 1,61,-1
876 151 m 1,66,67
 876 105 876 105 919 72 c 256,68,69
 962 39 962 39 1023 39 c 0,70,71
 1070 39 1070 39 1104 65 c 0,72,73
 1137 91 1137 91 1137 127 c 2,74,-1
 1137 214 l 1,75,-1
 947 214 l 2,76,77
 918 214 918 214 897 196 c 0,78,79
 876 177 876 177 876 151 c 1,80,-1
 876 151 l 1,66,67
947 479 m 1,81,-1
 1352 479 l 1,82,-1
 1352 435 l 1,83,-1
 1197 435 l 1,84,-1
 1197 264 l 1,85,-1
 1352 264 l 1,86,-1
 1352 214 l 1,87,-1
 1197 214 l 1,88,-1
 1197 127 l 2,89,90
 1197 70 1197 70 1146 29 c 0,91,92
 1095 -11 1095 -11 1023 -11 c 0,93,94
 939 -11 939 -11 880 36 c 0,95,96
 821 84 821 84 821 151 c 0,97,98
 821 198 821 198 858 231 c 256,99,100
 895 264 895 264 947 264 c 1,101,-1
 947 479 l 1,102,-1
 947 479 l 1,81,-1
1448 479 m 1,103,-1
 1897 479 l 1,104,-1
 1897 435 l 1,105,-1
 1748 435 l 1,106,-1
 1748 0 l 1,107,-1
 1688 0 l 1,108,-1
 1688 435 l 1,109,-1
 1508 435 l 1,110,-1
 1508 0 l 1,111,-1
 1448 0 l 1,112,-1
 1448 479 l 1,113,-1
 1448 479 l 1,103,-1
EndSplineSet
EndChar

StartChar: COO
Encoding: 57915 57915 54
Width: 1774
GlyphClass: 1
Flags: W
LayerCount: 2
Fore
SplineSet
423 746 m 1,0,1
 519 746 519 746 576 701 c 0,2,3
 634 656 634 656 634 582 c 0,4,5
 634 535 634 535 592 501 c 0,6,7
 550 468 550 468 491 468 c 0,8,9
 431 468 431 468 388 501 c 0,10,11
 345 535 345 535 345 582 c 0,12,13
 345 620 345 620 372 651 c 0,14,15
 398 682 398 682 441 694 c 1,16,17
 434 696 434 696 423 696 c 0,18,19
 289 696 289 696 194 599 c 256,20,21
 99 502 99 502 99 364 c 0,22,23
 99 229 99 229 194 133 c 256,24,25
 289 37 289 37 423 37 c 0,26,27
 432 37 432 37 435 38 c 1,28,29
 395 49 395 49 370 79 c 256,30,31
 345 109 345 109 345 145 c 0,32,33
 345 195 345 195 388 231 c 0,34,35
 431 266 431 266 491 266 c 0,36,37
 550 266 550 266 592 231 c 0,38,39
 634 195 634 195 634 145 c 0,40,41
 634 73 634 73 576 30 c 0,42,43
 519 -13 519 -13 423 -13 c 0,44,45
 266 -13 266 -13 155 97 c 256,46,47
 44 207 44 207 44 363 c 0,48,49
 44 522 44 522 155 634 c 256,50,51
 266 746 266 746 423 746 c 1,52,-1
 423 746 l 1,0,1
400 582 m 1,53,54
 400 555 400 555 427 537 c 0,55,56
 453 518 453 518 491 518 c 0,57,58
 527 518 527 518 553 537 c 0,59,60
 579 555 579 555 579 582 c 0,61,62
 579 612 579 612 553 633 c 256,63,64
 527 654 527 654 491 654 c 0,65,66
 453 654 453 654 427 633 c 0,67,68
 400 612 400 612 400 582 c 1,69,-1
 400 582 l 1,53,54
400 145 m 1,70,71
 400 115 400 115 427 94 c 0,72,73
 453 73 453 73 491 73 c 0,74,75
 527 73 527 73 553 94 c 256,76,77
 579 115 579 115 579 145 c 0,78,79
 579 174 579 174 553 195 c 256,80,81
 527 216 527 216 491 216 c 0,82,83
 453 216 453 216 427 195 c 0,84,85
 400 174 400 174 400 145 c 1,86,-1
 400 145 l 1,70,71
876 264 m 1,87,-1
 1006 264 l 1,88,-1
 1006 435 l 1,89,-1
 876 435 l 1,90,-1
 876 264 l 1,91,-1
 876 264 l 1,87,-1
745 151 m 1,92,93
 745 105 745 105 788 72 c 256,94,95
 831 39 831 39 892 39 c 0,96,97
 939 39 939 39 973 65 c 0,98,99
 1006 91 1006 91 1006 127 c 2,100,-1
 1006 214 l 1,101,-1
 816 214 l 2,102,103
 787 214 787 214 766 196 c 0,104,105
 745 177 745 177 745 151 c 1,106,-1
 745 151 l 1,92,93
816 479 m 1,107,-1
 1221 479 l 1,108,-1
 1221 435 l 1,109,-1
 1066 435 l 1,110,-1
 1066 264 l 1,111,-1
 1221 264 l 1,112,-1
 1221 214 l 1,113,-1
 1066 214 l 1,114,-1
 1066 127 l 2,115,116
 1066 70 1066 70 1015 29 c 0,117,118
 964 -11 964 -11 892 -11 c 0,119,120
 808 -11 808 -11 749 36 c 0,121,122
 690 84 690 84 690 151 c 0,123,124
 690 198 690 198 727 231 c 256,125,126
 764 264 764 264 816 264 c 1,127,-1
 816 479 l 1,128,-1
 816 479 l 1,107,-1
1317 479 m 1,129,-1
 1766 479 l 1,130,-1
 1766 435 l 1,131,-1
 1617 435 l 1,132,-1
 1617 0 l 1,133,-1
 1557 0 l 1,134,-1
 1557 435 l 1,135,-1
 1377 435 l 1,136,-1
 1377 0 l 1,137,-1
 1317 0 l 1,138,-1
 1317 479 l 1,139,-1
 1317 479 l 1,129,-1
EndSplineSet
EndChar

StartChar: CAU
Encoding: 57916 57916 55
Width: 2305
GlyphClass: 1
Flags: W
LayerCount: 2
Fore
SplineSet
286 150 m 1,0,1
 286 104 286 104 316 72 c 0,2,3
 346 39 346 39 388 39 c 256,4,5
 430 39 430 39 459 72 c 0,6,7
 489 104 489 104 489 150 c 0,8,9
 489 198 489 198 459 232 c 0,10,11
 430 266 430 266 388 266 c 256,12,13
 346 266 346 266 316 232 c 256,14,15
 286 198 286 198 286 150 c 1,16,-1
 286 150 l 1,0,1
47 364 m 1,17,18
 47 522 47 522 144 634 c 256,19,20
 241 746 241 746 378 746 c 0,21,22
 517 746 517 746 616 634 c 0,23,24
 714 521 714 521 714 362 c 2,25,-1
 714 0 l 1,26,-1
 654 0 l 1,27,-1
 654 362 l 2,28,29
 654 500 654 500 573 598 c 256,30,31
 492 696 492 696 378 696 c 256,32,33
 264 696 264 696 183 598 c 256,34,35
 102 500 102 500 102 362 c 0,36,37
 102 252 102 252 146 169 c 0,38,39
 191 86 191 86 263 60 c 1,40,41
 248 75 248 75 239 99 c 0,42,43
 231 122 231 122 231 151 c 0,44,45
 231 219 231 219 277 268 c 0,46,47
 323 316 323 316 388 316 c 256,48,49
 453 316 453 316 498 268 c 0,50,51
 544 219 544 219 544 151 c 0,52,53
 544 68 544 68 497 26 c 256,54,55
 450 -16 450 -16 357 -16 c 0,56,57
 229 -16 229 -16 138 95 c 0,58,59
 47 207 47 207 47 364 c 1,60,-1
 47 364 l 1,17,18
1007 264 m 1,61,-1
 1137 264 l 1,62,-1
 1137 435 l 1,63,-1
 1007 435 l 1,64,-1
 1007 264 l 1,65,-1
 1007 264 l 1,61,-1
876 151 m 1,66,67
 876 105 876 105 919 72 c 256,68,69
 962 39 962 39 1023 39 c 0,70,71
 1070 39 1070 39 1104 65 c 0,72,73
 1137 91 1137 91 1137 127 c 2,74,-1
 1137 214 l 1,75,-1
 947 214 l 2,76,77
 918 214 918 214 897 196 c 0,78,79
 876 177 876 177 876 151 c 1,80,-1
 876 151 l 1,66,67
947 479 m 1,81,-1
 1352 479 l 1,82,-1
 1352 435 l 1,83,-1
 1197 435 l 1,84,-1
 1197 264 l 1,85,-1
 1352 264 l 1,86,-1
 1352 214 l 1,87,-1
 1197 214 l 1,88,-1
 1197 127 l 2,89,90
 1197 70 1197 70 1146 29 c 0,91,92
 1095 -11 1095 -11 1023 -11 c 0,93,94
 939 -11 939 -11 880 36 c 0,95,96
 821 84 821 84 821 151 c 0,97,98
 821 198 821 198 858 231 c 256,99,100
 895 264 895 264 947 264 c 1,101,-1
 947 479 l 1,102,-1
 947 479 l 1,81,-1
1562 133 m 1,103,104
 1562 94 1562 94 1585 67 c 0,105,106
 1607 39 1607 39 1639 39 c 0,107,108
 1670 39 1670 39 1693 67 c 0,109,110
 1715 94 1715 94 1715 133 c 256,111,112
 1715 172 1715 172 1693 199 c 0,113,114
 1670 227 1670 227 1639 227 c 0,115,116
 1607 227 1607 227 1585 199 c 0,117,118
 1562 172 1562 172 1562 133 c 1,119,-1
 1562 133 l 1,103,104
1853 479 m 1,120,-1
 2297 479 l 1,121,-1
 2297 435 l 1,122,-1
 2155 435 l 1,123,-1
 2155 0 l 1,124,-1
 2095 0 l 1,125,-1
 2095 435 l 1,126,-1
 1913 435 l 1,127,-1
 1913 0 l 1,128,-1
 1853 0 l 1,129,-1
 1853 240 l 2,130,131
 1853 325 1853 325 1794 386 c 0,132,133
 1736 446 1736 446 1653 446 c 0,134,135
 1576 446 1576 446 1521 382 c 0,136,137
 1467 318 1467 318 1467 227 c 0,138,139
 1467 171 1467 171 1483 130 c 0,140,141
 1498 88 1498 88 1526 71 c 1,142,143
 1507 97 1507 97 1507 133 c 0,144,145
 1507 193 1507 193 1546 235 c 0,146,147
 1584 277 1584 277 1639 277 c 0,148,149
 1693 277 1693 277 1732 235 c 0,150,151
 1770 193 1770 193 1770 133 c 256,152,153
 1770 73 1770 73 1731 31 c 256,154,155
 1692 -11 1692 -11 1636 -11 c 0,156,157
 1543 -11 1543 -11 1478 59 c 0,158,159
 1412 128 1412 128 1412 227 c 0,160,161
 1412 338 1412 338 1483 417 c 0,162,163
 1553 496 1553 496 1653 496 c 0,164,165
 1716 496 1716 496 1769 466 c 0,166,167
 1823 435 1823 435 1853 383 c 1,168,-1
 1853 479 l 1,169,-1
 1853 479 l 1,120,-1
EndSplineSet
EndChar

StartChar: NY
Encoding: 57920 57920 56
Width: 1096
GlyphClass: 1
Flags: W
LayerCount: 2
Fore
SplineSet
371 133 m 1,0,1
 371 94 371 94 398 67 c 0,2,3
 424 39 424 39 462 39 c 0,4,5
 498 39 498 39 524 67 c 0,6,7
 550 94 550 94 550 133 c 256,8,9
 550 172 550 172 524 199 c 0,10,11
 498 227 498 227 462 227 c 0,12,13
 424 227 424 227 398 199 c 0,14,15
 371 172 371 172 371 133 c 1,16,-1
 371 133 l 1,0,1
50 189 m 1,17,18
 50 264 50 264 80 332 c 0,19,20
 110 401 110 401 165 450 c 1,21,-1
 209 417 l 1,22,23
 160 379 160 379 132 318 c 0,24,25
 105 258 105 258 105 189 c 0,26,27
 105 25 105 25 249 -91 c 0,28,29
 392 -207 392 -207 595 -207 c 0,30,31
 765 -207 765 -207 885 -120 c 0,32,33
 1005 -32 1005 -32 1005 91 c 0,34,35
 1005 144 1005 144 972 182 c 256,36,37
 939 220 939 220 892 220 c 0,38,39
 859 220 859 220 835 200 c 0,40,41
 812 180 812 180 812 151 c 2,42,-1
 812 0 l 1,43,-1
 752 0 l 1,44,-1
 752 435 l 1,45,-1
 524 435 l 2,46,47
 416 435 416 435 340 366 c 0,48,49
 264 298 264 298 264 201 c 0,50,51
 264 151 264 151 285 111 c 0,52,53
 306 72 306 72 342 56 c 1,54,55
 316 92 316 92 316 132 c 0,56,57
 316 192 316 192 359 235 c 0,58,59
 402 277 402 277 462 277 c 0,60,61
 521 277 521 277 563 235 c 0,62,63
 605 192 605 192 605 132 c 0,64,65
 605 73 605 73 563 31 c 256,66,67
 521 -11 521 -11 462 -11 c 0,68,69
 347 -11 347 -11 278 47 c 256,70,71
 209 105 209 105 209 201 c 0,72,73
 209 316 209 316 301 398 c 0,74,75
 394 479 394 479 524 479 c 2,76,-1
 1018 479 l 1,77,-1
 1018 435 l 1,78,-1
 812 435 l 1,79,-1
 812 241 l 1,80,81
 828 255 828 255 848 263 c 0,82,83
 869 270 869 270 892 270 c 0,84,85
 962 270 962 270 1011 218 c 0,86,87
 1060 165 1060 165 1060 91 c 0,88,89
 1060 -53 1060 -53 924 -155 c 256,90,91
 788 -257 788 -257 595 -257 c 0,92,93
 369 -257 369 -257 210 -126 c 0,94,95
 50 4 50 4 50 189 c 1,96,-1
 50 189 l 1,17,18
485 589 m 1,97,98
 485 609 485 609 503 623 c 0,99,100
 522 637 522 637 548 637 c 0,101,102
 575 637 575 637 593 623 c 0,103,104
 612 609 612 609 612 589 c 0,105,106
 612 570 612 570 593 556 c 0,107,108
 575 542 575 542 548 542 c 0,109,110
 522 542 522 542 503 556 c 0,111,112
 485 570 485 570 485 589 c 1,113,-1
 485 589 l 1,97,98
EndSplineSet
EndChar

StartChar: NYA
Encoding: 57921 57921 57
Width: 1096
GlyphClass: 1
Flags: W
LayerCount: 2
Fore
SplineSet
371 133 m 1,0,1
 371 94 371 94 398 67 c 0,2,3
 424 39 424 39 462 39 c 0,4,5
 498 39 498 39 524 67 c 0,6,7
 550 94 550 94 550 133 c 256,8,9
 550 172 550 172 524 199 c 0,10,11
 498 227 498 227 462 227 c 0,12,13
 424 227 424 227 398 199 c 0,14,15
 371 172 371 172 371 133 c 1,16,-1
 371 133 l 1,0,1
50 189 m 1,17,18
 50 264 50 264 80 332 c 0,19,20
 110 401 110 401 165 450 c 1,21,-1
 209 417 l 1,22,23
 160 379 160 379 132 318 c 0,24,25
 105 258 105 258 105 189 c 0,26,27
 105 25 105 25 249 -91 c 0,28,29
 392 -207 392 -207 595 -207 c 0,30,31
 765 -207 765 -207 885 -120 c 0,32,33
 1005 -32 1005 -32 1005 91 c 0,34,35
 1005 144 1005 144 972 182 c 256,36,37
 939 220 939 220 892 220 c 0,38,39
 859 220 859 220 835 200 c 0,40,41
 812 180 812 180 812 151 c 2,42,-1
 812 0 l 1,43,-1
 752 0 l 1,44,-1
 752 435 l 1,45,-1
 524 435 l 2,46,47
 416 435 416 435 340 366 c 0,48,49
 264 298 264 298 264 201 c 0,50,51
 264 151 264 151 285 111 c 0,52,53
 306 72 306 72 342 56 c 1,54,55
 316 92 316 92 316 132 c 0,56,57
 316 192 316 192 359 235 c 0,58,59
 402 277 402 277 462 277 c 0,60,61
 521 277 521 277 563 235 c 0,62,63
 605 192 605 192 605 132 c 0,64,65
 605 73 605 73 563 31 c 256,66,67
 521 -11 521 -11 462 -11 c 0,68,69
 347 -11 347 -11 278 47 c 256,70,71
 209 105 209 105 209 201 c 0,72,73
 209 316 209 316 301 398 c 0,74,75
 394 479 394 479 524 479 c 2,76,-1
 1018 479 l 1,77,-1
 1018 435 l 1,78,-1
 812 435 l 1,79,-1
 812 241 l 1,80,81
 828 255 828 255 848 263 c 0,82,83
 869 270 869 270 892 270 c 0,84,85
 962 270 962 270 1011 218 c 0,86,87
 1060 165 1060 165 1060 91 c 0,88,89
 1060 -53 1060 -53 924 -155 c 256,90,91
 788 -257 788 -257 595 -257 c 0,92,93
 369 -257 369 -257 210 -126 c 0,94,95
 50 4 50 4 50 189 c 1,96,-1
 50 189 l 1,17,18
EndSplineSet
EndChar

StartChar: NYAA
Encoding: 57922 57922 58
Width: 1633
GlyphClass: 1
Flags: W
LayerCount: 2
Fore
SplineSet
371 133 m 1,0,1
 371 94 371 94 398 67 c 0,2,3
 424 39 424 39 462 39 c 0,4,5
 498 39 498 39 524 67 c 0,6,7
 550 94 550 94 550 133 c 256,8,9
 550 172 550 172 524 199 c 0,10,11
 498 227 498 227 462 227 c 0,12,13
 424 227 424 227 398 199 c 0,14,15
 371 172 371 172 371 133 c 1,16,-1
 371 133 l 1,0,1
50 189 m 1,17,18
 50 264 50 264 80 332 c 0,19,20
 110 401 110 401 165 450 c 1,21,-1
 209 417 l 1,22,23
 160 379 160 379 132 318 c 0,24,25
 105 258 105 258 105 189 c 0,26,27
 105 25 105 25 249 -91 c 0,28,29
 392 -207 392 -207 595 -207 c 0,30,31
 765 -207 765 -207 885 -120 c 0,32,33
 1005 -32 1005 -32 1005 91 c 0,34,35
 1005 144 1005 144 972 182 c 256,36,37
 939 220 939 220 892 220 c 0,38,39
 859 220 859 220 835 200 c 0,40,41
 812 180 812 180 812 151 c 2,42,-1
 812 0 l 1,43,-1
 752 0 l 1,44,-1
 752 435 l 1,45,-1
 524 435 l 2,46,47
 416 435 416 435 340 366 c 0,48,49
 264 298 264 298 264 201 c 0,50,51
 264 151 264 151 285 111 c 0,52,53
 306 72 306 72 342 56 c 1,54,55
 316 92 316 92 316 132 c 0,56,57
 316 192 316 192 359 235 c 0,58,59
 402 277 402 277 462 277 c 0,60,61
 521 277 521 277 563 235 c 0,62,63
 605 192 605 192 605 132 c 0,64,65
 605 73 605 73 563 31 c 256,66,67
 521 -11 521 -11 462 -11 c 0,68,69
 347 -11 347 -11 278 47 c 256,70,71
 209 105 209 105 209 201 c 0,72,73
 209 316 209 316 301 398 c 0,74,75
 394 479 394 479 524 479 c 2,76,-1
 1018 479 l 1,77,-1
 1018 435 l 1,78,-1
 812 435 l 1,79,-1
 812 241 l 1,80,81
 828 255 828 255 848 263 c 0,82,83
 869 270 869 270 892 270 c 0,84,85
 962 270 962 270 1011 218 c 0,86,87
 1060 165 1060 165 1060 91 c 0,88,89
 1060 -53 1060 -53 924 -155 c 256,90,91
 788 -257 788 -257 595 -257 c 0,92,93
 369 -257 369 -257 210 -126 c 0,94,95
 50 4 50 4 50 189 c 1,96,-1
 50 189 l 1,17,18
1176 479 m 1,97,-1
 1625 479 l 1,98,-1
 1625 435 l 1,99,-1
 1476 435 l 1,100,-1
 1476 0 l 1,101,-1
 1416 0 l 1,102,-1
 1416 435 l 1,103,-1
 1236 435 l 1,104,-1
 1236 0 l 1,105,-1
 1176 0 l 1,106,-1
 1176 479 l 1,107,-1
 1176 479 l 1,97,-1
EndSplineSet
EndChar

StartChar: NYI
Encoding: 57923 57923 59
Width: 1285
GlyphClass: 1
Flags: W
LayerCount: 2
Fore
SplineSet
365 133 m 1,0,1
 365 94 365 94 392 67 c 0,2,3
 418 39 418 39 456 39 c 0,4,5
 492 39 492 39 518 67 c 0,6,7
 544 94 544 94 544 133 c 256,8,9
 544 172 544 172 518 199 c 0,10,11
 492 227 492 227 456 227 c 0,12,13
 418 227 418 227 392 199 c 0,14,15
 365 172 365 172 365 133 c 1,16,-1
 365 133 l 1,0,1
51 189 m 1,17,18
 51 266 51 266 78 332 c 0,19,20
 106 399 106 399 156 444 c 1,21,-1
 195 407 l 1,22,23
 153 374 153 374 129 317 c 0,24,25
 106 259 106 259 106 189 c 0,26,27
 106 27 106 27 249 -88 c 256,28,29
 392 -203 392 -203 595 -203 c 0,30,31
 765 -203 765 -203 886 -117 c 0,32,33
 1006 -31 1006 -31 1006 91 c 0,34,35
 1006 144 1006 144 971 182 c 256,36,37
 936 220 936 220 886 220 c 0,38,39
 853 220 853 220 830 200 c 256,40,41
 807 180 807 180 807 151 c 2,42,-1
 807 0 l 1,43,-1
 747 0 l 1,44,-1
 747 435 l 1,45,-1
 519 435 l 2,46,47
 411 435 411 435 334 366 c 0,48,49
 258 298 258 298 258 201 c 0,50,51
 258 157 258 157 277 119 c 0,52,53
 296 82 296 82 330 61 c 1,54,55
 320 74 320 74 315 93 c 0,56,57
 310 111 310 111 310 132 c 0,58,59
 310 192 310 192 353 235 c 0,60,61
 396 277 396 277 456 277 c 0,62,63
 515 277 515 277 557 235 c 0,64,65
 599 192 599 192 599 132 c 0,66,67
 599 73 599 73 557 31 c 256,68,69
 515 -11 515 -11 456 -11 c 0,70,71
 341 -11 341 -11 272 47 c 256,72,73
 203 105 203 105 203 201 c 0,74,75
 203 316 203 316 296 398 c 0,76,77
 388 479 388 479 519 479 c 2,78,-1
 760 479 l 1,79,80
 739 496 739 496 727 520 c 0,81,82
 715 545 715 545 715 572 c 0,83,84
 715 640 715 640 781 688 c 0,85,86
 848 736 848 736 942 736 c 0,87,88
 1051 736 1051 736 1128 676 c 256,89,90
 1205 616 1205 616 1205 532 c 2,91,-1
 1205 0 l 1,92,-1
 1145 0 l 1,93,-1
 1145 532 l 2,94,95
 1145 596 1145 596 1086 641 c 0,96,97
 1026 686 1026 686 942 686 c 0,98,99
 871 686 871 686 820 653 c 0,100,101
 770 619 770 619 770 572 c 0,102,103
 770 544 770 544 786 519 c 0,104,105
 802 493 802 493 829 479 c 1,106,-1
 1006 479 l 1,107,-1
 1006 435 l 1,108,-1
 807 435 l 1,109,-1
 807 240 l 1,110,111
 823 254 823 254 844 262 c 0,112,113
 864 270 864 270 886 270 c 0,114,115
 958 270 958 270 1010 218 c 0,116,117
 1061 165 1061 165 1061 91 c 0,118,119
 1061 -51 1061 -51 925 -152 c 0,120,121
 788 -253 788 -253 595 -253 c 0,122,123
 370 -253 370 -253 210 -124 c 0,124,125
 51 6 51 6 51 189 c 1,126,-1
 51 189 l 1,17,18
EndSplineSet
EndChar

StartChar: NYII
Encoding: 57924 57924 60
Width: 1097
GlyphClass: 1
Flags: W
LayerCount: 2
Fore
SplineSet
367 133 m 1,0,1
 367 94 367 94 393 67 c 0,2,3
 420 39 420 39 457 39 c 256,4,5
 494 39 494 39 520 67 c 0,6,7
 546 94 546 94 546 133 c 256,8,9
 546 172 546 172 520 199 c 0,10,11
 494 227 494 227 457 227 c 256,12,13
 420 227 420 227 393 199 c 0,14,15
 367 172 367 172 367 133 c 1,16,-1
 367 133 l 1,0,1
52 189 m 1,17,18
 52 267 52 267 79 334 c 0,19,20
 105 400 105 400 154 444 c 1,21,-1
 193 411 l 1,22,23
 152 371 152 371 129 313 c 0,24,25
 107 256 107 256 107 189 c 0,26,27
 107 27 107 27 251 -88 c 0,28,29
 394 -203 394 -203 597 -203 c 0,30,31
 767 -203 767 -203 888 -117 c 0,32,33
 1008 -31 1008 -31 1008 91 c 0,34,35
 1008 144 1008 144 973 182 c 0,36,37
 937 220 937 220 887 220 c 0,38,39
 855 220 855 220 832 198 c 256,40,41
 809 176 809 176 809 145 c 2,42,-1
 809 0 l 1,43,-1
 749 0 l 1,44,-1
 749 435 l 1,45,-1
 521 435 l 2,46,47
 412 435 412 435 336 366 c 0,48,49
 259 298 259 298 259 201 c 0,50,51
 259 151 259 151 279 113 c 0,52,53
 299 76 299 76 331 67 c 1,54,55
 312 93 312 93 312 132 c 0,56,57
 312 192 312 192 354 235 c 0,58,59
 397 277 397 277 457 277 c 256,60,61
 517 277 517 277 559 235 c 0,62,63
 601 192 601 192 601 132 c 0,64,65
 601 73 601 73 559 31 c 256,66,67
 517 -11 517 -11 457 -11 c 0,68,69
 342 -11 342 -11 273 47 c 256,70,71
 204 105 204 105 204 201 c 0,72,73
 204 316 204 316 297 398 c 0,74,75
 390 479 390 479 521 479 c 2,76,-1
 749 479 l 1,77,78
 703 502 703 502 675 538 c 0,79,80
 648 574 648 574 648 613 c 0,81,82
 648 667 648 667 709 706 c 0,83,84
 770 744 770 744 857 744 c 0,85,86
 932 744 932 744 985 709 c 256,87,88
 1038 674 1038 674 1038 624 c 0,89,90
 1038 576 1038 576 998 542 c 256,91,92
 958 508 958 508 902 508 c 0,93,94
 844 508 844 508 802 542 c 0,95,96
 761 576 761 576 761 624 c 0,97,98
 761 648 761 648 772 666 c 0,99,100
 782 685 782 685 800 693 c 1,101,102
 758 687 758 687 731 664 c 0,103,104
 703 642 703 642 703 613 c 0,105,106
 703 568 703 568 744 530 c 0,107,108
 786 493 786 493 850 479 c 1,109,-1
 1008 479 l 1,110,-1
 1008 435 l 1,111,-1
 809 435 l 1,112,-1
 809 246 l 1,113,114
 822 258 822 258 842 264 c 256,115,116
 862 270 862 270 887 270 c 0,117,118
 960 270 960 270 1011 218 c 0,119,120
 1063 165 1063 165 1063 91 c 0,121,122
 1063 -51 1063 -51 927 -152 c 0,123,124
 790 -253 790 -253 597 -253 c 0,125,126
 371 -253 371 -253 212 -124 c 0,127,128
 52 6 52 6 52 189 c 1,129,-1
 52 189 l 1,17,18
816 623 m 1,130,131
 816 596 816 596 841 576 c 0,132,133
 866 557 866 557 901 557 c 0,134,135
 935 557 935 557 959 576 c 0,136,137
 983 596 983 596 983 623 c 0,138,139
 983 651 983 651 959 670 c 0,140,141
 935 690 935 690 901 690 c 0,142,143
 866 690 866 690 841 670 c 0,144,145
 816 651 816 651 816 623 c 1,146,-1
 816 623 l 1,130,131
EndSplineSet
EndChar

StartChar: NYU
Encoding: 57925 57925 61
Width: 1166
GlyphClass: 1
Flags: W
LayerCount: 2
Fore
SplineSet
202 133 m 1,0,1
 202 94 202 94 228 67 c 0,2,3
 255 39 255 39 292 39 c 256,4,5
 329 39 329 39 355 67 c 0,6,7
 381 94 381 94 381 133 c 256,8,9
 381 172 381 172 355 199 c 0,10,11
 329 227 329 227 292 227 c 256,12,13
 255 227 255 227 228 199 c 0,14,15
 202 172 202 172 202 133 c 1,16,-1
 202 133 l 1,0,1
39 201 m 1,17,18
 39 316 39 316 132 398 c 0,19,20
 225 479 225 479 356 479 c 2,21,-1
 849 479 l 1,22,-1
 849 435 l 1,23,-1
 644 435 l 1,24,-1
 644 228 l 1,25,26
 667 248 667 248 693 259 c 0,27,28
 720 270 720 270 748 270 c 0,29,30
 818 270 818 270 868 209 c 0,31,32
 917 148 917 148 917 62 c 0,33,34
 917 -13 917 -13 899 -53 c 1,35,-1
 1026 -53 l 1,36,-1
 1026 479 l 1,37,-1
 1086 479 l 1,38,-1
 1086 -103 l 1,39,-1
 881 -103 l 1,40,41
 827 -177 827 -177 705 -218 c 0,42,43
 583 -260 583 -260 419 -260 c 0,44,45
 281 -260 281 -260 184 -235 c 0,46,47
 86 -211 86 -211 46 -166 c 0,48,49
 31 -154 31 -154 22 -142 c 0,50,51
 14 -130 14 -130 14 -121 c 0,52,53
 14 -93 14 -93 40 -73 c 256,54,55
 66 -53 66 -53 103 -53 c 2,56,-1
 837 -53 l 1,57,58
 849 -37 849 -37 856 -8 c 0,59,60
 862 22 862 22 862 62 c 0,61,62
 862 127 862 127 829 174 c 0,63,64
 795 220 795 220 748 220 c 0,65,66
 705 220 705 220 674 193 c 0,67,68
 644 166 644 166 644 127 c 2,69,-1
 644 0 l 1,70,-1
 584 0 l 1,71,-1
 584 435 l 1,72,-1
 356 435 l 2,73,74
 247 435 247 435 171 366 c 0,75,76
 94 298 94 298 94 201 c 0,77,78
 94 159 94 159 115 121 c 0,79,80
 136 84 136 84 173 61 c 1,81,82
 160 78 160 78 154 97 c 0,83,84
 147 115 147 115 147 132 c 0,85,86
 147 192 147 192 189 235 c 0,87,88
 232 277 232 277 292 277 c 256,89,90
 352 277 352 277 394 235 c 0,91,92
 436 192 436 192 436 132 c 0,93,94
 436 73 436 73 394 31 c 256,95,96
 352 -11 352 -11 292 -11 c 0,97,98
 187 -11 187 -11 113 51 c 256,99,100
 39 113 39 113 39 201 c 1,101,-1
 39 201 l 1,17,18
69 -121 m 1,102,103
 69 -128 69 -128 80 -138 c 256,104,105
 91 -148 91 -148 110 -158 c 0,106,107
 208 -210 208 -210 419 -210 c 0,108,109
 565 -210 565 -210 668 -182 c 256,110,111
 771 -154 771 -154 811 -103 c 1,112,-1
 103 -103 l 2,113,114
 89 -103 89 -103 79 -108 c 0,115,116
 69 -114 69 -114 69 -121 c 1,117,-1
 69 -121 l 1,102,103
EndSplineSet
EndChar

StartChar: NYUU
Encoding: 57926 57926 62
Width: 1408
GlyphClass: 1
Flags: W
LayerCount: 2
Fore
SplineSet
202 133 m 1,0,1
 202 94 202 94 228 67 c 0,2,3
 255 39 255 39 292 39 c 256,4,5
 329 39 329 39 355 67 c 0,6,7
 381 94 381 94 381 133 c 256,8,9
 381 172 381 172 355 199 c 0,10,11
 329 227 329 227 292 227 c 256,12,13
 255 227 255 227 228 199 c 0,14,15
 202 172 202 172 202 133 c 1,16,-1
 202 133 l 1,0,1
39 201 m 1,17,18
 39 316 39 316 132 398 c 0,19,20
 225 479 225 479 356 479 c 2,21,-1
 849 479 l 1,22,-1
 849 435 l 1,23,-1
 644 435 l 1,24,-1
 644 228 l 1,25,26
 667 248 667 248 693 259 c 0,27,28
 720 270 720 270 748 270 c 0,29,30
 818 270 818 270 868 206 c 0,31,32
 917 141 917 141 917 50 c 0,33,34
 917 -13 917 -13 899 -53 c 1,35,-1
 1026 -53 l 1,36,-1
 1026 479 l 1,37,-1
 1400 479 l 1,38,-1
 1400 435 l 1,39,-1
 1276 435 l 1,40,-1
 1276 -103 l 1,41,-1
 1216 -103 l 1,42,-1
 1216 435 l 1,43,-1
 1086 435 l 1,44,-1
 1086 -103 l 1,45,-1
 881 -103 l 1,46,47
 828 -176 828 -176 706 -216 c 0,48,49
 584 -257 584 -257 419 -257 c 0,50,51
 251 -257 251 -257 133 -217 c 0,52,53
 14 -177 14 -177 14 -121 c 0,54,55
 14 -93 14 -93 40 -73 c 256,56,57
 66 -53 66 -53 103 -53 c 2,58,-1
 837 -53 l 1,59,60
 849 -37 849 -37 856 -11 c 0,61,62
 862 15 862 15 862 50 c 0,63,64
 862 120 862 120 829 170 c 0,65,66
 795 220 795 220 748 220 c 0,67,68
 705 220 705 220 674 191 c 0,69,70
 644 162 644 162 644 121 c 2,71,-1
 644 0 l 1,72,-1
 584 0 l 1,73,-1
 584 435 l 1,74,-1
 356 435 l 2,75,76
 247 435 247 435 171 366 c 0,77,78
 94 298 94 298 94 201 c 0,79,80
 94 159 94 159 113 123 c 0,81,82
 133 87 133 87 167 66 c 1,83,84
 147 94 147 94 147 132 c 0,85,86
 147 192 147 192 189 235 c 0,87,88
 232 277 232 277 292 277 c 256,89,90
 352 277 352 277 394 235 c 0,91,92
 436 192 436 192 436 132 c 0,93,94
 436 73 436 73 394 31 c 256,95,96
 352 -11 352 -11 292 -11 c 0,97,98
 187 -11 187 -11 113 51 c 256,99,100
 39 113 39 113 39 201 c 1,101,-1
 39 201 l 1,17,18
69 -121 m 1,102,103
 69 -164 69 -164 172 -187 c 0,104,105
 264 -207 264 -207 419 -207 c 0,106,107
 566 -207 566 -207 669 -180 c 0,108,109
 773 -152 773 -152 811 -103 c 1,110,-1
 103 -103 l 2,111,112
 89 -103 89 -103 79 -108 c 0,113,114
 69 -114 69 -114 69 -121 c 1,115,-1
 69 -121 l 1,102,103
EndSplineSet
EndChar

StartChar: NYE
Encoding: 57927 57927 63
Width: 1889
GlyphClass: 1
Flags: W
LayerCount: 2
Fore
SplineSet
286 150 m 1,0,1
 286 104 286 104 316 72 c 0,2,3
 346 39 346 39 388 39 c 256,4,5
 430 39 430 39 459 72 c 0,6,7
 489 104 489 104 489 150 c 0,8,9
 489 198 489 198 459 232 c 0,10,11
 430 266 430 266 388 266 c 256,12,13
 346 266 346 266 316 232 c 256,14,15
 286 198 286 198 286 150 c 1,16,-1
 286 150 l 1,0,1
47 364 m 1,17,18
 47 522 47 522 144 634 c 256,19,20
 241 746 241 746 378 746 c 0,21,22
 517 746 517 746 616 634 c 0,23,24
 714 521 714 521 714 362 c 2,25,-1
 714 0 l 1,26,-1
 654 0 l 1,27,-1
 654 362 l 2,28,29
 654 500 654 500 573 598 c 256,30,31
 492 696 492 696 378 696 c 256,32,33
 264 696 264 696 183 598 c 256,34,35
 102 500 102 500 102 362 c 0,36,37
 102 252 102 252 146 169 c 0,38,39
 191 86 191 86 263 60 c 1,40,41
 248 75 248 75 239 99 c 0,42,43
 231 122 231 122 231 151 c 0,44,45
 231 219 231 219 277 268 c 0,46,47
 323 316 323 316 388 316 c 256,48,49
 453 316 453 316 498 268 c 0,50,51
 544 219 544 219 544 151 c 0,52,53
 544 68 544 68 497 26 c 256,54,55
 450 -16 450 -16 357 -16 c 0,56,57
 229 -16 229 -16 138 95 c 0,58,59
 47 207 47 207 47 364 c 1,60,-1
 47 364 l 1,17,18
1164 133 m 1,61,62
 1164 94 1164 94 1191 67 c 0,63,64
 1217 39 1217 39 1255 39 c 0,65,66
 1291 39 1291 39 1317 67 c 0,67,68
 1343 94 1343 94 1343 133 c 256,69,70
 1343 172 1343 172 1317 199 c 0,71,72
 1291 227 1291 227 1255 227 c 0,73,74
 1217 227 1217 227 1191 199 c 0,75,76
 1164 172 1164 172 1164 133 c 1,77,-1
 1164 133 l 1,61,62
843 189 m 1,78,79
 843 264 843 264 873 332 c 0,80,81
 903 401 903 401 958 450 c 1,82,-1
 1002 417 l 1,83,84
 953 379 953 379 925 318 c 0,85,86
 898 258 898 258 898 189 c 0,87,88
 898 25 898 25 1042 -91 c 0,89,90
 1185 -207 1185 -207 1388 -207 c 0,91,92
 1558 -207 1558 -207 1678 -120 c 0,93,94
 1798 -32 1798 -32 1798 91 c 0,95,96
 1798 144 1798 144 1765 182 c 256,97,98
 1732 220 1732 220 1685 220 c 0,99,100
 1652 220 1652 220 1628 200 c 0,101,102
 1605 180 1605 180 1605 151 c 2,103,-1
 1605 0 l 1,104,-1
 1545 0 l 1,105,-1
 1545 435 l 1,106,-1
 1317 435 l 2,107,108
 1209 435 1209 435 1133 366 c 0,109,110
 1057 298 1057 298 1057 201 c 0,111,112
 1057 151 1057 151 1078 111 c 0,113,114
 1099 72 1099 72 1135 56 c 1,115,116
 1109 92 1109 92 1109 132 c 0,117,118
 1109 192 1109 192 1152 235 c 0,119,120
 1195 277 1195 277 1255 277 c 0,121,122
 1314 277 1314 277 1356 235 c 0,123,124
 1398 192 1398 192 1398 132 c 0,125,126
 1398 73 1398 73 1356 31 c 256,127,128
 1314 -11 1314 -11 1255 -11 c 0,129,130
 1140 -11 1140 -11 1071 47 c 256,131,132
 1002 105 1002 105 1002 201 c 0,133,134
 1002 316 1002 316 1094 398 c 0,135,136
 1187 479 1187 479 1317 479 c 2,137,-1
 1811 479 l 1,138,-1
 1811 435 l 1,139,-1
 1605 435 l 1,140,-1
 1605 241 l 1,141,142
 1621 255 1621 255 1641 263 c 0,143,144
 1662 270 1662 270 1685 270 c 0,145,146
 1755 270 1755 270 1804 218 c 0,147,148
 1853 165 1853 165 1853 91 c 0,149,150
 1853 -53 1853 -53 1717 -155 c 256,151,152
 1581 -257 1581 -257 1388 -257 c 0,153,154
 1162 -257 1162 -257 1003 -126 c 0,155,156
 843 4 843 4 843 189 c 1,157,-1
 843 189 l 1,78,79
EndSplineSet
EndChar

StartChar: NYEE
Encoding: 57928 57928 64
Width: 1758
GlyphClass: 1
Flags: W
LayerCount: 2
Fore
SplineSet
423 746 m 1,0,1
 519 746 519 746 576 701 c 0,2,3
 634 656 634 656 634 582 c 0,4,5
 634 535 634 535 592 501 c 0,6,7
 550 468 550 468 491 468 c 0,8,9
 431 468 431 468 388 501 c 0,10,11
 345 535 345 535 345 582 c 0,12,13
 345 620 345 620 372 651 c 0,14,15
 398 682 398 682 441 694 c 1,16,17
 434 696 434 696 423 696 c 0,18,19
 289 696 289 696 194 599 c 256,20,21
 99 502 99 502 99 364 c 0,22,23
 99 229 99 229 194 133 c 256,24,25
 289 37 289 37 423 37 c 0,26,27
 432 37 432 37 435 38 c 1,28,29
 395 49 395 49 370 79 c 256,30,31
 345 109 345 109 345 145 c 0,32,33
 345 195 345 195 388 231 c 0,34,35
 431 266 431 266 491 266 c 0,36,37
 550 266 550 266 592 231 c 0,38,39
 634 195 634 195 634 145 c 0,40,41
 634 73 634 73 576 30 c 0,42,43
 519 -13 519 -13 423 -13 c 0,44,45
 266 -13 266 -13 155 97 c 256,46,47
 44 207 44 207 44 363 c 0,48,49
 44 522 44 522 155 634 c 256,50,51
 266 746 266 746 423 746 c 1,52,-1
 423 746 l 1,0,1
400 582 m 1,53,54
 400 555 400 555 427 537 c 0,55,56
 453 518 453 518 491 518 c 0,57,58
 527 518 527 518 553 537 c 0,59,60
 579 555 579 555 579 582 c 0,61,62
 579 612 579 612 553 633 c 256,63,64
 527 654 527 654 491 654 c 0,65,66
 453 654 453 654 427 633 c 0,67,68
 400 612 400 612 400 582 c 1,69,-1
 400 582 l 1,53,54
400 145 m 1,70,71
 400 115 400 115 427 94 c 0,72,73
 453 73 453 73 491 73 c 0,74,75
 527 73 527 73 553 94 c 256,76,77
 579 115 579 115 579 145 c 0,78,79
 579 174 579 174 553 195 c 256,80,81
 527 216 527 216 491 216 c 0,82,83
 453 216 453 216 427 195 c 0,84,85
 400 174 400 174 400 145 c 1,86,-1
 400 145 l 1,70,71
1033 133 m 1,87,88
 1033 94 1033 94 1060 67 c 0,89,90
 1086 39 1086 39 1124 39 c 0,91,92
 1160 39 1160 39 1186 67 c 0,93,94
 1212 94 1212 94 1212 133 c 256,95,96
 1212 172 1212 172 1186 199 c 0,97,98
 1160 227 1160 227 1124 227 c 0,99,100
 1086 227 1086 227 1060 199 c 0,101,102
 1033 172 1033 172 1033 133 c 1,103,-1
 1033 133 l 1,87,88
712 189 m 1,104,105
 712 264 712 264 742 332 c 0,106,107
 772 401 772 401 827 450 c 1,108,-1
 871 417 l 1,109,110
 822 379 822 379 794 318 c 0,111,112
 767 258 767 258 767 189 c 0,113,114
 767 25 767 25 911 -91 c 0,115,116
 1054 -207 1054 -207 1257 -207 c 0,117,118
 1427 -207 1427 -207 1547 -120 c 0,119,120
 1667 -32 1667 -32 1667 91 c 0,121,122
 1667 144 1667 144 1634 182 c 256,123,124
 1601 220 1601 220 1554 220 c 0,125,126
 1521 220 1521 220 1497 200 c 0,127,128
 1474 180 1474 180 1474 151 c 2,129,-1
 1474 0 l 1,130,-1
 1414 0 l 1,131,-1
 1414 435 l 1,132,-1
 1186 435 l 2,133,134
 1078 435 1078 435 1002 366 c 0,135,136
 926 298 926 298 926 201 c 0,137,138
 926 151 926 151 947 111 c 0,139,140
 968 72 968 72 1004 56 c 1,141,142
 978 92 978 92 978 132 c 0,143,144
 978 192 978 192 1021 235 c 0,145,146
 1064 277 1064 277 1124 277 c 0,147,148
 1183 277 1183 277 1225 235 c 0,149,150
 1267 192 1267 192 1267 132 c 0,151,152
 1267 73 1267 73 1225 31 c 256,153,154
 1183 -11 1183 -11 1124 -11 c 0,155,156
 1009 -11 1009 -11 940 47 c 256,157,158
 871 105 871 105 871 201 c 0,159,160
 871 316 871 316 963 398 c 0,161,162
 1056 479 1056 479 1186 479 c 2,163,-1
 1680 479 l 1,164,-1
 1680 435 l 1,165,-1
 1474 435 l 1,166,-1
 1474 241 l 1,167,168
 1490 255 1490 255 1510 263 c 0,169,170
 1531 270 1531 270 1554 270 c 0,171,172
 1624 270 1624 270 1673 218 c 0,173,174
 1722 165 1722 165 1722 91 c 0,175,176
 1722 -53 1722 -53 1586 -155 c 256,177,178
 1450 -257 1450 -257 1257 -257 c 0,179,180
 1031 -257 1031 -257 872 -126 c 0,181,182
 712 4 712 4 712 189 c 1,183,-1
 712 189 l 1,104,105
EndSplineSet
EndChar

StartChar: NYAI
Encoding: 57929 57929 65
Width: 2069
GlyphClass: 1
Flags: W
LayerCount: 2
Fore
SplineSet
185 121 m 1,0,1
 185 87 185 87 210 63 c 256,2,3
 235 39 235 39 270 39 c 256,4,5
 305 39 305 39 329 63 c 0,6,7
 354 87 354 87 354 121 c 0,8,9
 354 157 354 157 329 183 c 0,10,11
 305 209 305 209 270 209 c 256,12,13
 235 209 235 209 210 183 c 256,14,15
 185 157 185 157 185 121 c 1,16,-1
 185 121 l 1,0,1
507 156 m 1,17,18
 507 108 507 108 524 73 c 0,19,20
 542 39 542 39 566 39 c 256,21,22
 590 39 590 39 606 73 c 0,23,24
 623 108 623 108 623 156 c 0,25,26
 623 224 623 224 608 275 c 0,27,28
 593 327 593 327 566 353 c 1,29,30
 507 272 507 272 507 156 c 1,31,-1
 507 156 l 1,17,18
41 189 m 1,32,33
 41 316 41 316 136 406 c 0,34,35
 230 496 230 496 364 496 c 0,36,37
 422 496 422 496 475 477 c 0,38,39
 527 458 527 458 566 423 c 1,40,41
 605 458 605 458 644 477 c 0,42,43
 684 496 684 496 718 496 c 0,44,45
 804 496 804 496 864 421 c 0,46,47
 925 346 925 346 925 240 c 0,48,49
 925 164 925 164 890 97 c 256,50,51
 855 30 855 30 794 -11 c 1,52,-1
 755 33 l 1,53,54
 809 67 809 67 839 122 c 0,55,56
 870 177 870 177 870 240 c 0,57,58
 870 325 870 325 825 386 c 0,59,60
 781 446 781 446 718 446 c 0,61,62
 691 446 691 446 661 431 c 256,63,64
 631 416 631 416 603 389 c 1,65,66
 639 349 639 349 659 289 c 0,67,68
 678 228 678 228 678 156 c 0,69,70
 678 87 678 87 645 38 c 256,71,72
 612 -11 612 -11 566 -11 c 0,73,74
 519 -11 519 -11 485 38 c 0,75,76
 452 87 452 87 452 156 c 0,77,78
 452 228 452 228 472 288 c 0,79,80
 491 348 491 348 528 389 c 1,81,82
 500 416 500 416 457 431 c 0,83,84
 415 446 415 446 364 446 c 0,85,86
 253 446 253 446 174 371 c 0,87,88
 96 295 96 295 96 189 c 0,89,90
 96 149 96 149 111 116 c 0,91,92
 125 84 125 84 151 68 c 1,93,94
 141 82 141 82 135 96 c 0,95,96
 130 109 130 109 130 121 c 0,97,98
 130 178 130 178 171 219 c 0,99,100
 212 259 212 259 270 259 c 256,101,102
 328 259 328 259 368 219 c 0,103,104
 409 178 409 178 409 121 c 0,105,106
 409 66 409 66 366 28 c 0,107,108
 323 -11 323 -11 262 -11 c 0,109,110
 170 -11 170 -11 106 48 c 0,111,112
 41 106 41 106 41 189 c 1,113,-1
 41 189 l 1,32,33
1344 133 m 1,114,115
 1344 94 1344 94 1371 67 c 0,116,117
 1397 39 1397 39 1435 39 c 0,118,119
 1471 39 1471 39 1497 67 c 0,120,121
 1523 94 1523 94 1523 133 c 256,122,123
 1523 172 1523 172 1497 199 c 0,124,125
 1471 227 1471 227 1435 227 c 0,126,127
 1397 227 1397 227 1371 199 c 0,128,129
 1344 172 1344 172 1344 133 c 1,130,-1
 1344 133 l 1,114,115
1023 189 m 1,131,132
 1023 264 1023 264 1053 332 c 0,133,134
 1083 401 1083 401 1138 450 c 1,135,-1
 1182 417 l 1,136,137
 1133 379 1133 379 1105 318 c 0,138,139
 1078 258 1078 258 1078 189 c 0,140,141
 1078 25 1078 25 1222 -91 c 0,142,143
 1365 -207 1365 -207 1568 -207 c 0,144,145
 1738 -207 1738 -207 1858 -120 c 0,146,147
 1978 -32 1978 -32 1978 91 c 0,148,149
 1978 144 1978 144 1945 182 c 256,150,151
 1912 220 1912 220 1865 220 c 0,152,153
 1832 220 1832 220 1808 200 c 0,154,155
 1785 180 1785 180 1785 151 c 2,156,-1
 1785 0 l 1,157,-1
 1725 0 l 1,158,-1
 1725 435 l 1,159,-1
 1497 435 l 2,160,161
 1389 435 1389 435 1313 366 c 0,162,163
 1237 298 1237 298 1237 201 c 0,164,165
 1237 151 1237 151 1258 111 c 0,166,167
 1279 72 1279 72 1315 56 c 1,168,169
 1289 92 1289 92 1289 132 c 0,170,171
 1289 192 1289 192 1332 235 c 0,172,173
 1375 277 1375 277 1435 277 c 0,174,175
 1494 277 1494 277 1536 235 c 0,176,177
 1578 192 1578 192 1578 132 c 0,178,179
 1578 73 1578 73 1536 31 c 256,180,181
 1494 -11 1494 -11 1435 -11 c 0,182,183
 1320 -11 1320 -11 1251 47 c 256,184,185
 1182 105 1182 105 1182 201 c 0,186,187
 1182 316 1182 316 1274 398 c 0,188,189
 1367 479 1367 479 1497 479 c 2,190,-1
 1991 479 l 1,191,-1
 1991 435 l 1,192,-1
 1785 435 l 1,193,-1
 1785 241 l 1,194,195
 1801 255 1801 255 1821 263 c 0,196,197
 1842 270 1842 270 1865 270 c 0,198,199
 1935 270 1935 270 1984 218 c 0,200,201
 2033 165 2033 165 2033 91 c 0,202,203
 2033 -53 2033 -53 1897 -155 c 256,204,205
 1761 -257 1761 -257 1568 -257 c 0,206,207
 1342 -257 1342 -257 1183 -126 c 0,208,209
 1023 4 1023 4 1023 189 c 1,210,-1
 1023 189 l 1,131,132
EndSplineSet
EndChar

StartChar: NYO
Encoding: 57930 57930 66
Width: 2426
GlyphClass: 1
Flags: W
LayerCount: 2
Fore
SplineSet
286 150 m 1,0,1
 286 104 286 104 316 72 c 0,2,3
 346 39 346 39 388 39 c 256,4,5
 430 39 430 39 459 72 c 0,6,7
 489 104 489 104 489 150 c 0,8,9
 489 198 489 198 459 232 c 0,10,11
 430 266 430 266 388 266 c 256,12,13
 346 266 346 266 316 232 c 256,14,15
 286 198 286 198 286 150 c 1,16,-1
 286 150 l 1,0,1
47 364 m 1,17,18
 47 522 47 522 144 634 c 256,19,20
 241 746 241 746 378 746 c 0,21,22
 517 746 517 746 616 634 c 0,23,24
 714 521 714 521 714 362 c 2,25,-1
 714 0 l 1,26,-1
 654 0 l 1,27,-1
 654 362 l 2,28,29
 654 500 654 500 573 598 c 256,30,31
 492 696 492 696 378 696 c 256,32,33
 264 696 264 696 183 598 c 256,34,35
 102 500 102 500 102 362 c 0,36,37
 102 252 102 252 146 169 c 0,38,39
 191 86 191 86 263 60 c 1,40,41
 248 75 248 75 239 99 c 0,42,43
 231 122 231 122 231 151 c 0,44,45
 231 219 231 219 277 268 c 0,46,47
 323 316 323 316 388 316 c 256,48,49
 453 316 453 316 498 268 c 0,50,51
 544 219 544 219 544 151 c 0,52,53
 544 68 544 68 497 26 c 256,54,55
 450 -16 450 -16 357 -16 c 0,56,57
 229 -16 229 -16 138 95 c 0,58,59
 47 207 47 207 47 364 c 1,60,-1
 47 364 l 1,17,18
1164 133 m 1,61,62
 1164 94 1164 94 1191 67 c 0,63,64
 1217 39 1217 39 1255 39 c 0,65,66
 1291 39 1291 39 1317 67 c 0,67,68
 1343 94 1343 94 1343 133 c 256,69,70
 1343 172 1343 172 1317 199 c 0,71,72
 1291 227 1291 227 1255 227 c 0,73,74
 1217 227 1217 227 1191 199 c 0,75,76
 1164 172 1164 172 1164 133 c 1,77,-1
 1164 133 l 1,61,62
843 189 m 1,78,79
 843 264 843 264 873 332 c 0,80,81
 903 401 903 401 958 450 c 1,82,-1
 1002 417 l 1,83,84
 953 379 953 379 925 318 c 0,85,86
 898 258 898 258 898 189 c 0,87,88
 898 25 898 25 1042 -91 c 0,89,90
 1185 -207 1185 -207 1388 -207 c 0,91,92
 1558 -207 1558 -207 1678 -120 c 0,93,94
 1798 -32 1798 -32 1798 91 c 0,95,96
 1798 144 1798 144 1765 182 c 256,97,98
 1732 220 1732 220 1685 220 c 0,99,100
 1652 220 1652 220 1628 200 c 0,101,102
 1605 180 1605 180 1605 151 c 2,103,-1
 1605 0 l 1,104,-1
 1545 0 l 1,105,-1
 1545 435 l 1,106,-1
 1317 435 l 2,107,108
 1209 435 1209 435 1133 366 c 0,109,110
 1057 298 1057 298 1057 201 c 0,111,112
 1057 151 1057 151 1078 111 c 0,113,114
 1099 72 1099 72 1135 56 c 1,115,116
 1109 92 1109 92 1109 132 c 0,117,118
 1109 192 1109 192 1152 235 c 0,119,120
 1195 277 1195 277 1255 277 c 0,121,122
 1314 277 1314 277 1356 235 c 0,123,124
 1398 192 1398 192 1398 132 c 0,125,126
 1398 73 1398 73 1356 31 c 256,127,128
 1314 -11 1314 -11 1255 -11 c 0,129,130
 1140 -11 1140 -11 1071 47 c 256,131,132
 1002 105 1002 105 1002 201 c 0,133,134
 1002 316 1002 316 1094 398 c 0,135,136
 1187 479 1187 479 1317 479 c 2,137,-1
 1811 479 l 1,138,-1
 1811 435 l 1,139,-1
 1605 435 l 1,140,-1
 1605 241 l 1,141,142
 1621 255 1621 255 1641 263 c 0,143,144
 1662 270 1662 270 1685 270 c 0,145,146
 1755 270 1755 270 1804 218 c 0,147,148
 1853 165 1853 165 1853 91 c 0,149,150
 1853 -53 1853 -53 1717 -155 c 256,151,152
 1581 -257 1581 -257 1388 -257 c 0,153,154
 1162 -257 1162 -257 1003 -126 c 0,155,156
 843 4 843 4 843 189 c 1,157,-1
 843 189 l 1,78,79
1969 479 m 1,158,-1
 2418 479 l 1,159,-1
 2418 435 l 1,160,-1
 2269 435 l 1,161,-1
 2269 0 l 1,162,-1
 2209 0 l 1,163,-1
 2209 435 l 1,164,-1
 2029 435 l 1,165,-1
 2029 0 l 1,166,-1
 1969 0 l 1,167,-1
 1969 479 l 1,168,-1
 1969 479 l 1,158,-1
EndSplineSet
EndChar

StartChar: NYOO
Encoding: 57931 57931 67
Width: 2295
GlyphClass: 1
Flags: W
LayerCount: 2
Fore
SplineSet
423 746 m 1,0,1
 519 746 519 746 576 701 c 0,2,3
 634 656 634 656 634 582 c 0,4,5
 634 535 634 535 592 501 c 0,6,7
 550 468 550 468 491 468 c 0,8,9
 431 468 431 468 388 501 c 0,10,11
 345 535 345 535 345 582 c 0,12,13
 345 620 345 620 372 651 c 0,14,15
 398 682 398 682 441 694 c 1,16,17
 434 696 434 696 423 696 c 0,18,19
 289 696 289 696 194 599 c 256,20,21
 99 502 99 502 99 364 c 0,22,23
 99 229 99 229 194 133 c 256,24,25
 289 37 289 37 423 37 c 0,26,27
 432 37 432 37 435 38 c 1,28,29
 395 49 395 49 370 79 c 256,30,31
 345 109 345 109 345 145 c 0,32,33
 345 195 345 195 388 231 c 0,34,35
 431 266 431 266 491 266 c 0,36,37
 550 266 550 266 592 231 c 0,38,39
 634 195 634 195 634 145 c 0,40,41
 634 73 634 73 576 30 c 0,42,43
 519 -13 519 -13 423 -13 c 0,44,45
 266 -13 266 -13 155 97 c 256,46,47
 44 207 44 207 44 363 c 0,48,49
 44 522 44 522 155 634 c 256,50,51
 266 746 266 746 423 746 c 1,52,-1
 423 746 l 1,0,1
400 582 m 1,53,54
 400 555 400 555 427 537 c 0,55,56
 453 518 453 518 491 518 c 0,57,58
 527 518 527 518 553 537 c 0,59,60
 579 555 579 555 579 582 c 0,61,62
 579 612 579 612 553 633 c 256,63,64
 527 654 527 654 491 654 c 0,65,66
 453 654 453 654 427 633 c 0,67,68
 400 612 400 612 400 582 c 1,69,-1
 400 582 l 1,53,54
400 145 m 1,70,71
 400 115 400 115 427 94 c 0,72,73
 453 73 453 73 491 73 c 0,74,75
 527 73 527 73 553 94 c 256,76,77
 579 115 579 115 579 145 c 0,78,79
 579 174 579 174 553 195 c 256,80,81
 527 216 527 216 491 216 c 0,82,83
 453 216 453 216 427 195 c 0,84,85
 400 174 400 174 400 145 c 1,86,-1
 400 145 l 1,70,71
1033 133 m 1,87,88
 1033 94 1033 94 1060 67 c 0,89,90
 1086 39 1086 39 1124 39 c 0,91,92
 1160 39 1160 39 1186 67 c 0,93,94
 1212 94 1212 94 1212 133 c 256,95,96
 1212 172 1212 172 1186 199 c 0,97,98
 1160 227 1160 227 1124 227 c 0,99,100
 1086 227 1086 227 1060 199 c 0,101,102
 1033 172 1033 172 1033 133 c 1,103,-1
 1033 133 l 1,87,88
712 189 m 1,104,105
 712 264 712 264 742 332 c 0,106,107
 772 401 772 401 827 450 c 1,108,-1
 871 417 l 1,109,110
 822 379 822 379 794 318 c 0,111,112
 767 258 767 258 767 189 c 0,113,114
 767 25 767 25 911 -91 c 0,115,116
 1054 -207 1054 -207 1257 -207 c 0,117,118
 1427 -207 1427 -207 1547 -120 c 0,119,120
 1667 -32 1667 -32 1667 91 c 0,121,122
 1667 144 1667 144 1634 182 c 256,123,124
 1601 220 1601 220 1554 220 c 0,125,126
 1521 220 1521 220 1497 200 c 0,127,128
 1474 180 1474 180 1474 151 c 2,129,-1
 1474 0 l 1,130,-1
 1414 0 l 1,131,-1
 1414 435 l 1,132,-1
 1186 435 l 2,133,134
 1078 435 1078 435 1002 366 c 0,135,136
 926 298 926 298 926 201 c 0,137,138
 926 151 926 151 947 111 c 0,139,140
 968 72 968 72 1004 56 c 1,141,142
 978 92 978 92 978 132 c 0,143,144
 978 192 978 192 1021 235 c 0,145,146
 1064 277 1064 277 1124 277 c 0,147,148
 1183 277 1183 277 1225 235 c 0,149,150
 1267 192 1267 192 1267 132 c 0,151,152
 1267 73 1267 73 1225 31 c 256,153,154
 1183 -11 1183 -11 1124 -11 c 0,155,156
 1009 -11 1009 -11 940 47 c 256,157,158
 871 105 871 105 871 201 c 0,159,160
 871 316 871 316 963 398 c 0,161,162
 1056 479 1056 479 1186 479 c 2,163,-1
 1680 479 l 1,164,-1
 1680 435 l 1,165,-1
 1474 435 l 1,166,-1
 1474 241 l 1,167,168
 1490 255 1490 255 1510 263 c 0,169,170
 1531 270 1531 270 1554 270 c 0,171,172
 1624 270 1624 270 1673 218 c 0,173,174
 1722 165 1722 165 1722 91 c 0,175,176
 1722 -53 1722 -53 1586 -155 c 256,177,178
 1450 -257 1450 -257 1257 -257 c 0,179,180
 1031 -257 1031 -257 872 -126 c 0,181,182
 712 4 712 4 712 189 c 1,183,-1
 712 189 l 1,104,105
1838 479 m 1,184,-1
 2287 479 l 1,185,-1
 2287 435 l 1,186,-1
 2138 435 l 1,187,-1
 2138 0 l 1,188,-1
 2078 0 l 1,189,-1
 2078 435 l 1,190,-1
 1898 435 l 1,191,-1
 1898 0 l 1,192,-1
 1838 0 l 1,193,-1
 1838 479 l 1,194,-1
 1838 479 l 1,184,-1
EndSplineSet
EndChar

StartChar: NYAU
Encoding: 57932 57932 68
Width: 2826
GlyphClass: 1
Flags: W
LayerCount: 2
Fore
SplineSet
286 150 m 1,0,1
 286 104 286 104 316 72 c 0,2,3
 346 39 346 39 388 39 c 256,4,5
 430 39 430 39 459 72 c 0,6,7
 489 104 489 104 489 150 c 0,8,9
 489 198 489 198 459 232 c 0,10,11
 430 266 430 266 388 266 c 256,12,13
 346 266 346 266 316 232 c 256,14,15
 286 198 286 198 286 150 c 1,16,-1
 286 150 l 1,0,1
47 364 m 1,17,18
 47 522 47 522 144 634 c 256,19,20
 241 746 241 746 378 746 c 0,21,22
 517 746 517 746 616 634 c 0,23,24
 714 521 714 521 714 362 c 2,25,-1
 714 0 l 1,26,-1
 654 0 l 1,27,-1
 654 362 l 2,28,29
 654 500 654 500 573 598 c 256,30,31
 492 696 492 696 378 696 c 256,32,33
 264 696 264 696 183 598 c 256,34,35
 102 500 102 500 102 362 c 0,36,37
 102 252 102 252 146 169 c 0,38,39
 191 86 191 86 263 60 c 1,40,41
 248 75 248 75 239 99 c 0,42,43
 231 122 231 122 231 151 c 0,44,45
 231 219 231 219 277 268 c 0,46,47
 323 316 323 316 388 316 c 256,48,49
 453 316 453 316 498 268 c 0,50,51
 544 219 544 219 544 151 c 0,52,53
 544 68 544 68 497 26 c 256,54,55
 450 -16 450 -16 357 -16 c 0,56,57
 229 -16 229 -16 138 95 c 0,58,59
 47 207 47 207 47 364 c 1,60,-1
 47 364 l 1,17,18
1164 133 m 1,61,62
 1164 94 1164 94 1191 67 c 0,63,64
 1217 39 1217 39 1255 39 c 0,65,66
 1291 39 1291 39 1317 67 c 0,67,68
 1343 94 1343 94 1343 133 c 256,69,70
 1343 172 1343 172 1317 199 c 0,71,72
 1291 227 1291 227 1255 227 c 0,73,74
 1217 227 1217 227 1191 199 c 0,75,76
 1164 172 1164 172 1164 133 c 1,77,-1
 1164 133 l 1,61,62
843 189 m 1,78,79
 843 264 843 264 873 332 c 0,80,81
 903 401 903 401 958 450 c 1,82,-1
 1002 417 l 1,83,84
 953 379 953 379 925 318 c 0,85,86
 898 258 898 258 898 189 c 0,87,88
 898 25 898 25 1042 -91 c 0,89,90
 1185 -207 1185 -207 1388 -207 c 0,91,92
 1558 -207 1558 -207 1678 -120 c 0,93,94
 1798 -32 1798 -32 1798 91 c 0,95,96
 1798 144 1798 144 1765 182 c 256,97,98
 1732 220 1732 220 1685 220 c 0,99,100
 1652 220 1652 220 1628 200 c 0,101,102
 1605 180 1605 180 1605 151 c 2,103,-1
 1605 0 l 1,104,-1
 1545 0 l 1,105,-1
 1545 435 l 1,106,-1
 1317 435 l 2,107,108
 1209 435 1209 435 1133 366 c 0,109,110
 1057 298 1057 298 1057 201 c 0,111,112
 1057 151 1057 151 1078 111 c 0,113,114
 1099 72 1099 72 1135 56 c 1,115,116
 1109 92 1109 92 1109 132 c 0,117,118
 1109 192 1109 192 1152 235 c 0,119,120
 1195 277 1195 277 1255 277 c 0,121,122
 1314 277 1314 277 1356 235 c 0,123,124
 1398 192 1398 192 1398 132 c 0,125,126
 1398 73 1398 73 1356 31 c 256,127,128
 1314 -11 1314 -11 1255 -11 c 0,129,130
 1140 -11 1140 -11 1071 47 c 256,131,132
 1002 105 1002 105 1002 201 c 0,133,134
 1002 316 1002 316 1094 398 c 0,135,136
 1187 479 1187 479 1317 479 c 2,137,-1
 1811 479 l 1,138,-1
 1811 435 l 1,139,-1
 1605 435 l 1,140,-1
 1605 241 l 1,141,142
 1621 255 1621 255 1641 263 c 0,143,144
 1662 270 1662 270 1685 270 c 0,145,146
 1755 270 1755 270 1804 218 c 0,147,148
 1853 165 1853 165 1853 91 c 0,149,150
 1853 -53 1853 -53 1717 -155 c 256,151,152
 1581 -257 1581 -257 1388 -257 c 0,153,154
 1162 -257 1162 -257 1003 -126 c 0,155,156
 843 4 843 4 843 189 c 1,157,-1
 843 189 l 1,78,79
2083 133 m 1,158,159
 2083 94 2083 94 2106 67 c 0,160,161
 2128 39 2128 39 2160 39 c 0,162,163
 2191 39 2191 39 2214 67 c 0,164,165
 2236 94 2236 94 2236 133 c 256,166,167
 2236 172 2236 172 2214 199 c 0,168,169
 2191 227 2191 227 2160 227 c 0,170,171
 2128 227 2128 227 2106 199 c 0,172,173
 2083 172 2083 172 2083 133 c 1,174,-1
 2083 133 l 1,158,159
2374 479 m 1,175,-1
 2818 479 l 1,176,-1
 2818 435 l 1,177,-1
 2676 435 l 1,178,-1
 2676 0 l 1,179,-1
 2616 0 l 1,180,-1
 2616 435 l 1,181,-1
 2434 435 l 1,182,-1
 2434 0 l 1,183,-1
 2374 0 l 1,184,-1
 2374 240 l 2,185,186
 2374 325 2374 325 2315 386 c 0,187,188
 2257 446 2257 446 2174 446 c 0,189,190
 2097 446 2097 446 2042 382 c 0,191,192
 1988 318 1988 318 1988 227 c 0,193,194
 1988 171 1988 171 2004 130 c 0,195,196
 2019 88 2019 88 2047 71 c 1,197,198
 2028 97 2028 97 2028 133 c 0,199,200
 2028 193 2028 193 2067 235 c 0,201,202
 2105 277 2105 277 2160 277 c 0,203,204
 2214 277 2214 277 2253 235 c 0,205,206
 2291 193 2291 193 2291 133 c 256,207,208
 2291 73 2291 73 2252 31 c 256,209,210
 2213 -11 2213 -11 2157 -11 c 0,211,212
 2064 -11 2064 -11 1999 59 c 0,213,214
 1933 128 1933 128 1933 227 c 0,215,216
 1933 338 1933 338 2004 417 c 0,217,218
 2074 496 2074 496 2174 496 c 0,219,220
 2237 496 2237 496 2290 466 c 0,221,222
 2344 435 2344 435 2374 383 c 1,223,-1
 2374 479 l 1,224,-1
 2374 479 l 1,175,-1
EndSplineSet
EndChar

StartChar: TT
Encoding: 57936 57936 69
Width: 822
GlyphClass: 1
Flags: W
LayerCount: 2
Fore
SplineSet
80 0 m 1,0,-1
 80 479 l 1,1,-1
 140 479 l 1,2,-1
 140 45 l 1,3,-1
 814 45 l 1,4,-1
 814 0 l 1,5,-1
 80 0 l 1,6,-1
 80 0 l 1,0,-1
348 589 m 1,7,8
 348 609 348 609 366 623 c 0,9,10
 385 637 385 637 411 637 c 0,11,12
 438 637 438 637 456 623 c 0,13,14
 475 609 475 609 475 589 c 0,15,16
 475 570 475 570 456 556 c 0,17,18
 438 542 438 542 411 542 c 0,19,20
 385 542 385 542 366 556 c 0,21,22
 348 570 348 570 348 589 c 1,23,-1
 348 589 l 1,7,8
EndSplineSet
EndChar

StartChar: TTA
Encoding: 57937 57937 70
Width: 822
GlyphClass: 1
Flags: W
LayerCount: 2
Fore
SplineSet
80 0 m 1,0,-1
 80 479 l 1,1,-1
 140 479 l 1,2,-1
 140 45 l 1,3,-1
 814 45 l 1,4,-1
 814 0 l 1,5,-1
 80 0 l 1,6,-1
 80 0 l 1,0,-1
EndSplineSet
EndChar

StartChar: TTAA
Encoding: 57938 57938 71
Width: 1359
GlyphClass: 1
Flags: W
LayerCount: 2
Fore
SplineSet
80 0 m 1,0,-1
 80 479 l 1,1,-1
 140 479 l 1,2,-1
 140 45 l 1,3,-1
 814 45 l 1,4,-1
 814 0 l 1,5,-1
 80 0 l 1,6,-1
 80 0 l 1,0,-1
902 479 m 1,7,-1
 1351 479 l 1,8,-1
 1351 435 l 1,9,-1
 1202 435 l 1,10,-1
 1202 0 l 1,11,-1
 1142 0 l 1,12,-1
 1142 435 l 1,13,-1
 962 435 l 1,14,-1
 962 0 l 1,15,-1
 902 0 l 1,16,-1
 902 479 l 1,17,-1
 902 479 l 1,7,-1
EndSplineSet
EndChar

StartChar: TTI
Encoding: 57939 57939 72
Width: 822
GlyphClass: 1
Flags: W
LayerCount: 2
Fore
SplineSet
80 0 m 1,0,-1
 80 479 l 1,1,-1
 140 479 l 1,2,-1
 140 45 l 1,3,-1
 358 45 l 1,4,5
 312 68 312 68 284 117 c 0,6,7
 257 166 257 166 257 227 c 0,8,9
 257 290 257 290 302 334 c 0,10,11
 346 378 346 378 409 378 c 0,12,13
 470 378 470 378 514 334 c 0,14,15
 557 290 557 290 557 227 c 2,16,-1
 557 45 l 1,17,-1
 814 45 l 1,18,-1
 814 0 l 1,19,-1
 557 0 l 1,20,-1
 557 -229 l 1,21,-1
 497 -229 l 1,22,-1
 497 0 l 1,23,-1
 80 0 l 1,24,-1
 80 0 l 1,0,-1
312 227 m 1,25,26
 312 158 312 158 354 106 c 256,27,28
 396 54 396 54 460 45 c 1,29,-1
 497 45 l 1,30,-1
 497 227 l 2,31,32
 497 269 497 269 471 298 c 0,33,34
 445 328 445 328 409 328 c 0,35,36
 369 328 369 328 340 298 c 0,37,38
 312 269 312 269 312 227 c 1,39,-1
 312 227 l 1,25,26
EndSplineSet
EndChar

StartChar: TTII
Encoding: 57940 57940 73
Width: 822
GlyphClass: 1
Flags: W
LayerCount: 2
Fore
SplineSet
425 240 m 1,0,1
 425 209 425 209 450 187 c 256,2,3
 475 165 475 165 510 165 c 0,4,5
 541 165 541 165 564 187 c 0,6,7
 586 209 586 209 586 240 c 256,8,9
 586 271 586 271 564 294 c 0,10,11
 541 316 541 316 510 316 c 0,12,13
 475 316 475 316 450 294 c 0,14,15
 425 271 425 271 425 240 c 1,16,-1
 425 240 l 1,0,1
80 0 m 1,17,-1
 80 479 l 1,18,-1
 140 479 l 1,19,-1
 140 45 l 1,20,-1
 345 45 l 1,21,22
 304 73 304 73 280 114 c 0,23,24
 257 156 257 156 257 201 c 0,25,26
 257 279 257 279 316 334 c 0,27,28
 376 389 376 389 460 389 c 0,29,30
 535 389 535 389 588 345 c 0,31,32
 641 302 641 302 641 240 c 0,33,34
 641 188 641 188 603 152 c 0,35,36
 564 115 564 115 510 115 c 0,37,38
 452 115 452 115 411 152 c 0,39,40
 370 188 370 188 370 240 c 0,41,42
 370 265 370 265 387 290 c 256,43,44
 404 315 404 315 434 334 c 1,45,46
 386 341 386 341 349 301 c 0,47,48
 312 260 312 260 312 201 c 0,49,50
 312 144 312 144 358 99 c 0,51,52
 403 55 403 55 472 45 c 1,53,-1
 814 45 l 1,54,-1
 814 0 l 1,55,-1
 80 0 l 1,56,-1
 80 0 l 1,17,-1
EndSplineSet
EndChar

StartChar: TTU
Encoding: 57941 57941 74
Width: 917
GlyphClass: 1
Flags: W
LayerCount: 2
Fore
SplineSet
119 240 m 1,0,1
 119 63 119 63 204 -44 c 256,2,3
 289 -151 289 -151 431 -151 c 0,4,5
 537 -151 537 -151 600 -91 c 0,6,7
 664 -31 664 -31 664 68 c 0,8,9
 664 131 664 131 633 175 c 0,10,11
 601 220 601 220 557 220 c 0,12,13
 519 220 519 220 493 189 c 0,14,15
 466 158 466 158 466 115 c 2,16,-1
 466 0 l 1,17,-1
 406 0 l 1,18,-1
 406 479 l 1,19,-1
 466 479 l 1,20,-1
 466 233 l 1,21,22
 486 251 486 251 509 260 c 0,23,24
 533 270 533 270 557 270 c 0,25,26
 624 270 624 270 672 211 c 0,27,28
 719 152 719 152 719 68 c 0,29,30
 719 -54 719 -54 640 -128 c 0,31,32
 562 -201 562 -201 431 -201 c 0,33,34
 264 -201 264 -201 164 -81 c 0,35,36
 64 40 64 40 64 240 c 0,37,38
 64 436 64 436 171 555 c 0,39,40
 278 673 278 673 456 673 c 0,41,42
 633 673 633 673 739 555 c 0,43,44
 845 436 845 436 845 240 c 2,45,-1
 845 0 l 1,46,-1
 785 0 l 1,47,-1
 785 240 l 2,48,49
 785 414 785 414 695 518 c 0,50,51
 605 623 605 623 456 623 c 0,52,53
 303 623 303 623 211 518 c 0,54,55
 119 414 119 414 119 240 c 1,56,-1
 119 240 l 1,0,1
EndSplineSet
EndChar

StartChar: TTUU
Encoding: 57942 57942 75
Width: 782
GlyphClass: 1
Flags: W
LayerCount: 2
Fore
SplineSet
114 189 m 1,0,1
 114 50 114 50 200 -48 c 256,2,3
 286 -146 286 -146 408 -146 c 0,4,5
 514 -146 514 -146 577 -88 c 0,6,7
 641 -29 641 -29 641 68 c 0,8,9
 641 128 641 128 611 171 c 0,10,11
 582 214 582 214 540 214 c 0,12,13
 502 214 502 214 475 189 c 0,14,15
 448 163 448 163 448 127 c 2,16,-1
 448 0 l 1,17,-1
 388 0 l 1,18,-1
 388 479 l 1,19,-1
 448 479 l 1,20,-1
 448 223 l 1,21,22
 459 242 459 242 484 253 c 0,23,24
 508 264 508 264 540 264 c 0,25,26
 605 264 605 264 650 207 c 0,27,28
 696 149 696 149 696 68 c 0,29,30
 696 -52 696 -52 617 -124 c 0,31,32
 539 -196 539 -196 408 -196 c 0,33,34
 263 -196 263 -196 161 -83 c 256,35,36
 59 30 59 30 59 189 c 0,37,38
 59 395 59 395 185 541 c 256,39,40
 311 687 311 687 489 687 c 0,41,42
 606 687 606 687 689 631 c 256,43,44
 772 575 772 575 772 496 c 0,45,46
 772 448 772 448 732 414 c 0,47,48
 693 380 693 380 637 380 c 256,49,50
 581 380 581 380 542 414 c 0,51,52
 502 448 502 448 502 496 c 256,53,54
 502 544 502 544 535 578 c 256,55,56
 568 612 568 612 614 612 c 1,57,58
 596 624 596 624 564 631 c 0,59,60
 532 637 532 637 489 637 c 0,61,62
 334 637 334 637 224 506 c 256,63,64
 114 375 114 375 114 189 c 1,65,-1
 114 189 l 1,0,1
557 496 m 1,66,67
 557 469 557 469 580 449 c 0,68,69
 604 430 604 430 637 430 c 256,70,71
 670 430 670 430 694 449 c 0,72,73
 717 469 717 469 717 496 c 0,74,75
 717 527 717 527 694 550 c 0,76,77
 670 572 670 572 637 572 c 256,78,79
 604 572 604 572 580 550 c 0,80,81
 557 527 557 527 557 496 c 1,82,-1
 557 496 l 1,66,67
EndSplineSet
EndChar

StartChar: TTE
Encoding: 57943 57943 76
Width: 1615
GlyphClass: 1
Flags: W
LayerCount: 2
Fore
SplineSet
286 150 m 1,0,1
 286 104 286 104 316 72 c 0,2,3
 346 39 346 39 388 39 c 256,4,5
 430 39 430 39 459 72 c 0,6,7
 489 104 489 104 489 150 c 0,8,9
 489 198 489 198 459 232 c 0,10,11
 430 266 430 266 388 266 c 256,12,13
 346 266 346 266 316 232 c 256,14,15
 286 198 286 198 286 150 c 1,16,-1
 286 150 l 1,0,1
47 364 m 1,17,18
 47 522 47 522 144 634 c 256,19,20
 241 746 241 746 378 746 c 0,21,22
 517 746 517 746 616 634 c 0,23,24
 714 521 714 521 714 362 c 2,25,-1
 714 0 l 1,26,-1
 654 0 l 1,27,-1
 654 362 l 2,28,29
 654 500 654 500 573 598 c 256,30,31
 492 696 492 696 378 696 c 256,32,33
 264 696 264 696 183 598 c 256,34,35
 102 500 102 500 102 362 c 0,36,37
 102 252 102 252 146 169 c 0,38,39
 191 86 191 86 263 60 c 1,40,41
 248 75 248 75 239 99 c 0,42,43
 231 122 231 122 231 151 c 0,44,45
 231 219 231 219 277 268 c 0,46,47
 323 316 323 316 388 316 c 256,48,49
 453 316 453 316 498 268 c 0,50,51
 544 219 544 219 544 151 c 0,52,53
 544 68 544 68 497 26 c 256,54,55
 450 -16 450 -16 357 -16 c 0,56,57
 229 -16 229 -16 138 95 c 0,58,59
 47 207 47 207 47 364 c 1,60,-1
 47 364 l 1,17,18
873 0 m 1,61,-1
 873 479 l 1,62,-1
 933 479 l 1,63,-1
 933 45 l 1,64,-1
 1607 45 l 1,65,-1
 1607 0 l 1,66,-1
 873 0 l 1,67,-1
 873 0 l 1,61,-1
EndSplineSet
EndChar

StartChar: TTEE
Encoding: 57944 57944 77
Width: 1484
GlyphClass: 1
Flags: W
LayerCount: 2
Fore
SplineSet
423 746 m 1,0,1
 519 746 519 746 576 701 c 0,2,3
 634 656 634 656 634 582 c 0,4,5
 634 535 634 535 592 501 c 0,6,7
 550 468 550 468 491 468 c 0,8,9
 431 468 431 468 388 501 c 0,10,11
 345 535 345 535 345 582 c 0,12,13
 345 620 345 620 372 651 c 0,14,15
 398 682 398 682 441 694 c 1,16,17
 434 696 434 696 423 696 c 0,18,19
 289 696 289 696 194 599 c 256,20,21
 99 502 99 502 99 364 c 0,22,23
 99 229 99 229 194 133 c 256,24,25
 289 37 289 37 423 37 c 0,26,27
 432 37 432 37 435 38 c 1,28,29
 395 49 395 49 370 79 c 256,30,31
 345 109 345 109 345 145 c 0,32,33
 345 195 345 195 388 231 c 0,34,35
 431 266 431 266 491 266 c 0,36,37
 550 266 550 266 592 231 c 0,38,39
 634 195 634 195 634 145 c 0,40,41
 634 73 634 73 576 30 c 0,42,43
 519 -13 519 -13 423 -13 c 0,44,45
 266 -13 266 -13 155 97 c 256,46,47
 44 207 44 207 44 363 c 0,48,49
 44 522 44 522 155 634 c 256,50,51
 266 746 266 746 423 746 c 1,52,-1
 423 746 l 1,0,1
400 582 m 1,53,54
 400 555 400 555 427 537 c 0,55,56
 453 518 453 518 491 518 c 0,57,58
 527 518 527 518 553 537 c 0,59,60
 579 555 579 555 579 582 c 0,61,62
 579 612 579 612 553 633 c 256,63,64
 527 654 527 654 491 654 c 0,65,66
 453 654 453 654 427 633 c 0,67,68
 400 612 400 612 400 582 c 1,69,-1
 400 582 l 1,53,54
400 145 m 1,70,71
 400 115 400 115 427 94 c 0,72,73
 453 73 453 73 491 73 c 0,74,75
 527 73 527 73 553 94 c 256,76,77
 579 115 579 115 579 145 c 0,78,79
 579 174 579 174 553 195 c 256,80,81
 527 216 527 216 491 216 c 0,82,83
 453 216 453 216 427 195 c 0,84,85
 400 174 400 174 400 145 c 1,86,-1
 400 145 l 1,70,71
742 0 m 1,87,-1
 742 479 l 1,88,-1
 802 479 l 1,89,-1
 802 45 l 1,90,-1
 1476 45 l 1,91,-1
 1476 0 l 1,92,-1
 742 0 l 1,93,-1
 742 0 l 1,87,-1
EndSplineSet
EndChar

StartChar: TTAI
Encoding: 57945 57945 78
Width: 1795
GlyphClass: 1
Flags: W
LayerCount: 2
Fore
SplineSet
185 121 m 1,0,1
 185 87 185 87 210 63 c 256,2,3
 235 39 235 39 270 39 c 256,4,5
 305 39 305 39 329 63 c 0,6,7
 354 87 354 87 354 121 c 0,8,9
 354 157 354 157 329 183 c 0,10,11
 305 209 305 209 270 209 c 256,12,13
 235 209 235 209 210 183 c 256,14,15
 185 157 185 157 185 121 c 1,16,-1
 185 121 l 1,0,1
507 156 m 1,17,18
 507 108 507 108 524 73 c 0,19,20
 542 39 542 39 566 39 c 256,21,22
 590 39 590 39 606 73 c 0,23,24
 623 108 623 108 623 156 c 0,25,26
 623 224 623 224 608 275 c 0,27,28
 593 327 593 327 566 353 c 1,29,30
 507 272 507 272 507 156 c 1,31,-1
 507 156 l 1,17,18
41 189 m 1,32,33
 41 316 41 316 136 406 c 0,34,35
 230 496 230 496 364 496 c 0,36,37
 422 496 422 496 475 477 c 0,38,39
 527 458 527 458 566 423 c 1,40,41
 605 458 605 458 644 477 c 0,42,43
 684 496 684 496 718 496 c 0,44,45
 804 496 804 496 864 421 c 0,46,47
 925 346 925 346 925 240 c 0,48,49
 925 164 925 164 890 97 c 256,50,51
 855 30 855 30 794 -11 c 1,52,-1
 755 33 l 1,53,54
 809 67 809 67 839 122 c 0,55,56
 870 177 870 177 870 240 c 0,57,58
 870 325 870 325 825 386 c 0,59,60
 781 446 781 446 718 446 c 0,61,62
 691 446 691 446 661 431 c 256,63,64
 631 416 631 416 603 389 c 1,65,66
 639 349 639 349 659 289 c 0,67,68
 678 228 678 228 678 156 c 0,69,70
 678 87 678 87 645 38 c 256,71,72
 612 -11 612 -11 566 -11 c 0,73,74
 519 -11 519 -11 485 38 c 0,75,76
 452 87 452 87 452 156 c 0,77,78
 452 228 452 228 472 288 c 0,79,80
 491 348 491 348 528 389 c 1,81,82
 500 416 500 416 457 431 c 0,83,84
 415 446 415 446 364 446 c 0,85,86
 253 446 253 446 174 371 c 0,87,88
 96 295 96 295 96 189 c 0,89,90
 96 149 96 149 111 116 c 0,91,92
 125 84 125 84 151 68 c 1,93,94
 141 82 141 82 135 96 c 0,95,96
 130 109 130 109 130 121 c 0,97,98
 130 178 130 178 171 219 c 0,99,100
 212 259 212 259 270 259 c 256,101,102
 328 259 328 259 368 219 c 0,103,104
 409 178 409 178 409 121 c 0,105,106
 409 66 409 66 366 28 c 0,107,108
 323 -11 323 -11 262 -11 c 0,109,110
 170 -11 170 -11 106 48 c 0,111,112
 41 106 41 106 41 189 c 1,113,-1
 41 189 l 1,32,33
1053 0 m 1,114,-1
 1053 479 l 1,115,-1
 1113 479 l 1,116,-1
 1113 45 l 1,117,-1
 1787 45 l 1,118,-1
 1787 0 l 1,119,-1
 1053 0 l 1,120,-1
 1053 0 l 1,114,-1
EndSplineSet
EndChar

StartChar: TTO
Encoding: 57946 57946 79
Width: 2152
GlyphClass: 1
Flags: W
LayerCount: 2
Fore
SplineSet
286 150 m 1,0,1
 286 104 286 104 316 72 c 0,2,3
 346 39 346 39 388 39 c 256,4,5
 430 39 430 39 459 72 c 0,6,7
 489 104 489 104 489 150 c 0,8,9
 489 198 489 198 459 232 c 0,10,11
 430 266 430 266 388 266 c 256,12,13
 346 266 346 266 316 232 c 256,14,15
 286 198 286 198 286 150 c 1,16,-1
 286 150 l 1,0,1
47 364 m 1,17,18
 47 522 47 522 144 634 c 256,19,20
 241 746 241 746 378 746 c 0,21,22
 517 746 517 746 616 634 c 0,23,24
 714 521 714 521 714 362 c 2,25,-1
 714 0 l 1,26,-1
 654 0 l 1,27,-1
 654 362 l 2,28,29
 654 500 654 500 573 598 c 256,30,31
 492 696 492 696 378 696 c 256,32,33
 264 696 264 696 183 598 c 256,34,35
 102 500 102 500 102 362 c 0,36,37
 102 252 102 252 146 169 c 0,38,39
 191 86 191 86 263 60 c 1,40,41
 248 75 248 75 239 99 c 0,42,43
 231 122 231 122 231 151 c 0,44,45
 231 219 231 219 277 268 c 0,46,47
 323 316 323 316 388 316 c 256,48,49
 453 316 453 316 498 268 c 0,50,51
 544 219 544 219 544 151 c 0,52,53
 544 68 544 68 497 26 c 256,54,55
 450 -16 450 -16 357 -16 c 0,56,57
 229 -16 229 -16 138 95 c 0,58,59
 47 207 47 207 47 364 c 1,60,-1
 47 364 l 1,17,18
873 0 m 1,61,-1
 873 479 l 1,62,-1
 933 479 l 1,63,-1
 933 45 l 1,64,-1
 1607 45 l 1,65,-1
 1607 0 l 1,66,-1
 873 0 l 1,67,-1
 873 0 l 1,61,-1
1695 479 m 1,68,-1
 2144 479 l 1,69,-1
 2144 435 l 1,70,-1
 1995 435 l 1,71,-1
 1995 0 l 1,72,-1
 1935 0 l 1,73,-1
 1935 435 l 1,74,-1
 1755 435 l 1,75,-1
 1755 0 l 1,76,-1
 1695 0 l 1,77,-1
 1695 479 l 1,78,-1
 1695 479 l 1,68,-1
EndSplineSet
EndChar

StartChar: TTOO
Encoding: 57947 57947 80
Width: 2021
GlyphClass: 1
Flags: W
LayerCount: 2
Fore
SplineSet
423 746 m 1,0,1
 519 746 519 746 576 701 c 0,2,3
 634 656 634 656 634 582 c 0,4,5
 634 535 634 535 592 501 c 0,6,7
 550 468 550 468 491 468 c 0,8,9
 431 468 431 468 388 501 c 0,10,11
 345 535 345 535 345 582 c 0,12,13
 345 620 345 620 372 651 c 0,14,15
 398 682 398 682 441 694 c 1,16,17
 434 696 434 696 423 696 c 0,18,19
 289 696 289 696 194 599 c 256,20,21
 99 502 99 502 99 364 c 0,22,23
 99 229 99 229 194 133 c 256,24,25
 289 37 289 37 423 37 c 0,26,27
 432 37 432 37 435 38 c 1,28,29
 395 49 395 49 370 79 c 256,30,31
 345 109 345 109 345 145 c 0,32,33
 345 195 345 195 388 231 c 0,34,35
 431 266 431 266 491 266 c 0,36,37
 550 266 550 266 592 231 c 0,38,39
 634 195 634 195 634 145 c 0,40,41
 634 73 634 73 576 30 c 0,42,43
 519 -13 519 -13 423 -13 c 0,44,45
 266 -13 266 -13 155 97 c 256,46,47
 44 207 44 207 44 363 c 0,48,49
 44 522 44 522 155 634 c 256,50,51
 266 746 266 746 423 746 c 1,52,-1
 423 746 l 1,0,1
400 582 m 1,53,54
 400 555 400 555 427 537 c 0,55,56
 453 518 453 518 491 518 c 0,57,58
 527 518 527 518 553 537 c 0,59,60
 579 555 579 555 579 582 c 0,61,62
 579 612 579 612 553 633 c 256,63,64
 527 654 527 654 491 654 c 0,65,66
 453 654 453 654 427 633 c 0,67,68
 400 612 400 612 400 582 c 1,69,-1
 400 582 l 1,53,54
400 145 m 1,70,71
 400 115 400 115 427 94 c 0,72,73
 453 73 453 73 491 73 c 0,74,75
 527 73 527 73 553 94 c 256,76,77
 579 115 579 115 579 145 c 0,78,79
 579 174 579 174 553 195 c 256,80,81
 527 216 527 216 491 216 c 0,82,83
 453 216 453 216 427 195 c 0,84,85
 400 174 400 174 400 145 c 1,86,-1
 400 145 l 1,70,71
742 0 m 1,87,-1
 742 479 l 1,88,-1
 802 479 l 1,89,-1
 802 45 l 1,90,-1
 1476 45 l 1,91,-1
 1476 0 l 1,92,-1
 742 0 l 1,93,-1
 742 0 l 1,87,-1
1564 479 m 1,94,-1
 2013 479 l 1,95,-1
 2013 435 l 1,96,-1
 1864 435 l 1,97,-1
 1864 0 l 1,98,-1
 1804 0 l 1,99,-1
 1804 435 l 1,100,-1
 1624 435 l 1,101,-1
 1624 0 l 1,102,-1
 1564 0 l 1,103,-1
 1564 479 l 1,104,-1
 1564 479 l 1,94,-1
EndSplineSet
EndChar

StartChar: TTAU
Encoding: 57948 57948 81
Width: 2552
GlyphClass: 1
Flags: W
LayerCount: 2
Fore
SplineSet
286 150 m 1,0,1
 286 104 286 104 316 72 c 0,2,3
 346 39 346 39 388 39 c 256,4,5
 430 39 430 39 459 72 c 0,6,7
 489 104 489 104 489 150 c 0,8,9
 489 198 489 198 459 232 c 0,10,11
 430 266 430 266 388 266 c 256,12,13
 346 266 346 266 316 232 c 256,14,15
 286 198 286 198 286 150 c 1,16,-1
 286 150 l 1,0,1
47 364 m 1,17,18
 47 522 47 522 144 634 c 256,19,20
 241 746 241 746 378 746 c 0,21,22
 517 746 517 746 616 634 c 0,23,24
 714 521 714 521 714 362 c 2,25,-1
 714 0 l 1,26,-1
 654 0 l 1,27,-1
 654 362 l 2,28,29
 654 500 654 500 573 598 c 256,30,31
 492 696 492 696 378 696 c 256,32,33
 264 696 264 696 183 598 c 256,34,35
 102 500 102 500 102 362 c 0,36,37
 102 252 102 252 146 169 c 0,38,39
 191 86 191 86 263 60 c 1,40,41
 248 75 248 75 239 99 c 0,42,43
 231 122 231 122 231 151 c 0,44,45
 231 219 231 219 277 268 c 0,46,47
 323 316 323 316 388 316 c 256,48,49
 453 316 453 316 498 268 c 0,50,51
 544 219 544 219 544 151 c 0,52,53
 544 68 544 68 497 26 c 256,54,55
 450 -16 450 -16 357 -16 c 0,56,57
 229 -16 229 -16 138 95 c 0,58,59
 47 207 47 207 47 364 c 1,60,-1
 47 364 l 1,17,18
873 0 m 1,61,-1
 873 479 l 1,62,-1
 933 479 l 1,63,-1
 933 45 l 1,64,-1
 1607 45 l 1,65,-1
 1607 0 l 1,66,-1
 873 0 l 1,67,-1
 873 0 l 1,61,-1
1809 133 m 1,68,69
 1809 94 1809 94 1832 67 c 0,70,71
 1854 39 1854 39 1886 39 c 0,72,73
 1917 39 1917 39 1940 67 c 0,74,75
 1962 94 1962 94 1962 133 c 256,76,77
 1962 172 1962 172 1940 199 c 0,78,79
 1917 227 1917 227 1886 227 c 0,80,81
 1854 227 1854 227 1832 199 c 0,82,83
 1809 172 1809 172 1809 133 c 1,84,-1
 1809 133 l 1,68,69
2100 479 m 1,85,-1
 2544 479 l 1,86,-1
 2544 435 l 1,87,-1
 2402 435 l 1,88,-1
 2402 0 l 1,89,-1
 2342 0 l 1,90,-1
 2342 435 l 1,91,-1
 2160 435 l 1,92,-1
 2160 0 l 1,93,-1
 2100 0 l 1,94,-1
 2100 240 l 2,95,96
 2100 325 2100 325 2041 386 c 0,97,98
 1983 446 1983 446 1900 446 c 0,99,100
 1823 446 1823 446 1768 382 c 0,101,102
 1714 318 1714 318 1714 227 c 0,103,104
 1714 171 1714 171 1730 130 c 0,105,106
 1745 88 1745 88 1773 71 c 1,107,108
 1754 97 1754 97 1754 133 c 0,109,110
 1754 193 1754 193 1793 235 c 0,111,112
 1831 277 1831 277 1886 277 c 0,113,114
 1940 277 1940 277 1979 235 c 0,115,116
 2017 193 2017 193 2017 133 c 256,117,118
 2017 73 2017 73 1978 31 c 256,119,120
 1939 -11 1939 -11 1883 -11 c 0,121,122
 1790 -11 1790 -11 1725 59 c 0,123,124
 1659 128 1659 128 1659 227 c 0,125,126
 1659 338 1659 338 1730 417 c 0,127,128
 1800 496 1800 496 1900 496 c 0,129,130
 1963 496 1963 496 2016 466 c 0,131,132
 2070 435 2070 435 2100 383 c 1,133,-1
 2100 479 l 1,134,-1
 2100 479 l 1,85,-1
EndSplineSet
EndChar

StartChar: NN
Encoding: 57952 57952 82
Width: 1329
GlyphClass: 1
Flags: W
LayerCount: 2
Fore
SplineSet
180 130 m 1,0,1
 180 92 180 92 203 66 c 0,2,3
 225 39 225 39 257 39 c 256,4,5
 289 39 289 39 311 66 c 0,6,7
 334 92 334 92 334 130 c 0,8,9
 334 170 334 170 312 199 c 0,10,11
 289 227 289 227 258 227 c 0,12,13
 226 227 226 227 203 199 c 0,14,15
 180 170 180 170 180 130 c 1,16,-1
 180 130 l 1,0,1
477 189 m 1,17,18
 477 127 477 127 497 83 c 0,19,20
 516 39 516 39 544 39 c 256,21,22
 572 39 572 39 592 83 c 256,23,24
 612 127 612 127 612 189 c 0,25,26
 612 249 612 249 596 297 c 0,27,28
 579 345 579 345 549 374 c 1,29,30
 514 341 514 341 496 293 c 0,31,32
 477 244 477 244 477 189 c 1,33,-1
 477 189 l 1,17,18
781 189 m 1,34,35
 781 127 781 127 801 83 c 0,36,37
 820 39 820 39 848 39 c 256,38,39
 876 39 876 39 896 83 c 256,40,41
 916 127 916 127 916 189 c 0,42,43
 916 249 916 249 899 297 c 0,44,45
 883 345 883 345 852 375 c 1,46,47
 818 342 818 342 799 294 c 0,48,49
 781 245 781 245 781 189 c 1,50,-1
 781 189 l 1,34,35
43 201 m 1,51,52
 43 323 43 323 136 410 c 0,53,54
 228 496 228 496 359 496 c 0,55,56
 454 496 454 496 542 441 c 1,57,58
 630 496 630 496 700 496 c 0,59,60
 764 496 764 496 852 441 c 1,61,62
 913 479 913 479 992 479 c 2,63,-1
 1321 479 l 1,64,-1
 1321 435 l 1,65,-1
 1165 435 l 1,66,-1
 1165 0 l 1,67,-1
 1105 0 l 1,68,-1
 1105 435 l 1,69,-1
 992 435 l 2,70,71
 939 435 939 435 896 406 c 1,72,73
 932 374 932 374 951 317 c 0,74,75
 971 260 971 260 971 189 c 0,76,77
 971 106 971 106 935 48 c 0,78,79
 899 -11 899 -11 848 -11 c 256,80,81
 797 -11 797 -11 762 48 c 0,82,83
 726 106 726 106 726 189 c 0,84,85
 726 264 726 264 750 322 c 0,86,87
 773 380 773 380 815 406 c 1,88,89
 756 446 756 446 700 446 c 0,90,91
 641 446 641 446 580 405 c 1,92,93
 621 380 621 380 644 322 c 256,94,95
 667 264 667 264 667 189 c 0,96,97
 667 106 667 106 631 48 c 0,98,99
 595 -11 595 -11 544 -11 c 256,100,101
 493 -11 493 -11 458 48 c 0,102,103
 422 106 422 106 422 189 c 0,104,105
 422 254 422 254 445 311 c 0,106,107
 469 368 469 368 511 406 c 1,108,109
 452 446 452 446 359 446 c 0,110,111
 251 446 251 446 174 374 c 0,112,113
 98 302 98 302 98 201 c 0,114,115
 98 160 98 160 108 130 c 0,116,117
 119 99 119 99 137 88 c 1,118,119
 131 96 131 96 128 107 c 0,120,121
 125 119 125 119 125 132 c 0,122,123
 125 192 125 192 164 235 c 0,124,125
 203 277 203 277 258 277 c 0,126,127
 312 277 312 277 351 233 c 0,128,129
 389 189 389 189 389 127 c 0,130,131
 389 70 389 70 343 29 c 0,132,133
 298 -11 298 -11 233 -11 c 0,134,135
 154 -11 154 -11 99 51 c 0,136,137
 43 113 43 113 43 201 c 1,138,-1
 43 201 l 1,51,52
601 589 m 1,139,140
 601 609 601 609 619 623 c 0,141,142
 638 637 638 637 664 637 c 0,143,144
 691 637 691 637 709 623 c 0,145,146
 728 609 728 609 728 589 c 0,147,148
 728 570 728 570 709 556 c 0,149,150
 691 542 691 542 664 542 c 0,151,152
 638 542 638 542 619 556 c 0,153,154
 601 570 601 570 601 589 c 1,155,-1
 601 589 l 1,139,140
EndSplineSet
EndChar

StartChar: NNA
Encoding: 57953 57953 83
Width: 1329
GlyphClass: 1
Flags: W
LayerCount: 2
Fore
SplineSet
180 130 m 1,0,1
 180 92 180 92 203 66 c 0,2,3
 225 39 225 39 257 39 c 256,4,5
 289 39 289 39 311 66 c 0,6,7
 334 92 334 92 334 130 c 0,8,9
 334 170 334 170 312 199 c 0,10,11
 289 227 289 227 258 227 c 0,12,13
 226 227 226 227 203 199 c 0,14,15
 180 170 180 170 180 130 c 1,16,-1
 180 130 l 1,0,1
477 189 m 1,17,18
 477 127 477 127 497 83 c 0,19,20
 516 39 516 39 544 39 c 256,21,22
 572 39 572 39 592 83 c 256,23,24
 612 127 612 127 612 189 c 0,25,26
 612 249 612 249 596 297 c 0,27,28
 579 345 579 345 549 374 c 1,29,30
 514 341 514 341 496 293 c 0,31,32
 477 244 477 244 477 189 c 1,33,-1
 477 189 l 1,17,18
781 189 m 1,34,35
 781 127 781 127 801 83 c 0,36,37
 820 39 820 39 848 39 c 256,38,39
 876 39 876 39 896 83 c 256,40,41
 916 127 916 127 916 189 c 0,42,43
 916 249 916 249 899 297 c 0,44,45
 883 345 883 345 852 375 c 1,46,47
 818 342 818 342 799 294 c 0,48,49
 781 245 781 245 781 189 c 1,50,-1
 781 189 l 1,34,35
43 201 m 1,51,52
 43 323 43 323 136 410 c 0,53,54
 228 496 228 496 359 496 c 0,55,56
 454 496 454 496 542 441 c 1,57,58
 630 496 630 496 700 496 c 0,59,60
 764 496 764 496 852 441 c 1,61,62
 913 479 913 479 992 479 c 2,63,-1
 1321 479 l 1,64,-1
 1321 435 l 1,65,-1
 1165 435 l 1,66,-1
 1165 0 l 1,67,-1
 1105 0 l 1,68,-1
 1105 435 l 1,69,-1
 992 435 l 2,70,71
 939 435 939 435 896 406 c 1,72,73
 932 374 932 374 951 317 c 0,74,75
 971 260 971 260 971 189 c 0,76,77
 971 106 971 106 935 48 c 0,78,79
 899 -11 899 -11 848 -11 c 256,80,81
 797 -11 797 -11 762 48 c 0,82,83
 726 106 726 106 726 189 c 0,84,85
 726 264 726 264 750 322 c 0,86,87
 773 380 773 380 815 406 c 1,88,89
 756 446 756 446 700 446 c 0,90,91
 641 446 641 446 580 405 c 1,92,93
 621 380 621 380 644 322 c 256,94,95
 667 264 667 264 667 189 c 0,96,97
 667 106 667 106 631 48 c 0,98,99
 595 -11 595 -11 544 -11 c 256,100,101
 493 -11 493 -11 458 48 c 0,102,103
 422 106 422 106 422 189 c 0,104,105
 422 254 422 254 445 311 c 0,106,107
 469 368 469 368 511 406 c 1,108,109
 452 446 452 446 359 446 c 0,110,111
 251 446 251 446 174 374 c 0,112,113
 98 302 98 302 98 201 c 0,114,115
 98 160 98 160 108 130 c 0,116,117
 119 99 119 99 137 88 c 1,118,119
 131 96 131 96 128 107 c 0,120,121
 125 119 125 119 125 132 c 0,122,123
 125 192 125 192 164 235 c 0,124,125
 203 277 203 277 258 277 c 0,126,127
 312 277 312 277 351 233 c 0,128,129
 389 189 389 189 389 127 c 0,130,131
 389 70 389 70 343 29 c 0,132,133
 298 -11 298 -11 233 -11 c 0,134,135
 154 -11 154 -11 99 51 c 0,136,137
 43 113 43 113 43 201 c 1,138,-1
 43 201 l 1,51,52
EndSplineSet
EndChar

StartChar: NNAA
Encoding: 57954 57954 84
Width: 1866
GlyphClass: 1
Flags: W
LayerCount: 2
Fore
SplineSet
180 130 m 1,0,1
 180 92 180 92 203 66 c 0,2,3
 225 39 225 39 257 39 c 256,4,5
 289 39 289 39 311 66 c 0,6,7
 334 92 334 92 334 130 c 0,8,9
 334 170 334 170 312 199 c 0,10,11
 289 227 289 227 258 227 c 0,12,13
 226 227 226 227 203 199 c 0,14,15
 180 170 180 170 180 130 c 1,16,-1
 180 130 l 1,0,1
477 189 m 1,17,18
 477 127 477 127 497 83 c 0,19,20
 516 39 516 39 544 39 c 256,21,22
 572 39 572 39 592 83 c 256,23,24
 612 127 612 127 612 189 c 0,25,26
 612 249 612 249 596 297 c 0,27,28
 579 345 579 345 549 374 c 1,29,30
 514 341 514 341 496 293 c 0,31,32
 477 244 477 244 477 189 c 1,33,-1
 477 189 l 1,17,18
781 189 m 1,34,35
 781 127 781 127 801 83 c 0,36,37
 820 39 820 39 848 39 c 256,38,39
 876 39 876 39 896 83 c 256,40,41
 916 127 916 127 916 189 c 0,42,43
 916 249 916 249 899 297 c 0,44,45
 883 345 883 345 852 375 c 1,46,47
 818 342 818 342 799 294 c 0,48,49
 781 245 781 245 781 189 c 1,50,-1
 781 189 l 1,34,35
43 201 m 1,51,52
 43 323 43 323 136 410 c 0,53,54
 228 496 228 496 359 496 c 0,55,56
 454 496 454 496 542 441 c 1,57,58
 630 496 630 496 700 496 c 0,59,60
 764 496 764 496 852 441 c 1,61,62
 913 479 913 479 992 479 c 2,63,-1
 1321 479 l 1,64,-1
 1321 435 l 1,65,-1
 1165 435 l 1,66,-1
 1165 0 l 1,67,-1
 1105 0 l 1,68,-1
 1105 435 l 1,69,-1
 992 435 l 2,70,71
 939 435 939 435 896 406 c 1,72,73
 932 374 932 374 951 317 c 0,74,75
 971 260 971 260 971 189 c 0,76,77
 971 106 971 106 935 48 c 0,78,79
 899 -11 899 -11 848 -11 c 256,80,81
 797 -11 797 -11 762 48 c 0,82,83
 726 106 726 106 726 189 c 0,84,85
 726 264 726 264 750 322 c 0,86,87
 773 380 773 380 815 406 c 1,88,89
 756 446 756 446 700 446 c 0,90,91
 641 446 641 446 580 405 c 1,92,93
 621 380 621 380 644 322 c 256,94,95
 667 264 667 264 667 189 c 0,96,97
 667 106 667 106 631 48 c 0,98,99
 595 -11 595 -11 544 -11 c 256,100,101
 493 -11 493 -11 458 48 c 0,102,103
 422 106 422 106 422 189 c 0,104,105
 422 254 422 254 445 311 c 0,106,107
 469 368 469 368 511 406 c 1,108,109
 452 446 452 446 359 446 c 0,110,111
 251 446 251 446 174 374 c 0,112,113
 98 302 98 302 98 201 c 0,114,115
 98 160 98 160 108 130 c 0,116,117
 119 99 119 99 137 88 c 1,118,119
 131 96 131 96 128 107 c 0,120,121
 125 119 125 119 125 132 c 0,122,123
 125 192 125 192 164 235 c 0,124,125
 203 277 203 277 258 277 c 0,126,127
 312 277 312 277 351 233 c 0,128,129
 389 189 389 189 389 127 c 0,130,131
 389 70 389 70 343 29 c 0,132,133
 298 -11 298 -11 233 -11 c 0,134,135
 154 -11 154 -11 99 51 c 0,136,137
 43 113 43 113 43 201 c 1,138,-1
 43 201 l 1,51,52
1409 479 m 1,139,-1
 1858 479 l 1,140,-1
 1858 435 l 1,141,-1
 1709 435 l 1,142,-1
 1709 0 l 1,143,-1
 1649 0 l 1,144,-1
 1649 435 l 1,145,-1
 1469 435 l 1,146,-1
 1469 0 l 1,147,-1
 1409 0 l 1,148,-1
 1409 479 l 1,149,-1
 1409 479 l 1,139,-1
EndSplineSet
EndChar

StartChar: NNI
Encoding: 57955 57955 85
Width: 1542
GlyphClass: 1
Flags: W
LayerCount: 2
Fore
SplineSet
185 132 m 1,0,1
 185 93 185 93 208 66 c 256,2,3
 231 39 231 39 264 39 c 0,4,5
 295 39 295 39 317 66 c 256,6,7
 339 93 339 93 339 132 c 256,8,9
 339 171 339 171 317 199 c 256,10,11
 295 227 295 227 264 227 c 0,12,13
 231 227 231 227 208 199 c 256,14,15
 185 171 185 171 185 132 c 1,16,-1
 185 132 l 1,0,1
484 189 m 1,17,18
 484 127 484 127 504 83 c 0,19,20
 523 39 523 39 551 39 c 256,21,22
 579 39 579 39 598 83 c 0,23,24
 618 127 618 127 618 189 c 0,25,26
 618 246 618 246 602 293 c 0,27,28
 585 340 585 340 555 369 c 1,29,30
 521 336 521 336 502 289 c 0,31,32
 484 242 484 242 484 189 c 1,33,-1
 484 189 l 1,17,18
787 189 m 1,34,35
 787 127 787 127 807 83 c 0,36,37
 826 39 826 39 854 39 c 256,38,39
 882 39 882 39 901 83 c 0,40,41
 921 127 921 127 921 189 c 0,42,43
 921 249 921 249 905 298 c 0,44,45
 889 346 889 346 859 375 c 1,46,47
 824 342 824 342 806 293 c 0,48,49
 787 245 787 245 787 189 c 1,50,-1
 787 189 l 1,34,35
42 201 m 1,51,52
 42 323 42 323 137 410 c 0,53,54
 231 496 231 496 365 496 c 0,55,56
 467 496 467 496 555 441 c 1,57,58
 643 496 643 496 707 496 c 0,59,60
 776 496 776 496 864 441 c 1,61,62
 925 479 925 479 997 479 c 2,63,-1
 1112 479 l 1,64,65
 1076 503 1076 503 1056 533 c 256,66,67
 1036 563 1036 563 1036 592 c 0,68,69
 1036 652 1036 652 1095 694 c 256,70,71
 1154 736 1154 736 1238 736 c 0,72,73
 1331 736 1331 736 1396 691 c 0,74,75
 1462 646 1462 646 1462 582 c 2,76,-1
 1462 0 l 1,77,-1
 1402 0 l 1,78,-1
 1402 582 l 2,79,80
 1402 625 1402 625 1354 656 c 0,81,82
 1306 686 1306 686 1238 686 c 0,83,84
 1177 686 1177 686 1134 658 c 0,85,86
 1091 631 1091 631 1091 592 c 0,87,88
 1091 560 1091 560 1117 529 c 0,89,90
 1144 499 1144 499 1188 479 c 1,91,-1
 1326 479 l 1,92,-1
 1326 435 l 1,93,-1
 1172 435 l 1,94,-1
 1172 0 l 1,95,-1
 1112 0 l 1,96,-1
 1112 435 l 1,97,-1
 997 435 l 2,98,99
 955 435 955 435 896 406 c 1,100,101
 934 372 934 372 955 315 c 256,102,103
 976 258 976 258 976 189 c 0,104,105
 976 106 976 106 940 48 c 0,106,107
 904 -11 904 -11 853 -11 c 0,108,109
 803 -11 803 -11 767 48 c 0,110,111
 732 106 732 106 732 189 c 0,112,113
 732 266 732 266 754 324 c 256,114,115
 776 382 776 382 814 406 c 1,116,117
 785 426 785 426 758 436 c 0,118,119
 730 446 730 446 707 446 c 256,120,121
 684 446 684 446 655 434 c 0,122,123
 625 422 625 422 592 400 c 1,124,125
 630 376 630 376 651 320 c 0,126,127
 673 264 673 264 673 189 c 0,128,129
 673 106 673 106 637 48 c 0,130,131
 601 -11 601 -11 550 -11 c 0,132,133
 500 -11 500 -11 464 48 c 0,134,135
 429 106 429 106 429 189 c 0,136,137
 429 258 429 258 450 314 c 0,138,139
 471 371 471 371 510 406 c 1,140,141
 451 446 451 446 365 446 c 0,142,143
 254 446 254 446 175 374 c 0,144,145
 97 302 97 302 97 201 c 0,146,147
 97 154 97 154 111 119 c 0,148,149
 125 83 125 83 150 68 c 1,150,151
 130 96 130 96 130 132 c 0,152,153
 130 192 130 192 169 235 c 0,154,155
 208 277 208 277 264 277 c 0,156,157
 318 277 318 277 356 233 c 256,158,159
 394 189 394 189 394 126 c 0,160,161
 394 69 394 69 348 29 c 0,162,163
 303 -11 303 -11 238 -11 c 0,164,165
 157 -11 157 -11 99 51 c 0,166,167
 42 113 42 113 42 201 c 1,168,-1
 42 201 l 1,51,52
EndSplineSet
EndChar

StartChar: NNII
Encoding: 57956 57956 86
Width: 1331
GlyphClass: 1
Flags: W
LayerCount: 2
Fore
SplineSet
180 127 m 1,0,1
 180 91 180 91 203 65 c 256,2,3
 226 39 226 39 258 39 c 0,4,5
 289 39 289 39 312 65 c 0,6,7
 334 91 334 91 334 127 c 0,8,9
 334 168 334 168 312 198 c 0,10,11
 289 227 289 227 258 227 c 0,12,13
 226 227 226 227 203 198 c 0,14,15
 180 168 180 168 180 127 c 1,16,-1
 180 127 l 1,0,1
477 189 m 1,17,18
 477 127 477 127 497 83 c 0,19,20
 516 39 516 39 544 39 c 256,21,22
 572 39 572 39 592 83 c 256,23,24
 612 127 612 127 612 189 c 0,25,26
 612 249 612 249 596 297 c 0,27,28
 579 345 579 345 549 374 c 1,29,30
 514 341 514 341 496 293 c 0,31,32
 477 244 477 244 477 189 c 1,33,-1
 477 189 l 1,17,18
781 189 m 1,34,35
 781 127 781 127 801 83 c 0,36,37
 820 39 820 39 848 39 c 256,38,39
 876 39 876 39 896 83 c 256,40,41
 916 127 916 127 916 189 c 256,42,43
 916 251 916 251 899 301 c 0,44,45
 883 350 883 350 852 380 c 1,46,47
 818 347 818 347 799 297 c 0,48,49
 781 248 781 248 781 189 c 1,50,-1
 781 189 l 1,34,35
43 201 m 1,51,52
 43 323 43 323 136 410 c 0,53,54
 228 496 228 496 359 496 c 0,55,56
 461 496 461 496 549 441 c 1,57,58
 592 468 592 468 631 482 c 0,59,60
 669 496 669 496 700 496 c 0,61,62
 771 496 771 496 859 441 c 1,63,64
 920 479 920 479 992 479 c 2,65,-1
 1095 479 l 1,66,67
 1049 501 1049 501 1022 538 c 0,68,69
 995 574 995 574 995 613 c 0,70,71
 995 666 995 666 1055 703 c 256,72,73
 1115 740 1115 740 1199 740 c 0,74,75
 1263 740 1263 740 1308 707 c 0,76,77
 1353 675 1353 675 1353 629 c 256,78,79
 1353 583 1353 583 1318 551 c 0,80,81
 1283 518 1283 518 1234 518 c 0,82,83
 1181 518 1181 518 1144 548 c 0,84,85
 1107 577 1107 577 1107 619 c 0,86,87
 1107 643 1107 643 1118 661 c 0,88,89
 1128 680 1128 680 1146 688 c 1,90,91
 1105 682 1105 682 1077 661 c 0,92,93
 1050 639 1050 639 1050 613 c 0,94,95
 1050 578 1050 578 1085 541 c 0,96,97
 1120 505 1120 505 1178 479 c 1,98,-1
 1323 479 l 1,99,-1
 1323 435 l 1,100,-1
 1167 435 l 1,101,-1
 1167 0 l 1,102,-1
 1107 0 l 1,103,-1
 1107 435 l 1,104,-1
 992 435 l 2,105,106
 950 435 950 435 891 406 c 1,107,108
 929 372 929 372 950 315 c 256,109,110
 971 258 971 258 971 189 c 0,111,112
 971 106 971 106 935 48 c 0,113,114
 898 -11 898 -11 847 -11 c 0,115,116
 797 -11 797 -11 761 48 c 0,117,118
 726 106 726 106 726 189 c 0,119,120
 726 266 726 266 748 324 c 256,121,122
 770 382 770 382 808 406 c 1,123,124
 779 426 779 426 751 436 c 0,125,126
 724 446 724 446 700 446 c 0,127,128
 678 446 678 446 649 434 c 256,129,130
 620 422 620 422 587 400 c 1,131,132
 624 377 624 377 646 320 c 0,133,134
 667 264 667 264 667 189 c 0,135,136
 667 106 667 106 631 48 c 0,137,138
 594 -11 594 -11 543 -11 c 0,139,140
 493 -11 493 -11 457 48 c 0,141,142
 422 106 422 106 422 189 c 0,143,144
 422 257 422 257 444 314 c 0,145,146
 465 370 465 370 505 406 c 1,147,148
 446 446 446 446 359 446 c 0,149,150
 251 446 251 446 174 374 c 0,151,152
 98 302 98 302 98 201 c 0,153,154
 98 158 98 158 107 128 c 256,155,156
 116 98 116 98 132 88 c 1,157,158
 129 93 129 93 127 104 c 256,159,160
 125 115 125 115 125 132 c 0,161,162
 125 192 125 192 164 235 c 0,163,164
 203 277 203 277 258 277 c 0,165,166
 312 277 312 277 351 233 c 0,167,168
 389 189 389 189 389 127 c 0,169,170
 389 70 389 70 343 29 c 0,171,172
 298 -11 298 -11 233 -11 c 0,173,174
 154 -11 154 -11 99 51 c 0,175,176
 43 113 43 113 43 201 c 1,177,-1
 43 201 l 1,51,52
1162 626 m 1,178,179
 1162 603 1162 603 1182 587 c 0,180,181
 1201 571 1201 571 1229 571 c 0,182,183
 1258 571 1258 571 1278 587 c 256,184,185
 1298 603 1298 603 1298 626 c 256,186,187
 1298 649 1298 649 1278 665 c 256,188,189
 1258 681 1258 681 1229 681 c 0,190,191
 1201 681 1201 681 1182 665 c 0,192,193
 1162 649 1162 649 1162 626 c 1,194,-1
 1162 626 l 1,178,179
EndSplineSet
EndChar

StartChar: NNU
Encoding: 57957 57957 87
Width: 1473
GlyphClass: 1
Flags: W
LayerCount: 2
Fore
SplineSet
180 133 m 1,0,1
 180 94 180 94 203 67 c 0,2,3
 226 39 226 39 258 39 c 0,4,5
 289 39 289 39 312 67 c 0,6,7
 334 94 334 94 334 133 c 256,8,9
 334 172 334 172 312 199 c 0,10,11
 289 227 289 227 258 227 c 0,12,13
 226 227 226 227 203 199 c 0,14,15
 180 172 180 172 180 133 c 1,16,-1
 180 133 l 1,0,1
477 189 m 1,17,18
 477 127 477 127 497 83 c 0,19,20
 516 39 516 39 544 39 c 256,21,22
 572 39 572 39 592 83 c 256,23,24
 612 127 612 127 612 189 c 0,25,26
 612 249 612 249 596 297 c 0,27,28
 579 345 579 345 549 374 c 1,29,30
 514 341 514 341 496 293 c 0,31,32
 477 244 477 244 477 189 c 1,33,-1
 477 189 l 1,17,18
781 189 m 1,34,35
 781 127 781 127 801 83 c 0,36,37
 820 39 820 39 848 39 c 256,38,39
 876 39 876 39 896 83 c 256,40,41
 916 127 916 127 916 189 c 256,42,43
 916 251 916 251 899 301 c 0,44,45
 883 350 883 350 852 380 c 1,46,47
 818 347 818 347 799 297 c 0,48,49
 781 248 781 248 781 189 c 1,50,-1
 781 189 l 1,34,35
992 496 m 1,51,52
 1088 496 1088 496 1156 410 c 0,53,54
 1224 323 1224 323 1224 201 c 0,55,56
 1224 123 1224 123 1200 57 c 0,57,58
 1175 -9 1175 -9 1130 -53 c 1,59,-1
 1333 -53 l 1,60,-1
 1333 479 l 1,61,-1
 1393 479 l 1,62,-1
 1393 -103 l 1,63,-1
 1093 -103 l 1,64,65
 1017 -177 1017 -177 866 -216 c 0,66,67
 715 -256 715 -256 511 -256 c 0,68,69
 377 -256 377 -256 276 -236 c 0,70,71
 176 -215 176 -215 118 -176 c 0,72,73
 95 -160 95 -160 81 -145 c 0,74,75
 68 -129 68 -129 68 -117 c 0,76,77
 68 -90 68 -90 90 -72 c 0,78,79
 113 -53 113 -53 144 -53 c 2,80,-1
 1055 -53 l 1,81,82
 1109 -4 1109 -4 1139 62 c 0,83,84
 1169 129 1169 129 1169 201 c 0,85,86
 1169 302 1169 302 1117 374 c 256,87,88
 1065 446 1065 446 992 446 c 0,89,90
 968 446 968 446 943 436 c 0,91,92
 917 425 917 425 892 406 c 1,93,94
 930 372 930 372 950 315 c 0,95,96
 971 259 971 259 971 189 c 0,97,98
 971 106 971 106 935 48 c 0,99,100
 898 -11 898 -11 847 -11 c 0,101,102
 797 -11 797 -11 761 48 c 0,103,104
 726 106 726 106 726 189 c 0,105,106
 726 263 726 263 751 321 c 0,107,108
 775 379 775 379 818 406 c 1,109,110
 759 446 759 446 700 446 c 0,111,112
 675 446 675 446 647 436 c 0,113,114
 619 425 619 425 589 405 c 1,115,116
 625 382 625 382 646 325 c 0,117,118
 667 267 667 267 667 189 c 0,119,120
 667 106 667 106 631 48 c 0,121,122
 594 -11 594 -11 543 -11 c 0,123,124
 493 -11 493 -11 457 48 c 0,125,126
 422 106 422 106 422 189 c 0,127,128
 422 254 422 254 446 311 c 0,129,130
 469 367 469 367 512 406 c 1,131,132
 453 446 453 446 359 446 c 0,133,134
 251 446 251 446 174 374 c 0,135,136
 98 302 98 302 98 201 c 0,137,138
 98 149 98 149 114 110 c 0,139,140
 129 70 129 70 157 53 c 1,141,142
 141 74 141 74 133 95 c 0,143,144
 125 115 125 115 125 132 c 0,145,146
 125 192 125 192 164 235 c 0,147,148
 203 277 203 277 258 277 c 0,149,150
 312 277 312 277 351 235 c 0,151,152
 389 192 389 192 389 132 c 0,153,154
 389 73 389 73 343 31 c 0,155,156
 298 -11 298 -11 233 -11 c 0,157,158
 154 -11 154 -11 99 51 c 0,159,160
 43 113 43 113 43 201 c 0,161,162
 43 323 43 323 136 410 c 0,163,164
 228 496 228 496 359 496 c 0,165,166
 461 496 461 496 549 441 c 1,167,168
 592 468 592 468 631 482 c 0,169,170
 669 496 669 496 700 496 c 0,171,172
 771 496 771 496 859 441 c 1,173,174
 888 468 888 468 923 482 c 0,175,176
 957 496 957 496 992 496 c 1,177,-1
 992 496 l 1,51,52
144 -103 m 1,178,179
 135 -103 135 -103 129 -107 c 256,180,181
 123 -111 123 -111 123 -117 c 0,182,183
 123 -125 123 -125 139 -136 c 0,184,185
 153 -145 153 -145 182 -158 c 0,186,187
 314 -206 314 -206 511 -206 c 0,188,189
 675 -206 675 -206 803 -180 c 0,190,191
 930 -153 930 -153 1011 -103 c 1,192,-1
 144 -103 l 1,193,-1
 144 -103 l 1,178,179
EndSplineSet
EndChar

StartChar: NNUU
Encoding: 57958 57958 88
Width: 1727
GlyphClass: 1
Flags: W
LayerCount: 2
Fore
SplineSet
180 133 m 1,0,1
 180 94 180 94 204 67 c 0,2,3
 229 39 229 39 263 39 c 0,4,5
 294 39 294 39 317 67 c 0,6,7
 339 94 339 94 339 133 c 256,8,9
 339 172 339 172 317 199 c 0,10,11
 294 227 294 227 263 227 c 0,12,13
 229 227 229 227 204 199 c 0,14,15
 180 172 180 172 180 133 c 1,16,-1
 180 133 l 1,0,1
483 189 m 1,17,18
 483 127 483 127 503 83 c 256,19,20
 523 39 523 39 551 39 c 256,21,22
 579 39 579 39 598 83 c 0,23,24
 618 127 618 127 618 189 c 0,25,26
 618 246 618 246 602 293 c 0,27,28
 585 340 585 340 555 369 c 1,29,30
 520 336 520 336 502 289 c 0,31,32
 483 242 483 242 483 189 c 1,33,-1
 483 189 l 1,17,18
787 189 m 1,34,35
 787 127 787 127 807 83 c 0,36,37
 826 39 826 39 854 39 c 256,38,39
 882 39 882 39 901 83 c 0,40,41
 921 127 921 127 921 189 c 0,42,43
 921 249 921 249 905 298 c 0,44,45
 889 346 889 346 859 375 c 1,46,47
 824 342 824 342 806 293 c 0,48,49
 787 245 787 245 787 189 c 1,50,-1
 787 189 l 1,34,35
997 496 m 1,51,52
 1093 496 1093 496 1161 410 c 0,53,54
 1229 323 1229 323 1229 201 c 0,55,56
 1229 122 1229 122 1205 56 c 256,57,58
 1181 -10 1181 -10 1137 -53 c 1,59,-1
 1339 -53 l 1,60,-1
 1339 479 l 1,61,-1
 1719 479 l 1,62,-1
 1719 435 l 1,63,-1
 1588 435 l 1,64,-1
 1588 -103 l 1,65,-1
 1528 -103 l 1,66,-1
 1528 435 l 1,67,-1
 1399 435 l 1,68,-1
 1399 -103 l 1,69,-1
 1092 -103 l 1,70,71
 1016 -177 1016 -177 866 -216 c 0,72,73
 717 -256 717 -256 516 -256 c 0,74,75
 333 -256 333 -256 203 -215 c 0,76,77
 74 -175 74 -175 74 -117 c 0,78,79
 74 -90 74 -90 96 -72 c 0,80,81
 119 -53 119 -53 150 -53 c 2,82,-1
 1061 -53 l 1,83,84
 1115 -4 1115 -4 1144 62 c 0,85,86
 1174 128 1174 128 1174 201 c 0,87,88
 1174 302 1174 302 1122 374 c 256,89,90
 1070 446 1070 446 997 446 c 0,91,92
 973 446 973 446 947 436 c 0,93,94
 921 425 921 425 896 406 c 1,95,96
 934 372 934 372 955 315 c 256,97,98
 976 258 976 258 976 189 c 0,99,100
 976 106 976 106 940 48 c 0,101,102
 904 -11 904 -11 853 -11 c 0,103,104
 803 -11 803 -11 767 48 c 0,105,106
 732 106 732 106 732 189 c 0,107,108
 732 259 732 259 755 316 c 256,109,110
 778 373 778 373 820 406 c 1,111,112
 761 446 761 446 707 446 c 0,113,114
 681 446 681 446 650 434 c 256,115,116
 619 422 619 422 586 400 c 1,117,118
 627 368 627 368 650 312 c 0,119,120
 673 257 673 257 673 189 c 0,121,122
 673 106 673 106 637 48 c 0,123,124
 600 -11 600 -11 549 -11 c 0,125,126
 499 -11 499 -11 463 48 c 0,127,128
 428 106 428 106 428 189 c 0,129,130
 428 257 428 257 448 312 c 256,131,132
 468 367 468 367 504 400 c 1,133,134
 436 446 436 446 365 446 c 0,135,136
 254 446 254 446 175 374 c 0,137,138
 97 302 97 302 97 201 c 0,139,140
 97 154 97 154 108 119 c 0,141,142
 119 85 119 85 139 73 c 1,143,144
 132 82 132 82 129 98 c 0,145,146
 125 113 125 113 125 132 c 0,147,148
 125 192 125 192 165 235 c 0,149,150
 205 277 205 277 262 277 c 0,151,152
 317 277 317 277 355 235 c 0,153,154
 394 192 394 192 394 132 c 0,155,156
 394 73 394 73 353 31 c 0,157,158
 313 -11 313 -11 255 -11 c 0,159,160
 167 -11 167 -11 104 51 c 0,161,162
 42 113 42 113 42 201 c 0,163,164
 42 323 42 323 137 410 c 0,165,166
 231 496 231 496 365 496 c 0,167,168
 467 496 467 496 555 441 c 1,169,170
 643 496 643 496 707 496 c 0,171,172
 776 496 776 496 864 441 c 1,173,174
 893 468 893 468 928 482 c 0,175,176
 962 496 962 496 997 496 c 1,177,-1
 997 496 l 1,51,52
150 -103 m 1,178,179
 141 -103 141 -103 135 -107 c 256,180,181
 129 -111 129 -111 129 -117 c 0,182,183
 129 -124 129 -124 140 -133 c 0,184,185
 151 -143 151 -143 169 -153 c 0,186,187
 269 -206 269 -206 516 -206 c 0,188,189
 680 -206 680 -206 808 -180 c 0,190,191
 935 -153 935 -153 1016 -103 c 1,192,-1
 150 -103 l 1,193,-1
 150 -103 l 1,178,179
EndSplineSet
EndChar

StartChar: NNE
Encoding: 57959 57959 89
Width: 2122
GlyphClass: 1
Flags: W
LayerCount: 2
Fore
SplineSet
286 150 m 1,0,1
 286 104 286 104 316 72 c 0,2,3
 346 39 346 39 388 39 c 256,4,5
 430 39 430 39 459 72 c 0,6,7
 489 104 489 104 489 150 c 0,8,9
 489 198 489 198 459 232 c 0,10,11
 430 266 430 266 388 266 c 256,12,13
 346 266 346 266 316 232 c 256,14,15
 286 198 286 198 286 150 c 1,16,-1
 286 150 l 1,0,1
47 364 m 1,17,18
 47 522 47 522 144 634 c 256,19,20
 241 746 241 746 378 746 c 0,21,22
 517 746 517 746 616 634 c 0,23,24
 714 521 714 521 714 362 c 2,25,-1
 714 0 l 1,26,-1
 654 0 l 1,27,-1
 654 362 l 2,28,29
 654 500 654 500 573 598 c 256,30,31
 492 696 492 696 378 696 c 256,32,33
 264 696 264 696 183 598 c 256,34,35
 102 500 102 500 102 362 c 0,36,37
 102 252 102 252 146 169 c 0,38,39
 191 86 191 86 263 60 c 1,40,41
 248 75 248 75 239 99 c 0,42,43
 231 122 231 122 231 151 c 0,44,45
 231 219 231 219 277 268 c 0,46,47
 323 316 323 316 388 316 c 256,48,49
 453 316 453 316 498 268 c 0,50,51
 544 219 544 219 544 151 c 0,52,53
 544 68 544 68 497 26 c 256,54,55
 450 -16 450 -16 357 -16 c 0,56,57
 229 -16 229 -16 138 95 c 0,58,59
 47 207 47 207 47 364 c 1,60,-1
 47 364 l 1,17,18
973 130 m 1,61,62
 973 92 973 92 996 66 c 0,63,64
 1018 39 1018 39 1050 39 c 256,65,66
 1082 39 1082 39 1104 66 c 0,67,68
 1127 92 1127 92 1127 130 c 0,69,70
 1127 170 1127 170 1105 199 c 0,71,72
 1082 227 1082 227 1051 227 c 0,73,74
 1019 227 1019 227 996 199 c 0,75,76
 973 170 973 170 973 130 c 1,77,-1
 973 130 l 1,61,62
1270 189 m 1,78,79
 1270 127 1270 127 1290 83 c 0,80,81
 1309 39 1309 39 1337 39 c 256,82,83
 1365 39 1365 39 1385 83 c 256,84,85
 1405 127 1405 127 1405 189 c 0,86,87
 1405 249 1405 249 1389 297 c 0,88,89
 1372 345 1372 345 1342 374 c 1,90,91
 1307 341 1307 341 1289 293 c 0,92,93
 1270 244 1270 244 1270 189 c 1,94,-1
 1270 189 l 1,78,79
1574 189 m 1,95,96
 1574 127 1574 127 1594 83 c 0,97,98
 1613 39 1613 39 1641 39 c 256,99,100
 1669 39 1669 39 1689 83 c 256,101,102
 1709 127 1709 127 1709 189 c 0,103,104
 1709 249 1709 249 1692 297 c 0,105,106
 1676 345 1676 345 1645 375 c 1,107,108
 1611 342 1611 342 1592 294 c 0,109,110
 1574 245 1574 245 1574 189 c 1,111,-1
 1574 189 l 1,95,96
836 201 m 1,112,113
 836 323 836 323 929 410 c 0,114,115
 1021 496 1021 496 1152 496 c 0,116,117
 1247 496 1247 496 1335 441 c 1,118,119
 1423 496 1423 496 1493 496 c 0,120,121
 1557 496 1557 496 1645 441 c 1,122,123
 1706 479 1706 479 1785 479 c 2,124,-1
 2114 479 l 1,125,-1
 2114 435 l 1,126,-1
 1958 435 l 1,127,-1
 1958 0 l 1,128,-1
 1898 0 l 1,129,-1
 1898 435 l 1,130,-1
 1785 435 l 2,131,132
 1732 435 1732 435 1689 406 c 1,133,134
 1725 374 1725 374 1744 317 c 0,135,136
 1764 260 1764 260 1764 189 c 0,137,138
 1764 106 1764 106 1728 48 c 0,139,140
 1692 -11 1692 -11 1641 -11 c 256,141,142
 1590 -11 1590 -11 1555 48 c 0,143,144
 1519 106 1519 106 1519 189 c 0,145,146
 1519 264 1519 264 1543 322 c 0,147,148
 1566 380 1566 380 1608 406 c 1,149,150
 1549 446 1549 446 1493 446 c 0,151,152
 1434 446 1434 446 1373 405 c 1,153,154
 1414 380 1414 380 1437 322 c 256,155,156
 1460 264 1460 264 1460 189 c 0,157,158
 1460 106 1460 106 1424 48 c 0,159,160
 1388 -11 1388 -11 1337 -11 c 256,161,162
 1286 -11 1286 -11 1251 48 c 0,163,164
 1215 106 1215 106 1215 189 c 0,165,166
 1215 254 1215 254 1238 311 c 0,167,168
 1262 368 1262 368 1304 406 c 1,169,170
 1245 446 1245 446 1152 446 c 0,171,172
 1044 446 1044 446 967 374 c 0,173,174
 891 302 891 302 891 201 c 0,175,176
 891 160 891 160 901 130 c 0,177,178
 912 99 912 99 930 88 c 1,179,180
 924 96 924 96 921 107 c 0,181,182
 918 119 918 119 918 132 c 0,183,184
 918 192 918 192 957 235 c 0,185,186
 996 277 996 277 1051 277 c 0,187,188
 1105 277 1105 277 1144 233 c 0,189,190
 1182 189 1182 189 1182 127 c 0,191,192
 1182 70 1182 70 1136 29 c 0,193,194
 1091 -11 1091 -11 1026 -11 c 0,195,196
 947 -11 947 -11 892 51 c 0,197,198
 836 113 836 113 836 201 c 1,199,-1
 836 201 l 1,112,113
EndSplineSet
EndChar

StartChar: NNEE
Encoding: 57960 57960 90
Width: 1991
GlyphClass: 1
Flags: W
LayerCount: 2
Fore
SplineSet
423 746 m 1,0,1
 519 746 519 746 576 701 c 0,2,3
 634 656 634 656 634 582 c 0,4,5
 634 535 634 535 592 501 c 0,6,7
 550 468 550 468 491 468 c 0,8,9
 431 468 431 468 388 501 c 0,10,11
 345 535 345 535 345 582 c 0,12,13
 345 620 345 620 372 651 c 0,14,15
 398 682 398 682 441 694 c 1,16,17
 434 696 434 696 423 696 c 0,18,19
 289 696 289 696 194 599 c 256,20,21
 99 502 99 502 99 364 c 0,22,23
 99 229 99 229 194 133 c 256,24,25
 289 37 289 37 423 37 c 0,26,27
 432 37 432 37 435 38 c 1,28,29
 395 49 395 49 370 79 c 256,30,31
 345 109 345 109 345 145 c 0,32,33
 345 195 345 195 388 231 c 0,34,35
 431 266 431 266 491 266 c 0,36,37
 550 266 550 266 592 231 c 0,38,39
 634 195 634 195 634 145 c 0,40,41
 634 73 634 73 576 30 c 0,42,43
 519 -13 519 -13 423 -13 c 0,44,45
 266 -13 266 -13 155 97 c 256,46,47
 44 207 44 207 44 363 c 0,48,49
 44 522 44 522 155 634 c 256,50,51
 266 746 266 746 423 746 c 1,52,-1
 423 746 l 1,0,1
400 582 m 1,53,54
 400 555 400 555 427 537 c 0,55,56
 453 518 453 518 491 518 c 0,57,58
 527 518 527 518 553 537 c 0,59,60
 579 555 579 555 579 582 c 0,61,62
 579 612 579 612 553 633 c 256,63,64
 527 654 527 654 491 654 c 0,65,66
 453 654 453 654 427 633 c 0,67,68
 400 612 400 612 400 582 c 1,69,-1
 400 582 l 1,53,54
400 145 m 1,70,71
 400 115 400 115 427 94 c 0,72,73
 453 73 453 73 491 73 c 0,74,75
 527 73 527 73 553 94 c 256,76,77
 579 115 579 115 579 145 c 0,78,79
 579 174 579 174 553 195 c 256,80,81
 527 216 527 216 491 216 c 0,82,83
 453 216 453 216 427 195 c 0,84,85
 400 174 400 174 400 145 c 1,86,-1
 400 145 l 1,70,71
842 130 m 1,87,88
 842 92 842 92 865 66 c 0,89,90
 887 39 887 39 919 39 c 256,91,92
 951 39 951 39 973 66 c 0,93,94
 996 92 996 92 996 130 c 0,95,96
 996 170 996 170 974 199 c 0,97,98
 951 227 951 227 920 227 c 0,99,100
 888 227 888 227 865 199 c 0,101,102
 842 170 842 170 842 130 c 1,103,-1
 842 130 l 1,87,88
1139 189 m 1,104,105
 1139 127 1139 127 1159 83 c 0,106,107
 1178 39 1178 39 1206 39 c 256,108,109
 1234 39 1234 39 1254 83 c 256,110,111
 1274 127 1274 127 1274 189 c 0,112,113
 1274 249 1274 249 1258 297 c 0,114,115
 1241 345 1241 345 1211 374 c 1,116,117
 1176 341 1176 341 1158 293 c 0,118,119
 1139 244 1139 244 1139 189 c 1,120,-1
 1139 189 l 1,104,105
1443 189 m 1,121,122
 1443 127 1443 127 1463 83 c 0,123,124
 1482 39 1482 39 1510 39 c 256,125,126
 1538 39 1538 39 1558 83 c 256,127,128
 1578 127 1578 127 1578 189 c 0,129,130
 1578 249 1578 249 1561 297 c 0,131,132
 1545 345 1545 345 1514 375 c 1,133,134
 1480 342 1480 342 1461 294 c 0,135,136
 1443 245 1443 245 1443 189 c 1,137,-1
 1443 189 l 1,121,122
705 201 m 1,138,139
 705 323 705 323 798 410 c 0,140,141
 890 496 890 496 1021 496 c 0,142,143
 1116 496 1116 496 1204 441 c 1,144,145
 1292 496 1292 496 1362 496 c 0,146,147
 1426 496 1426 496 1514 441 c 1,148,149
 1575 479 1575 479 1654 479 c 2,150,-1
 1983 479 l 1,151,-1
 1983 435 l 1,152,-1
 1827 435 l 1,153,-1
 1827 0 l 1,154,-1
 1767 0 l 1,155,-1
 1767 435 l 1,156,-1
 1654 435 l 2,157,158
 1601 435 1601 435 1558 406 c 1,159,160
 1594 374 1594 374 1613 317 c 0,161,162
 1633 260 1633 260 1633 189 c 0,163,164
 1633 106 1633 106 1597 48 c 0,165,166
 1561 -11 1561 -11 1510 -11 c 256,167,168
 1459 -11 1459 -11 1424 48 c 0,169,170
 1388 106 1388 106 1388 189 c 0,171,172
 1388 264 1388 264 1412 322 c 0,173,174
 1435 380 1435 380 1477 406 c 1,175,176
 1418 446 1418 446 1362 446 c 0,177,178
 1303 446 1303 446 1242 405 c 1,179,180
 1283 380 1283 380 1306 322 c 256,181,182
 1329 264 1329 264 1329 189 c 0,183,184
 1329 106 1329 106 1293 48 c 0,185,186
 1257 -11 1257 -11 1206 -11 c 256,187,188
 1155 -11 1155 -11 1120 48 c 0,189,190
 1084 106 1084 106 1084 189 c 0,191,192
 1084 254 1084 254 1107 311 c 0,193,194
 1131 368 1131 368 1173 406 c 1,195,196
 1114 446 1114 446 1021 446 c 0,197,198
 913 446 913 446 836 374 c 0,199,200
 760 302 760 302 760 201 c 0,201,202
 760 160 760 160 770 130 c 0,203,204
 781 99 781 99 799 88 c 1,205,206
 793 96 793 96 790 107 c 0,207,208
 787 119 787 119 787 132 c 0,209,210
 787 192 787 192 826 235 c 0,211,212
 865 277 865 277 920 277 c 0,213,214
 974 277 974 277 1013 233 c 0,215,216
 1051 189 1051 189 1051 127 c 0,217,218
 1051 70 1051 70 1005 29 c 0,219,220
 960 -11 960 -11 895 -11 c 0,221,222
 816 -11 816 -11 761 51 c 0,223,224
 705 113 705 113 705 201 c 1,225,-1
 705 201 l 1,138,139
EndSplineSet
EndChar

